%FSLAX45Y45*%
G04 Gerber Fmt 4.5, Leading zero omitted, Abs format (unit mm)*
G04 Created by KiCad (PCBNEW 5.1.9+dfsg1-1+deb11u1) date 2022-10-19 16:44:58*
%MOMM*%
%LPD*%
G01*
G04 APERTURE LIST*
%TA.AperFunction,Profile*%
%ADD10C,0.050000*%
%TD*%
%ADD11C,0.200000*%
%ADD12C,0.300000*%
G04 APERTURE END LIST*
D10*
X21907500Y-4550000D02*
G75*
G02*
X22107500Y-4750000I0J-200000D01*
G01*
X22107500Y-11400000D02*
G75*
G02*
X21907500Y-11600000I-200000J0D01*
G01*
X13807500Y-11600000D02*
G75*
G02*
X13607500Y-11400000I0J200000D01*
G01*
X13607500Y-4750000D02*
G75*
G02*
X13807500Y-4550000I200000J0D01*
G01*
X22107500Y-11400000D02*
X22107500Y-4750000D01*
X13807500Y-11600000D02*
X21907500Y-11600000D01*
X13607500Y-4750000D02*
X13607500Y-11400000D01*
X21907500Y-4550000D02*
X13807500Y-4550000D01*
D11*
X13667500Y-4710000D02*
X13697500Y-4740000D01*
X13697500Y-4710000D02*
X13667500Y-4740000D01*
X13667500Y-5010000D02*
X13697500Y-5040000D01*
X13697500Y-5010000D02*
X13667500Y-5040000D01*
X13667500Y-5310000D02*
X13697500Y-5340000D01*
X13697500Y-5310000D02*
X13667500Y-5340000D01*
X13667500Y-5610000D02*
X13697500Y-5640000D01*
X13697500Y-5610000D02*
X13667500Y-5640000D01*
X13667500Y-5910000D02*
X13697500Y-5940000D01*
X13697500Y-5910000D02*
X13667500Y-5940000D01*
X13667500Y-6210000D02*
X13697500Y-6240000D01*
X13697500Y-6210000D02*
X13667500Y-6240000D01*
X13667500Y-6510000D02*
X13697500Y-6540000D01*
X13697500Y-6510000D02*
X13667500Y-6540000D01*
X13667500Y-6810000D02*
X13697500Y-6840000D01*
X13697500Y-6810000D02*
X13667500Y-6840000D01*
X13667500Y-7110000D02*
X13697500Y-7140000D01*
X13697500Y-7110000D02*
X13667500Y-7140000D01*
X13667500Y-7410000D02*
X13697500Y-7440000D01*
X13697500Y-7410000D02*
X13667500Y-7440000D01*
X13667500Y-7710000D02*
X13697500Y-7740000D01*
X13697500Y-7710000D02*
X13667500Y-7740000D01*
X13667500Y-8010000D02*
X13697500Y-8040000D01*
X13697500Y-8010000D02*
X13667500Y-8040000D01*
X13667500Y-8310000D02*
X13697500Y-8340000D01*
X13697500Y-8310000D02*
X13667500Y-8340000D01*
X13667500Y-8610000D02*
X13697500Y-8640000D01*
X13697500Y-8610000D02*
X13667500Y-8640000D01*
X13667500Y-8910000D02*
X13697500Y-8940000D01*
X13697500Y-8910000D02*
X13667500Y-8940000D01*
X13667500Y-9210000D02*
X13697500Y-9240000D01*
X13697500Y-9210000D02*
X13667500Y-9240000D01*
X13667500Y-9510000D02*
X13697500Y-9540000D01*
X13697500Y-9510000D02*
X13667500Y-9540000D01*
X13667500Y-9810000D02*
X13697500Y-9840000D01*
X13697500Y-9810000D02*
X13667500Y-9840000D01*
X13667500Y-10110000D02*
X13697500Y-10140000D01*
X13697500Y-10110000D02*
X13667500Y-10140000D01*
X13667500Y-10410000D02*
X13697500Y-10440000D01*
X13697500Y-10410000D02*
X13667500Y-10440000D01*
X13667500Y-10710000D02*
X13697500Y-10740000D01*
X13697500Y-10710000D02*
X13667500Y-10740000D01*
X13667500Y-11010000D02*
X13697500Y-11040000D01*
X13697500Y-11010000D02*
X13667500Y-11040000D01*
X13667500Y-11310000D02*
X13697500Y-11340000D01*
X13697500Y-11310000D02*
X13667500Y-11340000D01*
X13742500Y-11460000D02*
X13772500Y-11490000D01*
X13772500Y-11460000D02*
X13742500Y-11490000D01*
X13967500Y-4610000D02*
X13997500Y-4640000D01*
X13997500Y-4610000D02*
X13967500Y-4640000D01*
X13967500Y-11510000D02*
X13997500Y-11540000D01*
X13997500Y-11510000D02*
X13967500Y-11540000D01*
X13992500Y-8785000D02*
X14022500Y-8815000D01*
X14022500Y-8785000D02*
X13992500Y-8815000D01*
X14092500Y-7835000D02*
X14122500Y-7865000D01*
X14122500Y-7835000D02*
X14092500Y-7865000D01*
X14257500Y-7335000D02*
X14287500Y-7365000D01*
X14287500Y-7335000D02*
X14257500Y-7365000D01*
X14267500Y-4610000D02*
X14297500Y-4640000D01*
X14297500Y-4610000D02*
X14267500Y-4640000D01*
X14267500Y-11510000D02*
X14297500Y-11540000D01*
X14297500Y-11510000D02*
X14267500Y-11540000D01*
X14317500Y-7835000D02*
X14347500Y-7865000D01*
X14347500Y-7835000D02*
X14317500Y-7865000D01*
X14417500Y-8785000D02*
X14447500Y-8815000D01*
X14447500Y-8785000D02*
X14417500Y-8815000D01*
X14542500Y-7835000D02*
X14572500Y-7865000D01*
X14572500Y-7835000D02*
X14542500Y-7865000D01*
X14567500Y-4610000D02*
X14597500Y-4640000D01*
X14597500Y-4610000D02*
X14567500Y-4640000D01*
X14567500Y-11510000D02*
X14597500Y-11540000D01*
X14597500Y-11510000D02*
X14567500Y-11540000D01*
X14792500Y-7835000D02*
X14822500Y-7865000D01*
X14822500Y-7835000D02*
X14792500Y-7865000D01*
X14817500Y-7285000D02*
X14847500Y-7315000D01*
X14847500Y-7285000D02*
X14817500Y-7315000D01*
X14867500Y-4610000D02*
X14897500Y-4640000D01*
X14897500Y-4610000D02*
X14867500Y-4640000D01*
X14867500Y-11510000D02*
X14897500Y-11540000D01*
X14897500Y-11510000D02*
X14867500Y-11540000D01*
X14892500Y-8785000D02*
X14922500Y-8815000D01*
X14922500Y-8785000D02*
X14892500Y-8815000D01*
X14942500Y-6235000D02*
X14972500Y-6265000D01*
X14972500Y-6235000D02*
X14942500Y-6265000D01*
X14942500Y-6860000D02*
X14972500Y-6890000D01*
X14972500Y-6860000D02*
X14942500Y-6890000D01*
X15025500Y-9007000D02*
X15055500Y-9037000D01*
X15055500Y-9007000D02*
X15025500Y-9037000D01*
X15067500Y-7835000D02*
X15097500Y-7865000D01*
X15097500Y-7835000D02*
X15067500Y-7865000D01*
X15165920Y-5499224D02*
X15195920Y-5529224D01*
X15195920Y-5499224D02*
X15165920Y-5529224D01*
X15167500Y-4610000D02*
X15197500Y-4640000D01*
X15197500Y-4610000D02*
X15167500Y-4640000D01*
X15167500Y-11510000D02*
X15197500Y-11540000D01*
X15197500Y-11510000D02*
X15167500Y-11540000D01*
X15265920Y-5399224D02*
X15295920Y-5429224D01*
X15295920Y-5399224D02*
X15265920Y-5429224D01*
X15317500Y-7835000D02*
X15347500Y-7865000D01*
X15347500Y-7835000D02*
X15317500Y-7865000D01*
X15349500Y-7102000D02*
X15379500Y-7132000D01*
X15379500Y-7102000D02*
X15349500Y-7132000D01*
X15417500Y-8785000D02*
X15447500Y-8815000D01*
X15447500Y-8785000D02*
X15417500Y-8815000D01*
X15449500Y-7002000D02*
X15479500Y-7032000D01*
X15479500Y-7002000D02*
X15449500Y-7032000D01*
X15467500Y-4610000D02*
X15497500Y-4640000D01*
X15497500Y-4610000D02*
X15467500Y-4640000D01*
X15467500Y-11510000D02*
X15497500Y-11540000D01*
X15497500Y-11510000D02*
X15467500Y-11540000D01*
X15567500Y-7835000D02*
X15597500Y-7865000D01*
X15597500Y-7835000D02*
X15567500Y-7865000D01*
X15593500Y-8908000D02*
X15623500Y-8938000D01*
X15623500Y-8908000D02*
X15593500Y-8938000D01*
X15692500Y-6235000D02*
X15722500Y-6265000D01*
X15722500Y-6235000D02*
X15692500Y-6265000D01*
X15692500Y-6860000D02*
X15722500Y-6890000D01*
X15722500Y-6860000D02*
X15692500Y-6890000D01*
X15767500Y-4610000D02*
X15797500Y-4640000D01*
X15797500Y-4610000D02*
X15767500Y-4640000D01*
X15767500Y-11510000D02*
X15797500Y-11540000D01*
X15797500Y-11510000D02*
X15767500Y-11540000D01*
X15817500Y-7835000D02*
X15847500Y-7865000D01*
X15847500Y-7835000D02*
X15817500Y-7865000D01*
X15892500Y-8785000D02*
X15922500Y-8815000D01*
X15922500Y-8785000D02*
X15892500Y-8815000D01*
X15992500Y-7210000D02*
X16022500Y-7240000D01*
X16022500Y-7210000D02*
X15992500Y-7240000D01*
X16067500Y-4610000D02*
X16097500Y-4640000D01*
X16097500Y-4610000D02*
X16067500Y-4640000D01*
X16067500Y-11510000D02*
X16097500Y-11540000D01*
X16097500Y-11510000D02*
X16067500Y-11540000D01*
X16086500Y-5132000D02*
X16116500Y-5162000D01*
X16116500Y-5132000D02*
X16086500Y-5162000D01*
X16092500Y-6560000D02*
X16122500Y-6590000D01*
X16122500Y-6560000D02*
X16092500Y-6590000D01*
X16127500Y-5947000D02*
X16157500Y-5977000D01*
X16157500Y-5947000D02*
X16127500Y-5977000D01*
X16182420Y-8186040D02*
X16212420Y-8216040D01*
X16212420Y-8186040D02*
X16182420Y-8216040D01*
X16192500Y-10085000D02*
X16222500Y-10115000D01*
X16222500Y-10085000D02*
X16192500Y-10115000D01*
X16282420Y-8086040D02*
X16312420Y-8116040D01*
X16312420Y-8086040D02*
X16282420Y-8116040D01*
X16312500Y-8505000D02*
X16342500Y-8535000D01*
X16342500Y-8505000D02*
X16312500Y-8535000D01*
X16367500Y-4610000D02*
X16397500Y-4640000D01*
X16397500Y-4610000D02*
X16367500Y-4640000D01*
X16367500Y-11510000D02*
X16397500Y-11540000D01*
X16397500Y-11510000D02*
X16367500Y-11540000D01*
X16417500Y-8835000D02*
X16447500Y-8865000D01*
X16447500Y-8835000D02*
X16417500Y-8865000D01*
X16492500Y-9285000D02*
X16522500Y-9315000D01*
X16522500Y-9285000D02*
X16492500Y-9315000D01*
X16492500Y-9735000D02*
X16522500Y-9765000D01*
X16522500Y-9735000D02*
X16492500Y-9765000D01*
X16492500Y-10135000D02*
X16522500Y-10165000D01*
X16522500Y-10135000D02*
X16492500Y-10165000D01*
X16492500Y-10910000D02*
X16522500Y-10940000D01*
X16522500Y-10910000D02*
X16492500Y-10940000D01*
X16492500Y-11235000D02*
X16522500Y-11265000D01*
X16522500Y-11235000D02*
X16492500Y-11265000D01*
X16592500Y-8635000D02*
X16622500Y-8665000D01*
X16622500Y-8635000D02*
X16592500Y-8665000D01*
X16667500Y-4610000D02*
X16697500Y-4640000D01*
X16697500Y-4610000D02*
X16667500Y-4640000D01*
X16667500Y-11510000D02*
X16697500Y-11540000D01*
X16697500Y-11510000D02*
X16667500Y-11540000D01*
X16717500Y-8910000D02*
X16747500Y-8940000D01*
X16747500Y-8910000D02*
X16717500Y-8940000D01*
X16819956Y-8302498D02*
X16849956Y-8332498D01*
X16849956Y-8302498D02*
X16819956Y-8332498D01*
X16967500Y-4610000D02*
X16997500Y-4640000D01*
X16997500Y-4610000D02*
X16967500Y-4640000D01*
X16967500Y-8335000D02*
X16997500Y-8365000D01*
X16997500Y-8335000D02*
X16967500Y-8365000D01*
X16967500Y-11510000D02*
X16997500Y-11540000D01*
X16997500Y-11510000D02*
X16967500Y-11540000D01*
X16972500Y-8910000D02*
X17002500Y-8940000D01*
X17002500Y-8910000D02*
X16972500Y-8940000D01*
X16982500Y-7574000D02*
X17012500Y-7604000D01*
X17012500Y-7574000D02*
X16982500Y-7604000D01*
X17009998Y-8225000D02*
X17039998Y-8255000D01*
X17039998Y-8225000D02*
X17009998Y-8255000D01*
X17016500Y-8062000D02*
X17046500Y-8092000D01*
X17046500Y-8062000D02*
X17016500Y-8092000D01*
X17199500Y-4920000D02*
X17229500Y-4950000D01*
X17229500Y-4920000D02*
X17199500Y-4950000D01*
X17207500Y-6882000D02*
X17237500Y-6912000D01*
X17237500Y-6882000D02*
X17207500Y-6912000D01*
X17217500Y-8335000D02*
X17247500Y-8365000D01*
X17247500Y-8335000D02*
X17217500Y-8365000D01*
X17242500Y-8010000D02*
X17272500Y-8040000D01*
X17272500Y-8010000D02*
X17242500Y-8040000D01*
X17242500Y-8935000D02*
X17272500Y-8965000D01*
X17272500Y-8935000D02*
X17242500Y-8965000D01*
X17267500Y-4610000D02*
X17297500Y-4640000D01*
X17297500Y-4610000D02*
X17267500Y-4640000D01*
X17267500Y-11510000D02*
X17297500Y-11540000D01*
X17297500Y-11510000D02*
X17267500Y-11540000D01*
X17390500Y-7652000D02*
X17420500Y-7682000D01*
X17420500Y-7652000D02*
X17390500Y-7682000D01*
X17455500Y-6882000D02*
X17485500Y-6912000D01*
X17485500Y-6882000D02*
X17455500Y-6912000D01*
X17458500Y-4918000D02*
X17488500Y-4948000D01*
X17488500Y-4918000D02*
X17458500Y-4948000D01*
X17529500Y-8084000D02*
X17559500Y-8114000D01*
X17559500Y-8084000D02*
X17529500Y-8114000D01*
X17567500Y-4610000D02*
X17597500Y-4640000D01*
X17597500Y-4610000D02*
X17567500Y-4640000D01*
X17567500Y-8685000D02*
X17597500Y-8715000D01*
X17597500Y-8685000D02*
X17567500Y-8715000D01*
X17567500Y-8835000D02*
X17597500Y-8865000D01*
X17597500Y-8835000D02*
X17567500Y-8865000D01*
X17567500Y-8985000D02*
X17597500Y-9015000D01*
X17597500Y-8985000D02*
X17567500Y-9015000D01*
X17567500Y-9135000D02*
X17597500Y-9165000D01*
X17597500Y-9135000D02*
X17567500Y-9165000D01*
X17567500Y-9285000D02*
X17597500Y-9315000D01*
X17597500Y-9285000D02*
X17567500Y-9315000D01*
X17567500Y-9435000D02*
X17597500Y-9465000D01*
X17597500Y-9435000D02*
X17567500Y-9465000D01*
X17567500Y-9585000D02*
X17597500Y-9615000D01*
X17597500Y-9585000D02*
X17567500Y-9615000D01*
X17567500Y-9735000D02*
X17597500Y-9765000D01*
X17597500Y-9735000D02*
X17567500Y-9765000D01*
X17567500Y-9885000D02*
X17597500Y-9915000D01*
X17597500Y-9885000D02*
X17567500Y-9915000D01*
X17567500Y-10035000D02*
X17597500Y-10065000D01*
X17597500Y-10035000D02*
X17567500Y-10065000D01*
X17567500Y-10185000D02*
X17597500Y-10215000D01*
X17597500Y-10185000D02*
X17567500Y-10215000D01*
X17567500Y-10335000D02*
X17597500Y-10365000D01*
X17597500Y-10335000D02*
X17567500Y-10365000D01*
X17567500Y-10485000D02*
X17597500Y-10515000D01*
X17597500Y-10485000D02*
X17567500Y-10515000D01*
X17567500Y-10635000D02*
X17597500Y-10665000D01*
X17597500Y-10635000D02*
X17567500Y-10665000D01*
X17567500Y-10785000D02*
X17597500Y-10815000D01*
X17597500Y-10785000D02*
X17567500Y-10815000D01*
X17567500Y-10935000D02*
X17597500Y-10965000D01*
X17597500Y-10935000D02*
X17567500Y-10965000D01*
X17567500Y-11085000D02*
X17597500Y-11115000D01*
X17597500Y-11085000D02*
X17567500Y-11115000D01*
X17567500Y-11235000D02*
X17597500Y-11265000D01*
X17597500Y-11235000D02*
X17567500Y-11265000D01*
X17567500Y-11385000D02*
X17597500Y-11415000D01*
X17597500Y-11385000D02*
X17567500Y-11415000D01*
X17567500Y-11510000D02*
X17597500Y-11540000D01*
X17597500Y-11510000D02*
X17567500Y-11540000D01*
X17617500Y-8560000D02*
X17647500Y-8590000D01*
X17647500Y-8560000D02*
X17617500Y-8590000D01*
X17712500Y-4917000D02*
X17742500Y-4947000D01*
X17742500Y-4917000D02*
X17712500Y-4947000D01*
X17742500Y-8510000D02*
X17772500Y-8540000D01*
X17772500Y-8510000D02*
X17742500Y-8540000D01*
X17817500Y-9580000D02*
X17847500Y-9610000D01*
X17847500Y-9580000D02*
X17817500Y-9610000D01*
X17817500Y-9730000D02*
X17847500Y-9760000D01*
X17847500Y-9730000D02*
X17817500Y-9760000D01*
X17817500Y-9880000D02*
X17847500Y-9910000D01*
X17847500Y-9880000D02*
X17817500Y-9910000D01*
X17817500Y-10030000D02*
X17847500Y-10060000D01*
X17847500Y-10030000D02*
X17817500Y-10060000D01*
X17817500Y-10180000D02*
X17847500Y-10210000D01*
X17847500Y-10180000D02*
X17817500Y-10210000D01*
X17817500Y-10335000D02*
X17847500Y-10365000D01*
X17847500Y-10335000D02*
X17817500Y-10365000D01*
X17817500Y-10485000D02*
X17847500Y-10515000D01*
X17847500Y-10485000D02*
X17817500Y-10515000D01*
X17817500Y-10635000D02*
X17847500Y-10665000D01*
X17847500Y-10635000D02*
X17817500Y-10665000D01*
X17817500Y-10785000D02*
X17847500Y-10815000D01*
X17847500Y-10785000D02*
X17817500Y-10815000D01*
X17817500Y-10935000D02*
X17847500Y-10965000D01*
X17847500Y-10935000D02*
X17817500Y-10965000D01*
X17817500Y-11085000D02*
X17847500Y-11115000D01*
X17847500Y-11085000D02*
X17817500Y-11115000D01*
X17817500Y-11235000D02*
X17847500Y-11265000D01*
X17847500Y-11235000D02*
X17817500Y-11265000D01*
X17817500Y-11385000D02*
X17847500Y-11415000D01*
X17847500Y-11385000D02*
X17817500Y-11415000D01*
X17817500Y-11510000D02*
X17847500Y-11540000D01*
X17847500Y-11510000D02*
X17817500Y-11540000D01*
X17842500Y-9430000D02*
X17872500Y-9460000D01*
X17872500Y-9430000D02*
X17842500Y-9460000D01*
X17867500Y-4610000D02*
X17897500Y-4640000D01*
X17897500Y-4610000D02*
X17867500Y-4640000D01*
X17892500Y-8510000D02*
X17922500Y-8540000D01*
X17922500Y-8510000D02*
X17892500Y-8540000D01*
X17942500Y-9335000D02*
X17972500Y-9365000D01*
X17972500Y-9335000D02*
X17942500Y-9365000D01*
X17967500Y-11510000D02*
X17997500Y-11540000D01*
X17997500Y-11510000D02*
X17967500Y-11540000D01*
X17972500Y-4920000D02*
X18002500Y-4950000D01*
X18002500Y-4920000D02*
X17972500Y-4950000D01*
X17998500Y-6885000D02*
X18028500Y-6915000D01*
X18028500Y-6885000D02*
X17998500Y-6915000D01*
X18042500Y-8510000D02*
X18072500Y-8540000D01*
X18072500Y-8510000D02*
X18042500Y-8540000D01*
X18092500Y-9310000D02*
X18122500Y-9340000D01*
X18122500Y-9310000D02*
X18092500Y-9340000D01*
X18117500Y-11510000D02*
X18147500Y-11540000D01*
X18147500Y-11510000D02*
X18117500Y-11540000D01*
X18167500Y-4610000D02*
X18197500Y-4640000D01*
X18197500Y-4610000D02*
X18167500Y-4640000D01*
X18187500Y-7970000D02*
X18217500Y-8000000D01*
X18217500Y-7970000D02*
X18187500Y-8000000D01*
X18187500Y-9870000D02*
X18217500Y-9900000D01*
X18217500Y-9870000D02*
X18187500Y-9900000D01*
X18230500Y-4917000D02*
X18260500Y-4947000D01*
X18260500Y-4917000D02*
X18230500Y-4947000D01*
X18267500Y-11510000D02*
X18297500Y-11540000D01*
X18297500Y-11510000D02*
X18267500Y-11540000D01*
X18304500Y-10329000D02*
X18334500Y-10359000D01*
X18334500Y-10329000D02*
X18304500Y-10359000D01*
X18347500Y-7970000D02*
X18377500Y-8000000D01*
X18377500Y-7970000D02*
X18347500Y-8000000D01*
X18417500Y-11510000D02*
X18447500Y-11540000D01*
X18447500Y-11510000D02*
X18417500Y-11540000D01*
X18467500Y-4610000D02*
X18497500Y-4640000D01*
X18497500Y-4610000D02*
X18467500Y-4640000D01*
X18474500Y-6891000D02*
X18504500Y-6921000D01*
X18504500Y-6891000D02*
X18474500Y-6921000D01*
X18479500Y-4920000D02*
X18509500Y-4950000D01*
X18509500Y-4920000D02*
X18479500Y-4950000D01*
X18567500Y-11510000D02*
X18597500Y-11540000D01*
X18597500Y-11510000D02*
X18567500Y-11540000D01*
X18598500Y-9673000D02*
X18628500Y-9703000D01*
X18628500Y-9673000D02*
X18598500Y-9703000D01*
X18717500Y-11510000D02*
X18747500Y-11540000D01*
X18747500Y-11510000D02*
X18717500Y-11540000D01*
X18728500Y-6896000D02*
X18758500Y-6926000D01*
X18758500Y-6896000D02*
X18728500Y-6926000D01*
X18732500Y-4920000D02*
X18762500Y-4950000D01*
X18762500Y-4920000D02*
X18732500Y-4950000D01*
X18747000Y-9785000D02*
X18777000Y-9815000D01*
X18777000Y-9785000D02*
X18747000Y-9815000D01*
X18767500Y-4610000D02*
X18797500Y-4640000D01*
X18797500Y-4610000D02*
X18767500Y-4640000D01*
X18826500Y-10201000D02*
X18856500Y-10231000D01*
X18856500Y-10201000D02*
X18826500Y-10231000D01*
X18842500Y-9714000D02*
X18872500Y-9744000D01*
X18872500Y-9714000D02*
X18842500Y-9744000D01*
X18867500Y-11510000D02*
X18897500Y-11540000D01*
X18897500Y-11510000D02*
X18867500Y-11540000D01*
X18906500Y-9625000D02*
X18936500Y-9655000D01*
X18936500Y-9625000D02*
X18906500Y-9655000D01*
X18985500Y-8016000D02*
X19015500Y-8046000D01*
X19015500Y-8016000D02*
X18985500Y-8046000D01*
X18989500Y-4924000D02*
X19019500Y-4954000D01*
X19019500Y-4924000D02*
X18989500Y-4954000D01*
X18990500Y-6885000D02*
X19020500Y-6915000D01*
X19020500Y-6885000D02*
X18990500Y-6915000D01*
X19017500Y-11510000D02*
X19047500Y-11540000D01*
X19047500Y-11510000D02*
X19017500Y-11540000D01*
X19067500Y-4610000D02*
X19097500Y-4640000D01*
X19097500Y-4610000D02*
X19067500Y-4640000D01*
X19146500Y-8015000D02*
X19176500Y-8045000D01*
X19176500Y-8015000D02*
X19146500Y-8045000D01*
X19167500Y-11510000D02*
X19197500Y-11540000D01*
X19197500Y-11510000D02*
X19167500Y-11540000D01*
X19217500Y-9310000D02*
X19247500Y-9340000D01*
X19247500Y-9310000D02*
X19217500Y-9340000D01*
X19228500Y-4925000D02*
X19258500Y-4955000D01*
X19258500Y-4925000D02*
X19228500Y-4955000D01*
X19235500Y-6899000D02*
X19265500Y-6929000D01*
X19265500Y-6899000D02*
X19235500Y-6929000D01*
X19242500Y-8510000D02*
X19272500Y-8540000D01*
X19272500Y-8510000D02*
X19242500Y-8540000D01*
X19289999Y-10485000D02*
X19319999Y-10515000D01*
X19319999Y-10485000D02*
X19289999Y-10515000D01*
X19292500Y-10385000D02*
X19322500Y-10415000D01*
X19322500Y-10385000D02*
X19292500Y-10415000D01*
X19317500Y-11510000D02*
X19347500Y-11540000D01*
X19347500Y-11510000D02*
X19317500Y-11540000D01*
X19342500Y-9310000D02*
X19372500Y-9340000D01*
X19372500Y-9310000D02*
X19342500Y-9340000D01*
X19367500Y-4610000D02*
X19397500Y-4640000D01*
X19397500Y-4610000D02*
X19367500Y-4640000D01*
X19467500Y-8510000D02*
X19497500Y-8540000D01*
X19497500Y-8510000D02*
X19467500Y-8540000D01*
X19467500Y-11510000D02*
X19497500Y-11540000D01*
X19497500Y-11510000D02*
X19467500Y-11540000D01*
X19486500Y-6891000D02*
X19516500Y-6921000D01*
X19516500Y-6891000D02*
X19486500Y-6921000D01*
X19492500Y-9310000D02*
X19522500Y-9340000D01*
X19522500Y-9310000D02*
X19492500Y-9340000D01*
X19500500Y-10135000D02*
X19530500Y-10165000D01*
X19530500Y-10135000D02*
X19500500Y-10165000D01*
X19617500Y-9585000D02*
X19647500Y-9615000D01*
X19647500Y-9585000D02*
X19617500Y-9615000D01*
X19617500Y-11510000D02*
X19647500Y-11540000D01*
X19647500Y-11510000D02*
X19617500Y-11540000D01*
X19642500Y-9310000D02*
X19672500Y-9340000D01*
X19672500Y-9310000D02*
X19642500Y-9340000D01*
X19667500Y-4610000D02*
X19697500Y-4640000D01*
X19697500Y-4610000D02*
X19667500Y-4640000D01*
X19667500Y-8510000D02*
X19697500Y-8540000D01*
X19697500Y-8510000D02*
X19667500Y-8540000D01*
X19742500Y-6885000D02*
X19772500Y-6915000D01*
X19772500Y-6885000D02*
X19742500Y-6915000D01*
X19745500Y-4944000D02*
X19775500Y-4974000D01*
X19775500Y-4944000D02*
X19745500Y-4974000D01*
X19767500Y-11510000D02*
X19797500Y-11540000D01*
X19797500Y-11510000D02*
X19767500Y-11540000D01*
X19792500Y-9310000D02*
X19822500Y-9340000D01*
X19822500Y-9310000D02*
X19792500Y-9340000D01*
X19892500Y-8510000D02*
X19922500Y-8540000D01*
X19922500Y-8510000D02*
X19892500Y-8540000D01*
X19917500Y-11510000D02*
X19947500Y-11540000D01*
X19947500Y-11510000D02*
X19917500Y-11540000D01*
X19942500Y-9310000D02*
X19972500Y-9340000D01*
X19972500Y-9310000D02*
X19942500Y-9340000D01*
X19967500Y-4610000D02*
X19997500Y-4640000D01*
X19997500Y-4610000D02*
X19967500Y-4640000D01*
X19998500Y-4951000D02*
X20028500Y-4981000D01*
X20028500Y-4951000D02*
X19998500Y-4981000D01*
X20067500Y-8510000D02*
X20097500Y-8540000D01*
X20097500Y-8510000D02*
X20067500Y-8540000D01*
X20067500Y-11510000D02*
X20097500Y-11540000D01*
X20097500Y-11510000D02*
X20067500Y-11540000D01*
X20092500Y-9310000D02*
X20122500Y-9340000D01*
X20122500Y-9310000D02*
X20092500Y-9340000D01*
X20196500Y-8048000D02*
X20226500Y-8078000D01*
X20226500Y-8048000D02*
X20196500Y-8078000D01*
X20217500Y-11510000D02*
X20247500Y-11540000D01*
X20247500Y-11510000D02*
X20217500Y-11540000D01*
X20242500Y-8510000D02*
X20272500Y-8540000D01*
X20272500Y-8510000D02*
X20242500Y-8540000D01*
X20242500Y-9310000D02*
X20272500Y-9340000D01*
X20272500Y-9310000D02*
X20242500Y-9340000D01*
X20249500Y-6868000D02*
X20279500Y-6898000D01*
X20279500Y-6868000D02*
X20249500Y-6898000D01*
X20254500Y-4953000D02*
X20284500Y-4983000D01*
X20284500Y-4953000D02*
X20254500Y-4983000D01*
X20267500Y-4610000D02*
X20297500Y-4640000D01*
X20297500Y-4610000D02*
X20267500Y-4640000D01*
X20317500Y-10135000D02*
X20347500Y-10165000D01*
X20347500Y-10135000D02*
X20317500Y-10165000D01*
X20317500Y-10335000D02*
X20347500Y-10365000D01*
X20347500Y-10335000D02*
X20317500Y-10365000D01*
X20321500Y-10762000D02*
X20351500Y-10792000D01*
X20351500Y-10762000D02*
X20321500Y-10792000D01*
X20367500Y-11510000D02*
X20397500Y-11540000D01*
X20397500Y-11510000D02*
X20367500Y-11540000D01*
X20417500Y-8510000D02*
X20447500Y-8540000D01*
X20447500Y-8510000D02*
X20417500Y-8540000D01*
X20417500Y-9310000D02*
X20447500Y-9340000D01*
X20447500Y-9310000D02*
X20417500Y-9340000D01*
X20492500Y-10135000D02*
X20522500Y-10165000D01*
X20522500Y-10135000D02*
X20492500Y-10165000D01*
X20492500Y-10335000D02*
X20522500Y-10365000D01*
X20522500Y-10335000D02*
X20492500Y-10365000D01*
X20507500Y-4949000D02*
X20537500Y-4979000D01*
X20537500Y-4949000D02*
X20507500Y-4979000D01*
X20517500Y-11510000D02*
X20547500Y-11540000D01*
X20547500Y-11510000D02*
X20517500Y-11540000D01*
X20567500Y-4610000D02*
X20597500Y-4640000D01*
X20597500Y-4610000D02*
X20567500Y-4640000D01*
X20567500Y-9410000D02*
X20597500Y-9440000D01*
X20597500Y-9410000D02*
X20567500Y-9440000D01*
X20592500Y-8410000D02*
X20622500Y-8440000D01*
X20622500Y-8410000D02*
X20592500Y-8440000D01*
X20642500Y-10135000D02*
X20672500Y-10165000D01*
X20672500Y-10135000D02*
X20642500Y-10165000D01*
X20642500Y-10335000D02*
X20672500Y-10365000D01*
X20672500Y-10335000D02*
X20642500Y-10365000D01*
X20667500Y-11510000D02*
X20697500Y-11540000D01*
X20697500Y-11510000D02*
X20667500Y-11540000D01*
X20692500Y-9610000D02*
X20722500Y-9640000D01*
X20722500Y-9610000D02*
X20692500Y-9640000D01*
X20754500Y-6899000D02*
X20784500Y-6929000D01*
X20784500Y-6899000D02*
X20754500Y-6929000D01*
X20764500Y-4949000D02*
X20794500Y-4979000D01*
X20794500Y-4949000D02*
X20764500Y-4979000D01*
X20792500Y-10135000D02*
X20822500Y-10165000D01*
X20822500Y-10135000D02*
X20792500Y-10165000D01*
X20792500Y-10335000D02*
X20822500Y-10365000D01*
X20822500Y-10335000D02*
X20792500Y-10365000D01*
X20817500Y-8210000D02*
X20847500Y-8240000D01*
X20847500Y-8210000D02*
X20817500Y-8240000D01*
X20817500Y-9610000D02*
X20847500Y-9640000D01*
X20847500Y-9610000D02*
X20817500Y-9640000D01*
X20817500Y-11510000D02*
X20847500Y-11540000D01*
X20847500Y-11510000D02*
X20817500Y-11540000D01*
X20867500Y-4610000D02*
X20897500Y-4640000D01*
X20897500Y-4610000D02*
X20867500Y-4640000D01*
X20967500Y-9610000D02*
X20997500Y-9640000D01*
X20997500Y-9610000D02*
X20967500Y-9640000D01*
X20967500Y-10135000D02*
X20997500Y-10165000D01*
X20997500Y-10135000D02*
X20967500Y-10165000D01*
X20967500Y-10335000D02*
X20997500Y-10365000D01*
X20997500Y-10335000D02*
X20967500Y-10365000D01*
X20967500Y-11510000D02*
X20997500Y-11540000D01*
X20997500Y-11510000D02*
X20967500Y-11540000D01*
X21010500Y-4949000D02*
X21040500Y-4979000D01*
X21040500Y-4949000D02*
X21010500Y-4979000D01*
X21117500Y-8210000D02*
X21147500Y-8240000D01*
X21147500Y-8210000D02*
X21117500Y-8240000D01*
X21117500Y-9610000D02*
X21147500Y-9640000D01*
X21147500Y-9610000D02*
X21117500Y-9640000D01*
X21117500Y-11510000D02*
X21147500Y-11540000D01*
X21147500Y-11510000D02*
X21117500Y-11540000D01*
X21167500Y-4610000D02*
X21197500Y-4640000D01*
X21197500Y-4610000D02*
X21167500Y-4640000D01*
X21266500Y-6891000D02*
X21296500Y-6921000D01*
X21296500Y-6891000D02*
X21266500Y-6921000D01*
X21267500Y-4948000D02*
X21297500Y-4978000D01*
X21297500Y-4948000D02*
X21267500Y-4978000D01*
X21267500Y-9610000D02*
X21297500Y-9640000D01*
X21297500Y-9610000D02*
X21267500Y-9640000D01*
X21267500Y-11510000D02*
X21297500Y-11540000D01*
X21297500Y-11510000D02*
X21267500Y-11540000D01*
X21417500Y-8210000D02*
X21447500Y-8240000D01*
X21447500Y-8210000D02*
X21417500Y-8240000D01*
X21417500Y-9610000D02*
X21447500Y-9640000D01*
X21447500Y-9610000D02*
X21417500Y-9640000D01*
X21417500Y-11510000D02*
X21447500Y-11540000D01*
X21447500Y-11510000D02*
X21417500Y-11540000D01*
X21467500Y-4610000D02*
X21497500Y-4640000D01*
X21497500Y-4610000D02*
X21467500Y-4640000D01*
X21567500Y-9610000D02*
X21597500Y-9640000D01*
X21597500Y-9610000D02*
X21567500Y-9640000D01*
X21567500Y-11510000D02*
X21597500Y-11540000D01*
X21597500Y-11510000D02*
X21567500Y-11540000D01*
X21717500Y-8210000D02*
X21747500Y-8240000D01*
X21747500Y-8210000D02*
X21717500Y-8240000D01*
X21717500Y-9610000D02*
X21747500Y-9640000D01*
X21747500Y-9610000D02*
X21717500Y-9640000D01*
X21767500Y-4610000D02*
X21797500Y-4640000D01*
X21797500Y-4610000D02*
X21767500Y-4640000D01*
X21776500Y-6882000D02*
X21806500Y-6912000D01*
X21806500Y-6882000D02*
X21776500Y-6912000D01*
X21778500Y-4951000D02*
X21808500Y-4981000D01*
X21808500Y-4951000D02*
X21778500Y-4981000D01*
X21792500Y-11510000D02*
X21822500Y-11540000D01*
X21822500Y-11510000D02*
X21792500Y-11540000D01*
X21867500Y-9610000D02*
X21897500Y-9640000D01*
X21897500Y-9610000D02*
X21867500Y-9640000D01*
X21942500Y-11460000D02*
X21972500Y-11490000D01*
X21972500Y-11460000D02*
X21942500Y-11490000D01*
X21967500Y-9685000D02*
X21997500Y-9715000D01*
X21997500Y-9685000D02*
X21967500Y-9715000D01*
X22017500Y-4710000D02*
X22047500Y-4740000D01*
X22047500Y-4710000D02*
X22017500Y-4740000D01*
X22017500Y-5610000D02*
X22047500Y-5640000D01*
X22047500Y-5610000D02*
X22017500Y-5640000D01*
X22017500Y-6210000D02*
X22047500Y-6240000D01*
X22047500Y-6210000D02*
X22017500Y-6240000D01*
X22017500Y-6510000D02*
X22047500Y-6540000D01*
X22047500Y-6510000D02*
X22017500Y-6540000D01*
X22017500Y-6810000D02*
X22047500Y-6840000D01*
X22047500Y-6810000D02*
X22017500Y-6840000D01*
X22017500Y-7410000D02*
X22047500Y-7440000D01*
X22047500Y-7410000D02*
X22017500Y-7440000D01*
X22017500Y-7710000D02*
X22047500Y-7740000D01*
X22047500Y-7710000D02*
X22017500Y-7740000D01*
X22017500Y-7935000D02*
X22047500Y-7965000D01*
X22047500Y-7935000D02*
X22017500Y-7965000D01*
X22017500Y-8210000D02*
X22047500Y-8240000D01*
X22047500Y-8210000D02*
X22017500Y-8240000D01*
X22017500Y-11335000D02*
X22047500Y-11365000D01*
X22047500Y-11335000D02*
X22017500Y-11365000D01*
X22022500Y-9860000D02*
X22052500Y-9890000D01*
X22052500Y-9860000D02*
X22022500Y-9890000D01*
X22022500Y-9985000D02*
X22052500Y-10015000D01*
X22052500Y-9985000D02*
X22022500Y-10015000D01*
X22022500Y-10135000D02*
X22052500Y-10165000D01*
X22052500Y-10135000D02*
X22022500Y-10165000D01*
X22022500Y-10285000D02*
X22052500Y-10315000D01*
X22052500Y-10285000D02*
X22022500Y-10315000D01*
X22022500Y-10435000D02*
X22052500Y-10465000D01*
X22052500Y-10435000D02*
X22022500Y-10465000D01*
X22022500Y-10585000D02*
X22052500Y-10615000D01*
X22052500Y-10585000D02*
X22022500Y-10615000D01*
X22022500Y-10735000D02*
X22052500Y-10765000D01*
X22052500Y-10735000D02*
X22022500Y-10765000D01*
X22022500Y-10885000D02*
X22052500Y-10915000D01*
X22052500Y-10885000D02*
X22022500Y-10915000D01*
X22022500Y-11035000D02*
X22052500Y-11065000D01*
X22052500Y-11035000D02*
X22022500Y-11065000D01*
X22022500Y-11185000D02*
X22052500Y-11215000D01*
X22052500Y-11185000D02*
X22022500Y-11215000D01*
X14011500Y-9188000D02*
G75*
G03*
X14011500Y-9188000I-20000J0D01*
G01*
X14014500Y-9564000D02*
G75*
G03*
X14014500Y-9564000I-20000J0D01*
G01*
X14134500Y-6857000D02*
G75*
G03*
X14134500Y-6857000I-20000J0D01*
G01*
X14137500Y-9980000D02*
G75*
G03*
X14137500Y-9980000I-20000J0D01*
G01*
X14254500Y-6747000D02*
G75*
G03*
X14254500Y-6747000I-20000J0D01*
G01*
X14266500Y-9389000D02*
G75*
G03*
X14266500Y-9389000I-20000J0D01*
G01*
X14553500Y-9383000D02*
G75*
G03*
X14553500Y-9383000I-20000J0D01*
G01*
X14813500Y-9208000D02*
G75*
G03*
X14813500Y-9208000I-20000J0D01*
G01*
X14815500Y-9560000D02*
G75*
G03*
X14815500Y-9560000I-20000J0D01*
G01*
X14827500Y-10475000D02*
G75*
G03*
X14827500Y-10475000I-20000J0D01*
G01*
X14827500Y-10650000D02*
G75*
G03*
X14827500Y-10650000I-20000J0D01*
G01*
X14867500Y-10180000D02*
G75*
G03*
X14867500Y-10180000I-20000J0D01*
G01*
X14877500Y-10050000D02*
G75*
G03*
X14877500Y-10050000I-20000J0D01*
G01*
X14877500Y-10300000D02*
G75*
G03*
X14877500Y-10300000I-20000J0D01*
G01*
X14967500Y-10300000D02*
G75*
G03*
X14967500Y-10300000I-20000J0D01*
G01*
X14977500Y-10775000D02*
G75*
G03*
X14977500Y-10775000I-20000J0D01*
G01*
X14987500Y-10040000D02*
G75*
G03*
X14987500Y-10040000I-20000J0D01*
G01*
X15127500Y-10475000D02*
G75*
G03*
X15127500Y-10475000I-20000J0D01*
G01*
X15127500Y-10650000D02*
G75*
G03*
X15127500Y-10650000I-20000J0D01*
G01*
X15287500Y-10040000D02*
G75*
G03*
X15287500Y-10040000I-20000J0D01*
G01*
X15287500Y-10300000D02*
G75*
G03*
X15287500Y-10300000I-20000J0D01*
G01*
X15327500Y-10450000D02*
G75*
G03*
X15327500Y-10450000I-20000J0D01*
G01*
X15327500Y-10600000D02*
G75*
G03*
X15327500Y-10600000I-20000J0D01*
G01*
X15377500Y-10075000D02*
G75*
G03*
X15377500Y-10075000I-20000J0D01*
G01*
X15377500Y-10300000D02*
G75*
G03*
X15377500Y-10300000I-20000J0D01*
G01*
X15399500Y-9302000D02*
G75*
G03*
X15399500Y-9302000I-20000J0D01*
G01*
X15407500Y-10180000D02*
G75*
G03*
X15407500Y-10180000I-20000J0D01*
G01*
X15477500Y-10775000D02*
G75*
G03*
X15477500Y-10775000I-20000J0D01*
G01*
X15627500Y-10450000D02*
G75*
G03*
X15627500Y-10450000I-20000J0D01*
G01*
X15627500Y-10600000D02*
G75*
G03*
X15627500Y-10600000I-20000J0D01*
G01*
X15894500Y-8980000D02*
G75*
G03*
X15894500Y-8980000I-20000J0D01*
G01*
X15952500Y-10147000D02*
G75*
G03*
X15952500Y-10147000I-20000J0D01*
G01*
X16187500Y-10520000D02*
G75*
G03*
X16187500Y-10520000I-20000J0D01*
G01*
X16187500Y-10725000D02*
G75*
G03*
X16187500Y-10725000I-20000J0D01*
G01*
X16327500Y-10750000D02*
G75*
G03*
X16327500Y-10750000I-20000J0D01*
G01*
X16364500Y-9000000D02*
G75*
G03*
X16364500Y-9000000I-20000J0D01*
G01*
X16477500Y-10525000D02*
G75*
G03*
X16477500Y-10525000I-20000J0D01*
G01*
X16477500Y-10725000D02*
G75*
G03*
X16477500Y-10725000I-20000J0D01*
G01*
X16767500Y-10010000D02*
G75*
G03*
X16767500Y-10010000I-20000J0D01*
G01*
X16807500Y-9350000D02*
G75*
G03*
X16807500Y-9350000I-20000J0D01*
G01*
X16877500Y-9775000D02*
G75*
G03*
X16877500Y-9775000I-20000J0D01*
G01*
X16902500Y-9350000D02*
G75*
G03*
X16902500Y-9350000I-20000J0D01*
G01*
X16937500Y-7494000D02*
G75*
G03*
X16937500Y-7494000I-20000J0D01*
G01*
X17185500Y-7502000D02*
G75*
G03*
X17185500Y-7502000I-20000J0D01*
G01*
X17187500Y-10420000D02*
G75*
G03*
X17187500Y-10420000I-20000J0D01*
G01*
X17187500Y-10640000D02*
G75*
G03*
X17187500Y-10640000I-20000J0D01*
G01*
X17277500Y-9350000D02*
G75*
G03*
X17277500Y-9350000I-20000J0D01*
G01*
X17327500Y-10750000D02*
G75*
G03*
X17327500Y-10750000I-20000J0D01*
G01*
X17352500Y-9775000D02*
G75*
G03*
X17352500Y-9775000I-20000J0D01*
G01*
X17367500Y-9350000D02*
G75*
G03*
X17367500Y-9350000I-20000J0D01*
G01*
X17487500Y-10420000D02*
G75*
G03*
X17487500Y-10420000I-20000J0D01*
G01*
X17487500Y-10660000D02*
G75*
G03*
X17487500Y-10660000I-20000J0D01*
G01*
X17696580Y-8093022D02*
G75*
G03*
X17696580Y-8093022I-20000J0D01*
G01*
X17822500Y-6341000D02*
G75*
G03*
X17822500Y-6341000I-20000J0D01*
G01*
X17824500Y-6854000D02*
G75*
G03*
X17824500Y-6854000I-20000J0D01*
G01*
X17912480Y-8307906D02*
G75*
G03*
X17912480Y-8307906I-20000J0D01*
G01*
X18224500Y-6854000D02*
G75*
G03*
X18224500Y-6854000I-20000J0D01*
G01*
X18226500Y-6343000D02*
G75*
G03*
X18226500Y-6343000I-20000J0D01*
G01*
X13867500Y-10875000D02*
X13867500Y-10925000D01*
X13842500Y-10900000D02*
X13892500Y-10900000D01*
X13937794Y-10705294D02*
X13937794Y-10755294D01*
X13912794Y-10730294D02*
X13962794Y-10730294D01*
X13937794Y-11044706D02*
X13937794Y-11094706D01*
X13912794Y-11069706D02*
X13962794Y-11069706D01*
X14067500Y-5225000D02*
X14067500Y-5275000D01*
X14042500Y-5250000D02*
X14092500Y-5250000D01*
X14107500Y-10635000D02*
X14107500Y-10685000D01*
X14082500Y-10660000D02*
X14132500Y-10660000D01*
X14107500Y-11115000D02*
X14107500Y-11165000D01*
X14082500Y-11140000D02*
X14132500Y-11140000D01*
X14137794Y-5055294D02*
X14137794Y-5105294D01*
X14112794Y-5080294D02*
X14162794Y-5080294D01*
X14137794Y-5394706D02*
X14137794Y-5444706D01*
X14112794Y-5419706D02*
X14162794Y-5419706D01*
X14277206Y-10705294D02*
X14277206Y-10755294D01*
X14252206Y-10730294D02*
X14302206Y-10730294D01*
X14277206Y-11044706D02*
X14277206Y-11094706D01*
X14252206Y-11069706D02*
X14302206Y-11069706D01*
X14307500Y-4985000D02*
X14307500Y-5035000D01*
X14282500Y-5010000D02*
X14332500Y-5010000D01*
X14307500Y-5465000D02*
X14307500Y-5515000D01*
X14282500Y-5490000D02*
X14332500Y-5490000D01*
X14347500Y-10875000D02*
X14347500Y-10925000D01*
X14322500Y-10900000D02*
X14372500Y-10900000D01*
X14477206Y-5055294D02*
X14477206Y-5105294D01*
X14452206Y-5080294D02*
X14502206Y-5080294D01*
X14477206Y-5394706D02*
X14477206Y-5444706D01*
X14452206Y-5419706D02*
X14502206Y-5419706D01*
X14547500Y-5225000D02*
X14547500Y-5275000D01*
X14522500Y-5250000D02*
X14572500Y-5250000D01*
X21167500Y-7909000D02*
X21167500Y-7959000D01*
X21142500Y-7934000D02*
X21192500Y-7934000D01*
X21167500Y-8009000D02*
X21167500Y-8059000D01*
X21142500Y-8034000D02*
X21192500Y-8034000D01*
X21267500Y-7909000D02*
X21267500Y-7959000D01*
X21242500Y-7934000D02*
X21292500Y-7934000D01*
X21267500Y-8009000D02*
X21267500Y-8059000D01*
X21242500Y-8034000D02*
X21292500Y-8034000D01*
X21367500Y-7909000D02*
X21367500Y-7959000D01*
X21342500Y-7934000D02*
X21392500Y-7934000D01*
X21367500Y-8009000D02*
X21367500Y-8059000D01*
X21342500Y-8034000D02*
X21392500Y-8034000D01*
X21591500Y-7909000D02*
X21591500Y-7959000D01*
X21566500Y-7934000D02*
X21616500Y-7934000D01*
X21591500Y-8009000D02*
X21591500Y-8059000D01*
X21566500Y-8034000D02*
X21616500Y-8034000D01*
X21691500Y-7909000D02*
X21691500Y-7959000D01*
X21666500Y-7934000D02*
X21716500Y-7934000D01*
X21691500Y-8009000D02*
X21691500Y-8059000D01*
X21666500Y-8034000D02*
X21716500Y-8034000D01*
X21791500Y-7909000D02*
X21791500Y-7959000D01*
X21766500Y-7934000D02*
X21816500Y-7934000D01*
X21791500Y-8009000D02*
X21791500Y-8059000D01*
X21766500Y-8034000D02*
X21816500Y-8034000D01*
X18551767Y-10854467D02*
X18551767Y-10791533D01*
X18488833Y-10791533D01*
X18488833Y-10854467D01*
X18551767Y-10854467D01*
X18653367Y-11032467D02*
X18653367Y-10969533D01*
X18590433Y-10969533D01*
X18590433Y-11032467D01*
X18653367Y-11032467D01*
X18754967Y-10854467D02*
X18754967Y-10791533D01*
X18692033Y-10791533D01*
X18692033Y-10854467D01*
X18754967Y-10854467D01*
X18856567Y-11032467D02*
X18856567Y-10969533D01*
X18793633Y-10969533D01*
X18793633Y-11032467D01*
X18856567Y-11032467D01*
X18958167Y-10854467D02*
X18958167Y-10791533D01*
X18895233Y-10791533D01*
X18895233Y-10854467D01*
X18958167Y-10854467D01*
X19059767Y-11032467D02*
X19059767Y-10969533D01*
X18996833Y-10969533D01*
X18996833Y-11032467D01*
X19059767Y-11032467D01*
X19161367Y-10854467D02*
X19161367Y-10791533D01*
X19098433Y-10791533D01*
X19098433Y-10854467D01*
X19161367Y-10854467D01*
X19262967Y-11032467D02*
X19262967Y-10969533D01*
X19200033Y-10969533D01*
X19200033Y-11032467D01*
X19262967Y-11032467D01*
X20527767Y-10854467D02*
X20527767Y-10791533D01*
X20464833Y-10791533D01*
X20464833Y-10854467D01*
X20527767Y-10854467D01*
X20629367Y-11032467D02*
X20629367Y-10969533D01*
X20566433Y-10969533D01*
X20566433Y-11032467D01*
X20629367Y-11032467D01*
X20730967Y-10854467D02*
X20730967Y-10791533D01*
X20668033Y-10791533D01*
X20668033Y-10854467D01*
X20730967Y-10854467D01*
X20832567Y-11032467D02*
X20832567Y-10969533D01*
X20769633Y-10969533D01*
X20769633Y-11032467D01*
X20832567Y-11032467D01*
X20934167Y-10854467D02*
X20934167Y-10791533D01*
X20871233Y-10791533D01*
X20871233Y-10854467D01*
X20934167Y-10854467D01*
X21035767Y-11032467D02*
X21035767Y-10969533D01*
X20972833Y-10969533D01*
X20972833Y-11032467D01*
X21035767Y-11032467D01*
X21137367Y-10854467D02*
X21137367Y-10791533D01*
X21074433Y-10791533D01*
X21074433Y-10854467D01*
X21137367Y-10854467D01*
X21238967Y-11032467D02*
X21238967Y-10969533D01*
X21176033Y-10969533D01*
X21176033Y-11032467D01*
X21238967Y-11032467D01*
X16739500Y-8590000D02*
X16789500Y-8540000D01*
X16739500Y-8490000D01*
X16689500Y-8540000D01*
X16739500Y-8590000D01*
X16739500Y-8844000D02*
X16789500Y-8794000D01*
X16739500Y-8744000D01*
X16689500Y-8794000D01*
X16739500Y-8844000D01*
X16993500Y-8590000D02*
X17043500Y-8540000D01*
X16993500Y-8490000D01*
X16943500Y-8540000D01*
X16993500Y-8590000D01*
X16993500Y-8844000D02*
X17043500Y-8794000D01*
X16993500Y-8744000D01*
X16943500Y-8794000D01*
X16993500Y-8844000D01*
X17247500Y-8590000D02*
X17297500Y-8540000D01*
X17247500Y-8490000D01*
X17197500Y-8540000D01*
X17247500Y-8590000D01*
X17247500Y-8844000D02*
X17297500Y-8794000D01*
X17247500Y-8744000D01*
X17197500Y-8794000D01*
X17247500Y-8844000D01*
X18079500Y-10020000D02*
X18129500Y-9970000D01*
X18079500Y-9920000D01*
X18029500Y-9970000D01*
X18079500Y-10020000D01*
X18082500Y-7899000D02*
X18132500Y-7849000D01*
X18082500Y-7799000D01*
X18032500Y-7849000D01*
X18082500Y-7899000D01*
X18333500Y-10020000D02*
X18383500Y-9970000D01*
X18333500Y-9920000D01*
X18283500Y-9970000D01*
X18333500Y-10020000D01*
X18336500Y-7899000D02*
X18386500Y-7849000D01*
X18336500Y-7799000D01*
X18286500Y-7849000D01*
X18336500Y-7899000D01*
X18587500Y-10020000D02*
X18637500Y-9970000D01*
X18587500Y-9920000D01*
X18537500Y-9970000D01*
X18587500Y-10020000D01*
X18590500Y-7899000D02*
X18640500Y-7849000D01*
X18590500Y-7799000D01*
X18540500Y-7849000D01*
X18590500Y-7899000D01*
X18841500Y-10020000D02*
X18891500Y-9970000D01*
X18841500Y-9920000D01*
X18791500Y-9970000D01*
X18841500Y-10020000D01*
X18844500Y-7899000D02*
X18894500Y-7849000D01*
X18844500Y-7799000D01*
X18794500Y-7849000D01*
X18844500Y-7899000D01*
X19095500Y-10020000D02*
X19145500Y-9970000D01*
X19095500Y-9920000D01*
X19045500Y-9970000D01*
X19095500Y-10020000D01*
X19098500Y-7899000D02*
X19148500Y-7849000D01*
X19098500Y-7799000D01*
X19048500Y-7849000D01*
X19098500Y-7899000D01*
X19349500Y-10020000D02*
X19399500Y-9970000D01*
X19349500Y-9920000D01*
X19299500Y-9970000D01*
X19349500Y-10020000D01*
X19352500Y-7899000D02*
X19402500Y-7849000D01*
X19352500Y-7799000D01*
X19302500Y-7849000D01*
X19352500Y-7899000D01*
X19603500Y-10020000D02*
X19653500Y-9970000D01*
X19603500Y-9920000D01*
X19553500Y-9970000D01*
X19603500Y-10020000D01*
X19606500Y-7899000D02*
X19656500Y-7849000D01*
X19606500Y-7799000D01*
X19556500Y-7849000D01*
X19606500Y-7899000D01*
X19857500Y-10020000D02*
X19907500Y-9970000D01*
X19857500Y-9920000D01*
X19807500Y-9970000D01*
X19857500Y-10020000D01*
X19860500Y-7899000D02*
X19910500Y-7849000D01*
X19860500Y-7799000D01*
X19810500Y-7849000D01*
X19860500Y-7899000D01*
X17043500Y-5219000D02*
X17145500Y-5321000D01*
X17145500Y-5219000D02*
X17043500Y-5321000D01*
X17145500Y-5270000D02*
G75*
G03*
X17145500Y-5270000I-51000J0D01*
G01*
X17043500Y-6997000D02*
X17145500Y-7099000D01*
X17145500Y-6997000D02*
X17043500Y-7099000D01*
X17145500Y-7048000D02*
G75*
G03*
X17145500Y-7048000I-51000J0D01*
G01*
X17066500Y-5854000D02*
X17168500Y-5956000D01*
X17168500Y-5854000D02*
X17066500Y-5956000D01*
X17168500Y-5905000D02*
G75*
G03*
X17168500Y-5905000I-51000J0D01*
G01*
X17066500Y-6108000D02*
X17168500Y-6210000D01*
X17168500Y-6108000D02*
X17066500Y-6210000D01*
X17168500Y-6159000D02*
G75*
G03*
X17168500Y-6159000I-51000J0D01*
G01*
X17066500Y-6362000D02*
X17168500Y-6464000D01*
X17168500Y-6362000D02*
X17066500Y-6464000D01*
X17168500Y-6413000D02*
G75*
G03*
X17168500Y-6413000I-51000J0D01*
G01*
X17297500Y-5219000D02*
X17399500Y-5321000D01*
X17399500Y-5219000D02*
X17297500Y-5321000D01*
X17399500Y-5270000D02*
G75*
G03*
X17399500Y-5270000I-51000J0D01*
G01*
X17297500Y-6997000D02*
X17399500Y-7099000D01*
X17399500Y-6997000D02*
X17297500Y-7099000D01*
X17399500Y-7048000D02*
G75*
G03*
X17399500Y-7048000I-51000J0D01*
G01*
X17551500Y-5219000D02*
X17653500Y-5321000D01*
X17653500Y-5219000D02*
X17551500Y-5321000D01*
X17653500Y-5270000D02*
G75*
G03*
X17653500Y-5270000I-51000J0D01*
G01*
X17551500Y-6997000D02*
X17653500Y-7099000D01*
X17653500Y-6997000D02*
X17551500Y-7099000D01*
X17653500Y-7048000D02*
G75*
G03*
X17653500Y-7048000I-51000J0D01*
G01*
X17805500Y-5219000D02*
X17907500Y-5321000D01*
X17907500Y-5219000D02*
X17805500Y-5321000D01*
X17907500Y-5270000D02*
G75*
G03*
X17907500Y-5270000I-51000J0D01*
G01*
X17805500Y-6997000D02*
X17907500Y-7099000D01*
X17907500Y-6997000D02*
X17805500Y-7099000D01*
X17907500Y-7048000D02*
G75*
G03*
X17907500Y-7048000I-51000J0D01*
G01*
X18059500Y-5219000D02*
X18161500Y-5321000D01*
X18161500Y-5219000D02*
X18059500Y-5321000D01*
X18161500Y-5270000D02*
G75*
G03*
X18161500Y-5270000I-51000J0D01*
G01*
X18059500Y-6997000D02*
X18161500Y-7099000D01*
X18161500Y-6997000D02*
X18059500Y-7099000D01*
X18161500Y-7048000D02*
G75*
G03*
X18161500Y-7048000I-51000J0D01*
G01*
X18313500Y-5219000D02*
X18415500Y-5321000D01*
X18415500Y-5219000D02*
X18313500Y-5321000D01*
X18415500Y-5270000D02*
G75*
G03*
X18415500Y-5270000I-51000J0D01*
G01*
X18313500Y-6997000D02*
X18415500Y-7099000D01*
X18415500Y-6997000D02*
X18313500Y-7099000D01*
X18415500Y-7048000D02*
G75*
G03*
X18415500Y-7048000I-51000J0D01*
G01*
X18567500Y-5219000D02*
X18669500Y-5321000D01*
X18669500Y-5219000D02*
X18567500Y-5321000D01*
X18669500Y-5270000D02*
G75*
G03*
X18669500Y-5270000I-51000J0D01*
G01*
X18567500Y-6997000D02*
X18669500Y-7099000D01*
X18669500Y-6997000D02*
X18567500Y-7099000D01*
X18669500Y-7048000D02*
G75*
G03*
X18669500Y-7048000I-51000J0D01*
G01*
X18821500Y-5219000D02*
X18923500Y-5321000D01*
X18923500Y-5219000D02*
X18821500Y-5321000D01*
X18923500Y-5270000D02*
G75*
G03*
X18923500Y-5270000I-51000J0D01*
G01*
X18821500Y-6997000D02*
X18923500Y-7099000D01*
X18923500Y-6997000D02*
X18821500Y-7099000D01*
X18923500Y-7048000D02*
G75*
G03*
X18923500Y-7048000I-51000J0D01*
G01*
X19075500Y-5219000D02*
X19177500Y-5321000D01*
X19177500Y-5219000D02*
X19075500Y-5321000D01*
X19177500Y-5270000D02*
G75*
G03*
X19177500Y-5270000I-51000J0D01*
G01*
X19075500Y-6997000D02*
X19177500Y-7099000D01*
X19177500Y-6997000D02*
X19075500Y-7099000D01*
X19177500Y-7048000D02*
G75*
G03*
X19177500Y-7048000I-51000J0D01*
G01*
X19329500Y-5219000D02*
X19431500Y-5321000D01*
X19431500Y-5219000D02*
X19329500Y-5321000D01*
X19431500Y-5270000D02*
G75*
G03*
X19431500Y-5270000I-51000J0D01*
G01*
X19329500Y-6997000D02*
X19431500Y-7099000D01*
X19431500Y-6997000D02*
X19329500Y-7099000D01*
X19431500Y-7048000D02*
G75*
G03*
X19431500Y-7048000I-51000J0D01*
G01*
X19583500Y-5219000D02*
X19685500Y-5321000D01*
X19685500Y-5219000D02*
X19583500Y-5321000D01*
X19685500Y-5270000D02*
G75*
G03*
X19685500Y-5270000I-51000J0D01*
G01*
X19583500Y-6997000D02*
X19685500Y-7099000D01*
X19685500Y-6997000D02*
X19583500Y-7099000D01*
X19685500Y-7048000D02*
G75*
G03*
X19685500Y-7048000I-51000J0D01*
G01*
X19837500Y-5219000D02*
X19939500Y-5321000D01*
X19939500Y-5219000D02*
X19837500Y-5321000D01*
X19939500Y-5270000D02*
G75*
G03*
X19939500Y-5270000I-51000J0D01*
G01*
X19837500Y-6997000D02*
X19939500Y-7099000D01*
X19939500Y-6997000D02*
X19837500Y-7099000D01*
X19939500Y-7048000D02*
G75*
G03*
X19939500Y-7048000I-51000J0D01*
G01*
X20091500Y-5219000D02*
X20193500Y-5321000D01*
X20193500Y-5219000D02*
X20091500Y-5321000D01*
X20193500Y-5270000D02*
G75*
G03*
X20193500Y-5270000I-51000J0D01*
G01*
X20091500Y-6997000D02*
X20193500Y-7099000D01*
X20193500Y-6997000D02*
X20091500Y-7099000D01*
X20193500Y-7048000D02*
G75*
G03*
X20193500Y-7048000I-51000J0D01*
G01*
X20345500Y-5219000D02*
X20447500Y-5321000D01*
X20447500Y-5219000D02*
X20345500Y-5321000D01*
X20447500Y-5270000D02*
G75*
G03*
X20447500Y-5270000I-51000J0D01*
G01*
X20345500Y-6997000D02*
X20447500Y-7099000D01*
X20447500Y-6997000D02*
X20345500Y-7099000D01*
X20447500Y-7048000D02*
G75*
G03*
X20447500Y-7048000I-51000J0D01*
G01*
X20599500Y-5219000D02*
X20701500Y-5321000D01*
X20701500Y-5219000D02*
X20599500Y-5321000D01*
X20701500Y-5270000D02*
G75*
G03*
X20701500Y-5270000I-51000J0D01*
G01*
X20599500Y-6997000D02*
X20701500Y-7099000D01*
X20701500Y-6997000D02*
X20599500Y-7099000D01*
X20701500Y-7048000D02*
G75*
G03*
X20701500Y-7048000I-51000J0D01*
G01*
X20853500Y-5219000D02*
X20955500Y-5321000D01*
X20955500Y-5219000D02*
X20853500Y-5321000D01*
X20955500Y-5270000D02*
G75*
G03*
X20955500Y-5270000I-51000J0D01*
G01*
X20853500Y-6997000D02*
X20955500Y-7099000D01*
X20955500Y-6997000D02*
X20853500Y-7099000D01*
X20955500Y-7048000D02*
G75*
G03*
X20955500Y-7048000I-51000J0D01*
G01*
X21107500Y-5219000D02*
X21209500Y-5321000D01*
X21209500Y-5219000D02*
X21107500Y-5321000D01*
X21209500Y-5270000D02*
G75*
G03*
X21209500Y-5270000I-51000J0D01*
G01*
X21107500Y-6997000D02*
X21209500Y-7099000D01*
X21209500Y-6997000D02*
X21107500Y-7099000D01*
X21209500Y-7048000D02*
G75*
G03*
X21209500Y-7048000I-51000J0D01*
G01*
X21361500Y-5219000D02*
X21463500Y-5321000D01*
X21463500Y-5219000D02*
X21361500Y-5321000D01*
X21463500Y-5270000D02*
G75*
G03*
X21463500Y-5270000I-51000J0D01*
G01*
X21361500Y-6997000D02*
X21463500Y-7099000D01*
X21463500Y-6997000D02*
X21361500Y-7099000D01*
X21463500Y-7048000D02*
G75*
G03*
X21463500Y-7048000I-51000J0D01*
G01*
X21615500Y-5219000D02*
X21717500Y-5321000D01*
X21717500Y-5219000D02*
X21615500Y-5321000D01*
X21717500Y-5270000D02*
G75*
G03*
X21717500Y-5270000I-51000J0D01*
G01*
X21615500Y-6997000D02*
X21717500Y-7099000D01*
X21717500Y-6997000D02*
X21615500Y-7099000D01*
X21717500Y-7048000D02*
G75*
G03*
X21717500Y-7048000I-51000J0D01*
G01*
X21869500Y-5219000D02*
X21971500Y-5321000D01*
X21971500Y-5219000D02*
X21869500Y-5321000D01*
X21971500Y-5270000D02*
G75*
G03*
X21971500Y-5270000I-51000J0D01*
G01*
X21869500Y-6997000D02*
X21971500Y-7099000D01*
X21971500Y-6997000D02*
X21869500Y-7099000D01*
X21971500Y-7048000D02*
G75*
G03*
X21971500Y-7048000I-51000J0D01*
G01*
X14887500Y-10480000D02*
X15027500Y-10620000D01*
X15027500Y-10480000D02*
X14887500Y-10620000D01*
X14957500Y-10480000D02*
X14957500Y-10620000D01*
X14887500Y-10550000D02*
X15027500Y-10550000D01*
X15395500Y-10480000D02*
X15535500Y-10620000D01*
X15535500Y-10480000D02*
X15395500Y-10620000D01*
X15465500Y-10480000D02*
X15465500Y-10620000D01*
X15395500Y-10550000D02*
X15535500Y-10550000D01*
X16237500Y-10462000D02*
X16377500Y-10602000D01*
X16377500Y-10462000D02*
X16237500Y-10602000D01*
X16307500Y-10462000D02*
X16307500Y-10602000D01*
X16237500Y-10532000D02*
X16377500Y-10532000D01*
X16745500Y-10462000D02*
X16885500Y-10602000D01*
X16885500Y-10462000D02*
X16745500Y-10602000D01*
X16815500Y-10462000D02*
X16815500Y-10602000D01*
X16745500Y-10532000D02*
X16885500Y-10532000D01*
X17253500Y-10462000D02*
X17393500Y-10602000D01*
X17393500Y-10462000D02*
X17253500Y-10602000D01*
X17323500Y-10462000D02*
X17323500Y-10602000D01*
X17253500Y-10532000D02*
X17393500Y-10532000D01*
X17984000Y-10833500D02*
X18141000Y-10990500D01*
X18141000Y-10833500D02*
X17984000Y-10990500D01*
X18118008Y-10967508D02*
X18118008Y-10856492D01*
X18006992Y-10856492D01*
X18006992Y-10967508D01*
X18118008Y-10967508D01*
X19610000Y-10833500D02*
X19767000Y-10990500D01*
X19767000Y-10833500D02*
X19610000Y-10990500D01*
X19744008Y-10967508D02*
X19744008Y-10856492D01*
X19632992Y-10856492D01*
X19632992Y-10967508D01*
X19744008Y-10967508D01*
X19960000Y-10833500D02*
X20117000Y-10990500D01*
X20117000Y-10833500D02*
X19960000Y-10990500D01*
X20094008Y-10967508D02*
X20094008Y-10856492D01*
X19982992Y-10856492D01*
X19982992Y-10967508D01*
X20094008Y-10967508D01*
X21586000Y-10833500D02*
X21743000Y-10990500D01*
X21743000Y-10833500D02*
X21586000Y-10990500D01*
X21720008Y-10967508D02*
X21720008Y-10856492D01*
X21608992Y-10856492D01*
X21608992Y-10967508D01*
X21720008Y-10967508D01*
X13947500Y-10740000D02*
X14267500Y-11060000D01*
X14267500Y-10740000D02*
X13947500Y-11060000D01*
X14107500Y-11060000D02*
X14267500Y-10900000D01*
X14107500Y-10740000D01*
X13947500Y-10900000D01*
X14107500Y-11060000D01*
X14147500Y-5090000D02*
X14467500Y-5410000D01*
X14467500Y-5090000D02*
X14147500Y-5410000D01*
X14307500Y-5410000D02*
X14467500Y-5250000D01*
X14307500Y-5090000D01*
X14147500Y-5250000D01*
X14307500Y-5410000D01*
D12*
X13891428Y-12068214D02*
X13891428Y-11768214D01*
X13962857Y-11768214D01*
X14005714Y-11782500D01*
X14034286Y-11811072D01*
X14048571Y-11839643D01*
X14062857Y-11896786D01*
X14062857Y-11939643D01*
X14048571Y-11996786D01*
X14034286Y-12025357D01*
X14005714Y-12053929D01*
X13962857Y-12068214D01*
X13891428Y-12068214D01*
X14191428Y-12068214D02*
X14191428Y-11868214D01*
X14191428Y-11925357D02*
X14205714Y-11896786D01*
X14220000Y-11882500D01*
X14248571Y-11868214D01*
X14277143Y-11868214D01*
X14377143Y-12068214D02*
X14377143Y-11868214D01*
X14377143Y-11768214D02*
X14362857Y-11782500D01*
X14377143Y-11796786D01*
X14391428Y-11782500D01*
X14377143Y-11768214D01*
X14377143Y-11796786D01*
X14562857Y-12068214D02*
X14534286Y-12053929D01*
X14520000Y-12025357D01*
X14520000Y-11768214D01*
X14720000Y-12068214D02*
X14691428Y-12053929D01*
X14677143Y-12025357D01*
X14677143Y-11768214D01*
X15062857Y-12068214D02*
X15062857Y-11768214D01*
X15162857Y-11982500D01*
X15262857Y-11768214D01*
X15262857Y-12068214D01*
X15534286Y-12068214D02*
X15534286Y-11911072D01*
X15520000Y-11882500D01*
X15491428Y-11868214D01*
X15434286Y-11868214D01*
X15405714Y-11882500D01*
X15534286Y-12053929D02*
X15505714Y-12068214D01*
X15434286Y-12068214D01*
X15405714Y-12053929D01*
X15391428Y-12025357D01*
X15391428Y-11996786D01*
X15405714Y-11968214D01*
X15434286Y-11953929D01*
X15505714Y-11953929D01*
X15534286Y-11939643D01*
X15677143Y-11868214D02*
X15677143Y-12168214D01*
X15677143Y-11882500D02*
X15705714Y-11868214D01*
X15762857Y-11868214D01*
X15791428Y-11882500D01*
X15805714Y-11896786D01*
X15820000Y-11925357D01*
X15820000Y-12011072D01*
X15805714Y-12039643D01*
X15791428Y-12053929D01*
X15762857Y-12068214D01*
X15705714Y-12068214D01*
X15677143Y-12053929D01*
X15948571Y-12039643D02*
X15962857Y-12053929D01*
X15948571Y-12068214D01*
X15934286Y-12053929D01*
X15948571Y-12039643D01*
X15948571Y-12068214D01*
X15948571Y-11882500D02*
X15962857Y-11896786D01*
X15948571Y-11911072D01*
X15934286Y-11896786D01*
X15948571Y-11882500D01*
X15948571Y-11911072D01*
X13575000Y-12547500D02*
X13605000Y-12577500D01*
X13605000Y-12547500D02*
X13575000Y-12577500D01*
X13948571Y-12398214D02*
X13977143Y-12398214D01*
X14005714Y-12412500D01*
X14020000Y-12426786D01*
X14034286Y-12455357D01*
X14048571Y-12512500D01*
X14048571Y-12583929D01*
X14034286Y-12641072D01*
X14020000Y-12669643D01*
X14005714Y-12683929D01*
X13977143Y-12698214D01*
X13948571Y-12698214D01*
X13920000Y-12683929D01*
X13905714Y-12669643D01*
X13891428Y-12641072D01*
X13877143Y-12583929D01*
X13877143Y-12512500D01*
X13891428Y-12455357D01*
X13905714Y-12426786D01*
X13920000Y-12412500D01*
X13948571Y-12398214D01*
X14177143Y-12669643D02*
X14191428Y-12683929D01*
X14177143Y-12698214D01*
X14162857Y-12683929D01*
X14177143Y-12669643D01*
X14177143Y-12698214D01*
X14291428Y-12398214D02*
X14477143Y-12398214D01*
X14377143Y-12512500D01*
X14420000Y-12512500D01*
X14448571Y-12526786D01*
X14462857Y-12541072D01*
X14477143Y-12569643D01*
X14477143Y-12641072D01*
X14462857Y-12669643D01*
X14448571Y-12683929D01*
X14420000Y-12698214D01*
X14334286Y-12698214D01*
X14305714Y-12683929D01*
X14291428Y-12669643D01*
X14662857Y-12398214D02*
X14691428Y-12398214D01*
X14720000Y-12412500D01*
X14734286Y-12426786D01*
X14748571Y-12455357D01*
X14762857Y-12512500D01*
X14762857Y-12583929D01*
X14748571Y-12641072D01*
X14734286Y-12669643D01*
X14720000Y-12683929D01*
X14691428Y-12698214D01*
X14662857Y-12698214D01*
X14634286Y-12683929D01*
X14620000Y-12669643D01*
X14605714Y-12641072D01*
X14591428Y-12583929D01*
X14591428Y-12512500D01*
X14605714Y-12455357D01*
X14620000Y-12426786D01*
X14634286Y-12412500D01*
X14662857Y-12398214D01*
X14891428Y-12698214D02*
X14891428Y-12498214D01*
X14891428Y-12526786D02*
X14905714Y-12512500D01*
X14934286Y-12498214D01*
X14977143Y-12498214D01*
X15005714Y-12512500D01*
X15020000Y-12541072D01*
X15020000Y-12698214D01*
X15020000Y-12541072D02*
X15034286Y-12512500D01*
X15062857Y-12498214D01*
X15105714Y-12498214D01*
X15134286Y-12512500D01*
X15148571Y-12541072D01*
X15148571Y-12698214D01*
X15291428Y-12698214D02*
X15291428Y-12498214D01*
X15291428Y-12526786D02*
X15305714Y-12512500D01*
X15334286Y-12498214D01*
X15377143Y-12498214D01*
X15405714Y-12512500D01*
X15420000Y-12541072D01*
X15420000Y-12698214D01*
X15420000Y-12541072D02*
X15434286Y-12512500D01*
X15462857Y-12498214D01*
X15505714Y-12498214D01*
X15534286Y-12512500D01*
X15548571Y-12541072D01*
X15548571Y-12698214D01*
X16134286Y-12383929D02*
X15877143Y-12769643D01*
X16520000Y-12398214D02*
X16548571Y-12398214D01*
X16577143Y-12412500D01*
X16591428Y-12426786D01*
X16605714Y-12455357D01*
X16620000Y-12512500D01*
X16620000Y-12583929D01*
X16605714Y-12641072D01*
X16591428Y-12669643D01*
X16577143Y-12683929D01*
X16548571Y-12698214D01*
X16520000Y-12698214D01*
X16491428Y-12683929D01*
X16477143Y-12669643D01*
X16462857Y-12641072D01*
X16448571Y-12583929D01*
X16448571Y-12512500D01*
X16462857Y-12455357D01*
X16477143Y-12426786D01*
X16491428Y-12412500D01*
X16520000Y-12398214D01*
X16748571Y-12669643D02*
X16762857Y-12683929D01*
X16748571Y-12698214D01*
X16734286Y-12683929D01*
X16748571Y-12669643D01*
X16748571Y-12698214D01*
X16948571Y-12398214D02*
X16977143Y-12398214D01*
X17005714Y-12412500D01*
X17020000Y-12426786D01*
X17034286Y-12455357D01*
X17048571Y-12512500D01*
X17048571Y-12583929D01*
X17034286Y-12641072D01*
X17020000Y-12669643D01*
X17005714Y-12683929D01*
X16977143Y-12698214D01*
X16948571Y-12698214D01*
X16920000Y-12683929D01*
X16905714Y-12669643D01*
X16891428Y-12641072D01*
X16877143Y-12583929D01*
X16877143Y-12512500D01*
X16891428Y-12455357D01*
X16905714Y-12426786D01*
X16920000Y-12412500D01*
X16948571Y-12398214D01*
X17334286Y-12698214D02*
X17162857Y-12698214D01*
X17248571Y-12698214D02*
X17248571Y-12398214D01*
X17220000Y-12441072D01*
X17191428Y-12469643D01*
X17162857Y-12483929D01*
X17448571Y-12426786D02*
X17462857Y-12412500D01*
X17491428Y-12398214D01*
X17562857Y-12398214D01*
X17591428Y-12412500D01*
X17605714Y-12426786D01*
X17620000Y-12455357D01*
X17620000Y-12483929D01*
X17605714Y-12526786D01*
X17434286Y-12698214D01*
X17620000Y-12698214D01*
X17734286Y-12398214D02*
X17734286Y-12455357D01*
X17848571Y-12398214D02*
X17848571Y-12455357D01*
X18291428Y-12812500D02*
X18277143Y-12798214D01*
X18248571Y-12755357D01*
X18234286Y-12726786D01*
X18220000Y-12683929D01*
X18205714Y-12612500D01*
X18205714Y-12555357D01*
X18220000Y-12483929D01*
X18234286Y-12441072D01*
X18248571Y-12412500D01*
X18277143Y-12369643D01*
X18291428Y-12355357D01*
X18391428Y-12426786D02*
X18405714Y-12412500D01*
X18434286Y-12398214D01*
X18505714Y-12398214D01*
X18534286Y-12412500D01*
X18548571Y-12426786D01*
X18562857Y-12455357D01*
X18562857Y-12483929D01*
X18548571Y-12526786D01*
X18377143Y-12698214D01*
X18562857Y-12698214D01*
X18705714Y-12698214D02*
X18762857Y-12698214D01*
X18791428Y-12683929D01*
X18805714Y-12669643D01*
X18834286Y-12626786D01*
X18848571Y-12569643D01*
X18848571Y-12455357D01*
X18834286Y-12426786D01*
X18820000Y-12412500D01*
X18791428Y-12398214D01*
X18734286Y-12398214D01*
X18705714Y-12412500D01*
X18691428Y-12426786D01*
X18677143Y-12455357D01*
X18677143Y-12526786D01*
X18691428Y-12555357D01*
X18705714Y-12569643D01*
X18734286Y-12583929D01*
X18791428Y-12583929D01*
X18820000Y-12569643D01*
X18834286Y-12555357D01*
X18848571Y-12526786D01*
X18962857Y-12426786D02*
X18977143Y-12412500D01*
X19005714Y-12398214D01*
X19077143Y-12398214D01*
X19105714Y-12412500D01*
X19120000Y-12426786D01*
X19134286Y-12455357D01*
X19134286Y-12483929D01*
X19120000Y-12526786D01*
X18948571Y-12698214D01*
X19134286Y-12698214D01*
X19491428Y-12698214D02*
X19491428Y-12398214D01*
X19620000Y-12698214D02*
X19620000Y-12541072D01*
X19605714Y-12512500D01*
X19577143Y-12498214D01*
X19534286Y-12498214D01*
X19505714Y-12512500D01*
X19491428Y-12526786D01*
X19805714Y-12698214D02*
X19777143Y-12683929D01*
X19762857Y-12669643D01*
X19748571Y-12641072D01*
X19748571Y-12555357D01*
X19762857Y-12526786D01*
X19777143Y-12512500D01*
X19805714Y-12498214D01*
X19848571Y-12498214D01*
X19877143Y-12512500D01*
X19891428Y-12526786D01*
X19905714Y-12555357D01*
X19905714Y-12641072D01*
X19891428Y-12669643D01*
X19877143Y-12683929D01*
X19848571Y-12698214D01*
X19805714Y-12698214D01*
X20077143Y-12698214D02*
X20048571Y-12683929D01*
X20034286Y-12655357D01*
X20034286Y-12398214D01*
X20305714Y-12683929D02*
X20277143Y-12698214D01*
X20220000Y-12698214D01*
X20191428Y-12683929D01*
X20177143Y-12655357D01*
X20177143Y-12541072D01*
X20191428Y-12512500D01*
X20220000Y-12498214D01*
X20277143Y-12498214D01*
X20305714Y-12512500D01*
X20320000Y-12541072D01*
X20320000Y-12569643D01*
X20177143Y-12598214D01*
X20434286Y-12683929D02*
X20462857Y-12698214D01*
X20520000Y-12698214D01*
X20548571Y-12683929D01*
X20562857Y-12655357D01*
X20562857Y-12641072D01*
X20548571Y-12612500D01*
X20520000Y-12598214D01*
X20477143Y-12598214D01*
X20448571Y-12583929D01*
X20434286Y-12555357D01*
X20434286Y-12541072D01*
X20448571Y-12512500D01*
X20477143Y-12498214D01*
X20520000Y-12498214D01*
X20548571Y-12512500D01*
X20662857Y-12812500D02*
X20677143Y-12798214D01*
X20705714Y-12755357D01*
X20720000Y-12726786D01*
X20734286Y-12683929D01*
X20748571Y-12612500D01*
X20748571Y-12555357D01*
X20734286Y-12483929D01*
X20720000Y-12441072D01*
X20705714Y-12412500D01*
X20677143Y-12369643D01*
X20662857Y-12355357D01*
X13605000Y-12958500D02*
G75*
G03*
X13605000Y-12958500I-20000J0D01*
G01*
X13948571Y-12794214D02*
X13977143Y-12794214D01*
X14005714Y-12808500D01*
X14020000Y-12822786D01*
X14034286Y-12851357D01*
X14048571Y-12908500D01*
X14048571Y-12979929D01*
X14034286Y-13037072D01*
X14020000Y-13065643D01*
X14005714Y-13079929D01*
X13977143Y-13094214D01*
X13948571Y-13094214D01*
X13920000Y-13079929D01*
X13905714Y-13065643D01*
X13891428Y-13037072D01*
X13877143Y-12979929D01*
X13877143Y-12908500D01*
X13891428Y-12851357D01*
X13905714Y-12822786D01*
X13920000Y-12808500D01*
X13948571Y-12794214D01*
X14177143Y-13065643D02*
X14191428Y-13079929D01*
X14177143Y-13094214D01*
X14162857Y-13079929D01*
X14177143Y-13065643D01*
X14177143Y-13094214D01*
X14448571Y-12894214D02*
X14448571Y-13094214D01*
X14377143Y-12779929D02*
X14305714Y-12994214D01*
X14491428Y-12994214D01*
X14662857Y-12794214D02*
X14691428Y-12794214D01*
X14720000Y-12808500D01*
X14734286Y-12822786D01*
X14748571Y-12851357D01*
X14762857Y-12908500D01*
X14762857Y-12979929D01*
X14748571Y-13037072D01*
X14734286Y-13065643D01*
X14720000Y-13079929D01*
X14691428Y-13094214D01*
X14662857Y-13094214D01*
X14634286Y-13079929D01*
X14620000Y-13065643D01*
X14605714Y-13037072D01*
X14591428Y-12979929D01*
X14591428Y-12908500D01*
X14605714Y-12851357D01*
X14620000Y-12822786D01*
X14634286Y-12808500D01*
X14662857Y-12794214D01*
X14891428Y-13094214D02*
X14891428Y-12894214D01*
X14891428Y-12922786D02*
X14905714Y-12908500D01*
X14934286Y-12894214D01*
X14977143Y-12894214D01*
X15005714Y-12908500D01*
X15020000Y-12937072D01*
X15020000Y-13094214D01*
X15020000Y-12937072D02*
X15034286Y-12908500D01*
X15062857Y-12894214D01*
X15105714Y-12894214D01*
X15134286Y-12908500D01*
X15148571Y-12937072D01*
X15148571Y-13094214D01*
X15291428Y-13094214D02*
X15291428Y-12894214D01*
X15291428Y-12922786D02*
X15305714Y-12908500D01*
X15334286Y-12894214D01*
X15377143Y-12894214D01*
X15405714Y-12908500D01*
X15420000Y-12937072D01*
X15420000Y-13094214D01*
X15420000Y-12937072D02*
X15434286Y-12908500D01*
X15462857Y-12894214D01*
X15505714Y-12894214D01*
X15534286Y-12908500D01*
X15548571Y-12937072D01*
X15548571Y-13094214D01*
X16134286Y-12779929D02*
X15877143Y-13165643D01*
X16520000Y-12794214D02*
X16548571Y-12794214D01*
X16577143Y-12808500D01*
X16591428Y-12822786D01*
X16605714Y-12851357D01*
X16620000Y-12908500D01*
X16620000Y-12979929D01*
X16605714Y-13037072D01*
X16591428Y-13065643D01*
X16577143Y-13079929D01*
X16548571Y-13094214D01*
X16520000Y-13094214D01*
X16491428Y-13079929D01*
X16477143Y-13065643D01*
X16462857Y-13037072D01*
X16448571Y-12979929D01*
X16448571Y-12908500D01*
X16462857Y-12851357D01*
X16477143Y-12822786D01*
X16491428Y-12808500D01*
X16520000Y-12794214D01*
X16748571Y-13065643D02*
X16762857Y-13079929D01*
X16748571Y-13094214D01*
X16734286Y-13079929D01*
X16748571Y-13065643D01*
X16748571Y-13094214D01*
X16948571Y-12794214D02*
X16977143Y-12794214D01*
X17005714Y-12808500D01*
X17020000Y-12822786D01*
X17034286Y-12851357D01*
X17048571Y-12908500D01*
X17048571Y-12979929D01*
X17034286Y-13037072D01*
X17020000Y-13065643D01*
X17005714Y-13079929D01*
X16977143Y-13094214D01*
X16948571Y-13094214D01*
X16920000Y-13079929D01*
X16905714Y-13065643D01*
X16891428Y-13037072D01*
X16877143Y-12979929D01*
X16877143Y-12908500D01*
X16891428Y-12851357D01*
X16905714Y-12822786D01*
X16920000Y-12808500D01*
X16948571Y-12794214D01*
X17334286Y-13094214D02*
X17162857Y-13094214D01*
X17248571Y-13094214D02*
X17248571Y-12794214D01*
X17220000Y-12837072D01*
X17191428Y-12865643D01*
X17162857Y-12879929D01*
X17591428Y-12794214D02*
X17534286Y-12794214D01*
X17505714Y-12808500D01*
X17491428Y-12822786D01*
X17462857Y-12865643D01*
X17448571Y-12922786D01*
X17448571Y-13037072D01*
X17462857Y-13065643D01*
X17477143Y-13079929D01*
X17505714Y-13094214D01*
X17562857Y-13094214D01*
X17591428Y-13079929D01*
X17605714Y-13065643D01*
X17620000Y-13037072D01*
X17620000Y-12965643D01*
X17605714Y-12937072D01*
X17591428Y-12922786D01*
X17562857Y-12908500D01*
X17505714Y-12908500D01*
X17477143Y-12922786D01*
X17462857Y-12937072D01*
X17448571Y-12965643D01*
X17734286Y-12794214D02*
X17734286Y-12851357D01*
X17848571Y-12794214D02*
X17848571Y-12851357D01*
X18291428Y-13208500D02*
X18277143Y-13194214D01*
X18248571Y-13151357D01*
X18234286Y-13122786D01*
X18220000Y-13079929D01*
X18205714Y-13008500D01*
X18205714Y-12951357D01*
X18220000Y-12879929D01*
X18234286Y-12837072D01*
X18248571Y-12808500D01*
X18277143Y-12765643D01*
X18291428Y-12751357D01*
X18548571Y-12794214D02*
X18405714Y-12794214D01*
X18391428Y-12937072D01*
X18405714Y-12922786D01*
X18434286Y-12908500D01*
X18505714Y-12908500D01*
X18534286Y-12922786D01*
X18548571Y-12937072D01*
X18562857Y-12965643D01*
X18562857Y-13037072D01*
X18548571Y-13065643D01*
X18534286Y-13079929D01*
X18505714Y-13094214D01*
X18434286Y-13094214D01*
X18405714Y-13079929D01*
X18391428Y-13065643D01*
X18734286Y-12922786D02*
X18705714Y-12908500D01*
X18691428Y-12894214D01*
X18677143Y-12865643D01*
X18677143Y-12851357D01*
X18691428Y-12822786D01*
X18705714Y-12808500D01*
X18734286Y-12794214D01*
X18791428Y-12794214D01*
X18820000Y-12808500D01*
X18834286Y-12822786D01*
X18848571Y-12851357D01*
X18848571Y-12865643D01*
X18834286Y-12894214D01*
X18820000Y-12908500D01*
X18791428Y-12922786D01*
X18734286Y-12922786D01*
X18705714Y-12937072D01*
X18691428Y-12951357D01*
X18677143Y-12979929D01*
X18677143Y-13037072D01*
X18691428Y-13065643D01*
X18705714Y-13079929D01*
X18734286Y-13094214D01*
X18791428Y-13094214D01*
X18820000Y-13079929D01*
X18834286Y-13065643D01*
X18848571Y-13037072D01*
X18848571Y-12979929D01*
X18834286Y-12951357D01*
X18820000Y-12937072D01*
X18791428Y-12922786D01*
X19205714Y-13094214D02*
X19205714Y-12794214D01*
X19334286Y-13094214D02*
X19334286Y-12937072D01*
X19320000Y-12908500D01*
X19291428Y-12894214D01*
X19248571Y-12894214D01*
X19220000Y-12908500D01*
X19205714Y-12922786D01*
X19520000Y-13094214D02*
X19491428Y-13079929D01*
X19477143Y-13065643D01*
X19462857Y-13037072D01*
X19462857Y-12951357D01*
X19477143Y-12922786D01*
X19491428Y-12908500D01*
X19520000Y-12894214D01*
X19562857Y-12894214D01*
X19591428Y-12908500D01*
X19605714Y-12922786D01*
X19620000Y-12951357D01*
X19620000Y-13037072D01*
X19605714Y-13065643D01*
X19591428Y-13079929D01*
X19562857Y-13094214D01*
X19520000Y-13094214D01*
X19791428Y-13094214D02*
X19762857Y-13079929D01*
X19748571Y-13051357D01*
X19748571Y-12794214D01*
X20020000Y-13079929D02*
X19991428Y-13094214D01*
X19934286Y-13094214D01*
X19905714Y-13079929D01*
X19891428Y-13051357D01*
X19891428Y-12937072D01*
X19905714Y-12908500D01*
X19934286Y-12894214D01*
X19991428Y-12894214D01*
X20020000Y-12908500D01*
X20034286Y-12937072D01*
X20034286Y-12965643D01*
X19891428Y-12994214D01*
X20148571Y-13079929D02*
X20177143Y-13094214D01*
X20234286Y-13094214D01*
X20262857Y-13079929D01*
X20277143Y-13051357D01*
X20277143Y-13037072D01*
X20262857Y-13008500D01*
X20234286Y-12994214D01*
X20191428Y-12994214D01*
X20162857Y-12979929D01*
X20148571Y-12951357D01*
X20148571Y-12937072D01*
X20162857Y-12908500D01*
X20191428Y-12894214D01*
X20234286Y-12894214D01*
X20262857Y-12908500D01*
X20377143Y-13208500D02*
X20391428Y-13194214D01*
X20420000Y-13151357D01*
X20434286Y-13122786D01*
X20448571Y-13079929D01*
X20462857Y-13008500D01*
X20462857Y-12951357D01*
X20448571Y-12879929D01*
X20434286Y-12837072D01*
X20420000Y-12808500D01*
X20391428Y-12765643D01*
X20377143Y-12751357D01*
X13580000Y-13329500D02*
X13580000Y-13379500D01*
X13555000Y-13354500D02*
X13605000Y-13354500D01*
X13948571Y-13190214D02*
X13977143Y-13190214D01*
X14005714Y-13204500D01*
X14020000Y-13218786D01*
X14034286Y-13247357D01*
X14048571Y-13304500D01*
X14048571Y-13375929D01*
X14034286Y-13433072D01*
X14020000Y-13461643D01*
X14005714Y-13475929D01*
X13977143Y-13490214D01*
X13948571Y-13490214D01*
X13920000Y-13475929D01*
X13905714Y-13461643D01*
X13891428Y-13433072D01*
X13877143Y-13375929D01*
X13877143Y-13304500D01*
X13891428Y-13247357D01*
X13905714Y-13218786D01*
X13920000Y-13204500D01*
X13948571Y-13190214D01*
X14177143Y-13461643D02*
X14191428Y-13475929D01*
X14177143Y-13490214D01*
X14162857Y-13475929D01*
X14177143Y-13461643D01*
X14177143Y-13490214D01*
X14462857Y-13190214D02*
X14320000Y-13190214D01*
X14305714Y-13333072D01*
X14320000Y-13318786D01*
X14348571Y-13304500D01*
X14420000Y-13304500D01*
X14448571Y-13318786D01*
X14462857Y-13333072D01*
X14477143Y-13361643D01*
X14477143Y-13433072D01*
X14462857Y-13461643D01*
X14448571Y-13475929D01*
X14420000Y-13490214D01*
X14348571Y-13490214D01*
X14320000Y-13475929D01*
X14305714Y-13461643D01*
X14662857Y-13190214D02*
X14691428Y-13190214D01*
X14720000Y-13204500D01*
X14734286Y-13218786D01*
X14748571Y-13247357D01*
X14762857Y-13304500D01*
X14762857Y-13375929D01*
X14748571Y-13433072D01*
X14734286Y-13461643D01*
X14720000Y-13475929D01*
X14691428Y-13490214D01*
X14662857Y-13490214D01*
X14634286Y-13475929D01*
X14620000Y-13461643D01*
X14605714Y-13433072D01*
X14591428Y-13375929D01*
X14591428Y-13304500D01*
X14605714Y-13247357D01*
X14620000Y-13218786D01*
X14634286Y-13204500D01*
X14662857Y-13190214D01*
X14891428Y-13490214D02*
X14891428Y-13290214D01*
X14891428Y-13318786D02*
X14905714Y-13304500D01*
X14934286Y-13290214D01*
X14977143Y-13290214D01*
X15005714Y-13304500D01*
X15020000Y-13333072D01*
X15020000Y-13490214D01*
X15020000Y-13333072D02*
X15034286Y-13304500D01*
X15062857Y-13290214D01*
X15105714Y-13290214D01*
X15134286Y-13304500D01*
X15148571Y-13333072D01*
X15148571Y-13490214D01*
X15291428Y-13490214D02*
X15291428Y-13290214D01*
X15291428Y-13318786D02*
X15305714Y-13304500D01*
X15334286Y-13290214D01*
X15377143Y-13290214D01*
X15405714Y-13304500D01*
X15420000Y-13333072D01*
X15420000Y-13490214D01*
X15420000Y-13333072D02*
X15434286Y-13304500D01*
X15462857Y-13290214D01*
X15505714Y-13290214D01*
X15534286Y-13304500D01*
X15548571Y-13333072D01*
X15548571Y-13490214D01*
X16134286Y-13175929D02*
X15877143Y-13561643D01*
X16520000Y-13190214D02*
X16548571Y-13190214D01*
X16577143Y-13204500D01*
X16591428Y-13218786D01*
X16605714Y-13247357D01*
X16620000Y-13304500D01*
X16620000Y-13375929D01*
X16605714Y-13433072D01*
X16591428Y-13461643D01*
X16577143Y-13475929D01*
X16548571Y-13490214D01*
X16520000Y-13490214D01*
X16491428Y-13475929D01*
X16477143Y-13461643D01*
X16462857Y-13433072D01*
X16448571Y-13375929D01*
X16448571Y-13304500D01*
X16462857Y-13247357D01*
X16477143Y-13218786D01*
X16491428Y-13204500D01*
X16520000Y-13190214D01*
X16748571Y-13461643D02*
X16762857Y-13475929D01*
X16748571Y-13490214D01*
X16734286Y-13475929D01*
X16748571Y-13461643D01*
X16748571Y-13490214D01*
X16948571Y-13190214D02*
X16977143Y-13190214D01*
X17005714Y-13204500D01*
X17020000Y-13218786D01*
X17034286Y-13247357D01*
X17048571Y-13304500D01*
X17048571Y-13375929D01*
X17034286Y-13433072D01*
X17020000Y-13461643D01*
X17005714Y-13475929D01*
X16977143Y-13490214D01*
X16948571Y-13490214D01*
X16920000Y-13475929D01*
X16905714Y-13461643D01*
X16891428Y-13433072D01*
X16877143Y-13375929D01*
X16877143Y-13304500D01*
X16891428Y-13247357D01*
X16905714Y-13218786D01*
X16920000Y-13204500D01*
X16948571Y-13190214D01*
X17162857Y-13218786D02*
X17177143Y-13204500D01*
X17205714Y-13190214D01*
X17277143Y-13190214D01*
X17305714Y-13204500D01*
X17320000Y-13218786D01*
X17334286Y-13247357D01*
X17334286Y-13275929D01*
X17320000Y-13318786D01*
X17148571Y-13490214D01*
X17334286Y-13490214D01*
X17520000Y-13190214D02*
X17548571Y-13190214D01*
X17577143Y-13204500D01*
X17591428Y-13218786D01*
X17605714Y-13247357D01*
X17620000Y-13304500D01*
X17620000Y-13375929D01*
X17605714Y-13433072D01*
X17591428Y-13461643D01*
X17577143Y-13475929D01*
X17548571Y-13490214D01*
X17520000Y-13490214D01*
X17491428Y-13475929D01*
X17477143Y-13461643D01*
X17462857Y-13433072D01*
X17448571Y-13375929D01*
X17448571Y-13304500D01*
X17462857Y-13247357D01*
X17477143Y-13218786D01*
X17491428Y-13204500D01*
X17520000Y-13190214D01*
X17734286Y-13190214D02*
X17734286Y-13247357D01*
X17848571Y-13190214D02*
X17848571Y-13247357D01*
X18291428Y-13604500D02*
X18277143Y-13590214D01*
X18248571Y-13547357D01*
X18234286Y-13518786D01*
X18220000Y-13475929D01*
X18205714Y-13404500D01*
X18205714Y-13347357D01*
X18220000Y-13275929D01*
X18234286Y-13233072D01*
X18248571Y-13204500D01*
X18277143Y-13161643D01*
X18291428Y-13147357D01*
X18391428Y-13218786D02*
X18405714Y-13204500D01*
X18434286Y-13190214D01*
X18505714Y-13190214D01*
X18534286Y-13204500D01*
X18548571Y-13218786D01*
X18562857Y-13247357D01*
X18562857Y-13275929D01*
X18548571Y-13318786D01*
X18377143Y-13490214D01*
X18562857Y-13490214D01*
X18734286Y-13318786D02*
X18705714Y-13304500D01*
X18691428Y-13290214D01*
X18677143Y-13261643D01*
X18677143Y-13247357D01*
X18691428Y-13218786D01*
X18705714Y-13204500D01*
X18734286Y-13190214D01*
X18791428Y-13190214D01*
X18820000Y-13204500D01*
X18834286Y-13218786D01*
X18848571Y-13247357D01*
X18848571Y-13261643D01*
X18834286Y-13290214D01*
X18820000Y-13304500D01*
X18791428Y-13318786D01*
X18734286Y-13318786D01*
X18705714Y-13333072D01*
X18691428Y-13347357D01*
X18677143Y-13375929D01*
X18677143Y-13433072D01*
X18691428Y-13461643D01*
X18705714Y-13475929D01*
X18734286Y-13490214D01*
X18791428Y-13490214D01*
X18820000Y-13475929D01*
X18834286Y-13461643D01*
X18848571Y-13433072D01*
X18848571Y-13375929D01*
X18834286Y-13347357D01*
X18820000Y-13333072D01*
X18791428Y-13318786D01*
X19205714Y-13490214D02*
X19205714Y-13190214D01*
X19334286Y-13490214D02*
X19334286Y-13333072D01*
X19320000Y-13304500D01*
X19291428Y-13290214D01*
X19248571Y-13290214D01*
X19220000Y-13304500D01*
X19205714Y-13318786D01*
X19520000Y-13490214D02*
X19491428Y-13475929D01*
X19477143Y-13461643D01*
X19462857Y-13433072D01*
X19462857Y-13347357D01*
X19477143Y-13318786D01*
X19491428Y-13304500D01*
X19520000Y-13290214D01*
X19562857Y-13290214D01*
X19591428Y-13304500D01*
X19605714Y-13318786D01*
X19620000Y-13347357D01*
X19620000Y-13433072D01*
X19605714Y-13461643D01*
X19591428Y-13475929D01*
X19562857Y-13490214D01*
X19520000Y-13490214D01*
X19791428Y-13490214D02*
X19762857Y-13475929D01*
X19748571Y-13447357D01*
X19748571Y-13190214D01*
X20020000Y-13475929D02*
X19991428Y-13490214D01*
X19934286Y-13490214D01*
X19905714Y-13475929D01*
X19891428Y-13447357D01*
X19891428Y-13333072D01*
X19905714Y-13304500D01*
X19934286Y-13290214D01*
X19991428Y-13290214D01*
X20020000Y-13304500D01*
X20034286Y-13333072D01*
X20034286Y-13361643D01*
X19891428Y-13390214D01*
X20148571Y-13475929D02*
X20177143Y-13490214D01*
X20234286Y-13490214D01*
X20262857Y-13475929D01*
X20277143Y-13447357D01*
X20277143Y-13433072D01*
X20262857Y-13404500D01*
X20234286Y-13390214D01*
X20191428Y-13390214D01*
X20162857Y-13375929D01*
X20148571Y-13347357D01*
X20148571Y-13333072D01*
X20162857Y-13304500D01*
X20191428Y-13290214D01*
X20234286Y-13290214D01*
X20262857Y-13304500D01*
X20377143Y-13604500D02*
X20391428Y-13590214D01*
X20420000Y-13547357D01*
X20434286Y-13518786D01*
X20448571Y-13475929D01*
X20462857Y-13404500D01*
X20462857Y-13347357D01*
X20448571Y-13275929D01*
X20434286Y-13233072D01*
X20420000Y-13204500D01*
X20391428Y-13161643D01*
X20377143Y-13147357D01*
X13591966Y-13781967D02*
X13591966Y-13719034D01*
X13529033Y-13719034D01*
X13529033Y-13781967D01*
X13591966Y-13781967D01*
X13948571Y-13586214D02*
X13977143Y-13586214D01*
X14005714Y-13600500D01*
X14020000Y-13614786D01*
X14034286Y-13643357D01*
X14048571Y-13700500D01*
X14048571Y-13771929D01*
X14034286Y-13829072D01*
X14020000Y-13857643D01*
X14005714Y-13871929D01*
X13977143Y-13886214D01*
X13948571Y-13886214D01*
X13920000Y-13871929D01*
X13905714Y-13857643D01*
X13891428Y-13829072D01*
X13877143Y-13771929D01*
X13877143Y-13700500D01*
X13891428Y-13643357D01*
X13905714Y-13614786D01*
X13920000Y-13600500D01*
X13948571Y-13586214D01*
X14177143Y-13857643D02*
X14191428Y-13871929D01*
X14177143Y-13886214D01*
X14162857Y-13871929D01*
X14177143Y-13857643D01*
X14177143Y-13886214D01*
X14362857Y-13714786D02*
X14334286Y-13700500D01*
X14320000Y-13686214D01*
X14305714Y-13657643D01*
X14305714Y-13643357D01*
X14320000Y-13614786D01*
X14334286Y-13600500D01*
X14362857Y-13586214D01*
X14420000Y-13586214D01*
X14448571Y-13600500D01*
X14462857Y-13614786D01*
X14477143Y-13643357D01*
X14477143Y-13657643D01*
X14462857Y-13686214D01*
X14448571Y-13700500D01*
X14420000Y-13714786D01*
X14362857Y-13714786D01*
X14334286Y-13729072D01*
X14320000Y-13743357D01*
X14305714Y-13771929D01*
X14305714Y-13829072D01*
X14320000Y-13857643D01*
X14334286Y-13871929D01*
X14362857Y-13886214D01*
X14420000Y-13886214D01*
X14448571Y-13871929D01*
X14462857Y-13857643D01*
X14477143Y-13829072D01*
X14477143Y-13771929D01*
X14462857Y-13743357D01*
X14448571Y-13729072D01*
X14420000Y-13714786D01*
X14620000Y-13886214D02*
X14677143Y-13886214D01*
X14705714Y-13871929D01*
X14720000Y-13857643D01*
X14748571Y-13814786D01*
X14762857Y-13757643D01*
X14762857Y-13643357D01*
X14748571Y-13614786D01*
X14734286Y-13600500D01*
X14705714Y-13586214D01*
X14648571Y-13586214D01*
X14620000Y-13600500D01*
X14605714Y-13614786D01*
X14591428Y-13643357D01*
X14591428Y-13714786D01*
X14605714Y-13743357D01*
X14620000Y-13757643D01*
X14648571Y-13771929D01*
X14705714Y-13771929D01*
X14734286Y-13757643D01*
X14748571Y-13743357D01*
X14762857Y-13714786D01*
X14891428Y-13886214D02*
X14891428Y-13686214D01*
X14891428Y-13714786D02*
X14905714Y-13700500D01*
X14934286Y-13686214D01*
X14977143Y-13686214D01*
X15005714Y-13700500D01*
X15020000Y-13729072D01*
X15020000Y-13886214D01*
X15020000Y-13729072D02*
X15034286Y-13700500D01*
X15062857Y-13686214D01*
X15105714Y-13686214D01*
X15134286Y-13700500D01*
X15148571Y-13729072D01*
X15148571Y-13886214D01*
X15291428Y-13886214D02*
X15291428Y-13686214D01*
X15291428Y-13714786D02*
X15305714Y-13700500D01*
X15334286Y-13686214D01*
X15377143Y-13686214D01*
X15405714Y-13700500D01*
X15420000Y-13729072D01*
X15420000Y-13886214D01*
X15420000Y-13729072D02*
X15434286Y-13700500D01*
X15462857Y-13686214D01*
X15505714Y-13686214D01*
X15534286Y-13700500D01*
X15548571Y-13729072D01*
X15548571Y-13886214D01*
X16134286Y-13571929D02*
X15877143Y-13957643D01*
X16520000Y-13586214D02*
X16548571Y-13586214D01*
X16577143Y-13600500D01*
X16591428Y-13614786D01*
X16605714Y-13643357D01*
X16620000Y-13700500D01*
X16620000Y-13771929D01*
X16605714Y-13829072D01*
X16591428Y-13857643D01*
X16577143Y-13871929D01*
X16548571Y-13886214D01*
X16520000Y-13886214D01*
X16491428Y-13871929D01*
X16477143Y-13857643D01*
X16462857Y-13829072D01*
X16448571Y-13771929D01*
X16448571Y-13700500D01*
X16462857Y-13643357D01*
X16477143Y-13614786D01*
X16491428Y-13600500D01*
X16520000Y-13586214D01*
X16748571Y-13857643D02*
X16762857Y-13871929D01*
X16748571Y-13886214D01*
X16734286Y-13871929D01*
X16748571Y-13857643D01*
X16748571Y-13886214D01*
X16948571Y-13586214D02*
X16977143Y-13586214D01*
X17005714Y-13600500D01*
X17020000Y-13614786D01*
X17034286Y-13643357D01*
X17048571Y-13700500D01*
X17048571Y-13771929D01*
X17034286Y-13829072D01*
X17020000Y-13857643D01*
X17005714Y-13871929D01*
X16977143Y-13886214D01*
X16948571Y-13886214D01*
X16920000Y-13871929D01*
X16905714Y-13857643D01*
X16891428Y-13829072D01*
X16877143Y-13771929D01*
X16877143Y-13700500D01*
X16891428Y-13643357D01*
X16905714Y-13614786D01*
X16920000Y-13600500D01*
X16948571Y-13586214D01*
X17148571Y-13586214D02*
X17334286Y-13586214D01*
X17234286Y-13700500D01*
X17277143Y-13700500D01*
X17305714Y-13714786D01*
X17320000Y-13729072D01*
X17334286Y-13757643D01*
X17334286Y-13829072D01*
X17320000Y-13857643D01*
X17305714Y-13871929D01*
X17277143Y-13886214D01*
X17191428Y-13886214D01*
X17162857Y-13871929D01*
X17148571Y-13857643D01*
X17605714Y-13586214D02*
X17462857Y-13586214D01*
X17448571Y-13729072D01*
X17462857Y-13714786D01*
X17491428Y-13700500D01*
X17562857Y-13700500D01*
X17591428Y-13714786D01*
X17605714Y-13729072D01*
X17620000Y-13757643D01*
X17620000Y-13829072D01*
X17605714Y-13857643D01*
X17591428Y-13871929D01*
X17562857Y-13886214D01*
X17491428Y-13886214D01*
X17462857Y-13871929D01*
X17448571Y-13857643D01*
X17734286Y-13586214D02*
X17734286Y-13643357D01*
X17848571Y-13586214D02*
X17848571Y-13643357D01*
X18291428Y-14000500D02*
X18277143Y-13986214D01*
X18248571Y-13943357D01*
X18234286Y-13914786D01*
X18220000Y-13871929D01*
X18205714Y-13800500D01*
X18205714Y-13743357D01*
X18220000Y-13671929D01*
X18234286Y-13629072D01*
X18248571Y-13600500D01*
X18277143Y-13557643D01*
X18291428Y-13543357D01*
X18562857Y-13886214D02*
X18391428Y-13886214D01*
X18477143Y-13886214D02*
X18477143Y-13586214D01*
X18448571Y-13629072D01*
X18420000Y-13657643D01*
X18391428Y-13671929D01*
X18820000Y-13586214D02*
X18762857Y-13586214D01*
X18734286Y-13600500D01*
X18720000Y-13614786D01*
X18691428Y-13657643D01*
X18677143Y-13714786D01*
X18677143Y-13829072D01*
X18691428Y-13857643D01*
X18705714Y-13871929D01*
X18734286Y-13886214D01*
X18791428Y-13886214D01*
X18820000Y-13871929D01*
X18834286Y-13857643D01*
X18848571Y-13829072D01*
X18848571Y-13757643D01*
X18834286Y-13729072D01*
X18820000Y-13714786D01*
X18791428Y-13700500D01*
X18734286Y-13700500D01*
X18705714Y-13714786D01*
X18691428Y-13729072D01*
X18677143Y-13757643D01*
X19205714Y-13886214D02*
X19205714Y-13586214D01*
X19334286Y-13886214D02*
X19334286Y-13729072D01*
X19320000Y-13700500D01*
X19291428Y-13686214D01*
X19248571Y-13686214D01*
X19220000Y-13700500D01*
X19205714Y-13714786D01*
X19520000Y-13886214D02*
X19491428Y-13871929D01*
X19477143Y-13857643D01*
X19462857Y-13829072D01*
X19462857Y-13743357D01*
X19477143Y-13714786D01*
X19491428Y-13700500D01*
X19520000Y-13686214D01*
X19562857Y-13686214D01*
X19591428Y-13700500D01*
X19605714Y-13714786D01*
X19620000Y-13743357D01*
X19620000Y-13829072D01*
X19605714Y-13857643D01*
X19591428Y-13871929D01*
X19562857Y-13886214D01*
X19520000Y-13886214D01*
X19791428Y-13886214D02*
X19762857Y-13871929D01*
X19748571Y-13843357D01*
X19748571Y-13586214D01*
X20020000Y-13871929D02*
X19991428Y-13886214D01*
X19934286Y-13886214D01*
X19905714Y-13871929D01*
X19891428Y-13843357D01*
X19891428Y-13729072D01*
X19905714Y-13700500D01*
X19934286Y-13686214D01*
X19991428Y-13686214D01*
X20020000Y-13700500D01*
X20034286Y-13729072D01*
X20034286Y-13757643D01*
X19891428Y-13786214D01*
X20148571Y-13871929D02*
X20177143Y-13886214D01*
X20234286Y-13886214D01*
X20262857Y-13871929D01*
X20277143Y-13843357D01*
X20277143Y-13829072D01*
X20262857Y-13800500D01*
X20234286Y-13786214D01*
X20191428Y-13786214D01*
X20162857Y-13771929D01*
X20148571Y-13743357D01*
X20148571Y-13729072D01*
X20162857Y-13700500D01*
X20191428Y-13686214D01*
X20234286Y-13686214D01*
X20262857Y-13700500D01*
X20377143Y-14000500D02*
X20391428Y-13986214D01*
X20420000Y-13943357D01*
X20434286Y-13914786D01*
X20448571Y-13871929D01*
X20462857Y-13800500D01*
X20462857Y-13743357D01*
X20448571Y-13671929D01*
X20434286Y-13629072D01*
X20420000Y-13600500D01*
X20391428Y-13557643D01*
X20377143Y-13543357D01*
X13555000Y-14196500D02*
X13605000Y-14146500D01*
X13555000Y-14096500D01*
X13505000Y-14146500D01*
X13555000Y-14196500D01*
X14048571Y-14282214D02*
X13877143Y-14282214D01*
X13962857Y-14282214D02*
X13962857Y-13982214D01*
X13934286Y-14025072D01*
X13905714Y-14053643D01*
X13877143Y-14067929D01*
X14177143Y-14253643D02*
X14191428Y-14267929D01*
X14177143Y-14282214D01*
X14162857Y-14267929D01*
X14177143Y-14253643D01*
X14177143Y-14282214D01*
X14377143Y-13982214D02*
X14405714Y-13982214D01*
X14434286Y-13996500D01*
X14448571Y-14010786D01*
X14462857Y-14039357D01*
X14477143Y-14096500D01*
X14477143Y-14167929D01*
X14462857Y-14225072D01*
X14448571Y-14253643D01*
X14434286Y-14267929D01*
X14405714Y-14282214D01*
X14377143Y-14282214D01*
X14348571Y-14267929D01*
X14334286Y-14253643D01*
X14320000Y-14225072D01*
X14305714Y-14167929D01*
X14305714Y-14096500D01*
X14320000Y-14039357D01*
X14334286Y-14010786D01*
X14348571Y-13996500D01*
X14377143Y-13982214D01*
X14662857Y-13982214D02*
X14691428Y-13982214D01*
X14720000Y-13996500D01*
X14734286Y-14010786D01*
X14748571Y-14039357D01*
X14762857Y-14096500D01*
X14762857Y-14167929D01*
X14748571Y-14225072D01*
X14734286Y-14253643D01*
X14720000Y-14267929D01*
X14691428Y-14282214D01*
X14662857Y-14282214D01*
X14634286Y-14267929D01*
X14620000Y-14253643D01*
X14605714Y-14225072D01*
X14591428Y-14167929D01*
X14591428Y-14096500D01*
X14605714Y-14039357D01*
X14620000Y-14010786D01*
X14634286Y-13996500D01*
X14662857Y-13982214D01*
X14891428Y-14282214D02*
X14891428Y-14082214D01*
X14891428Y-14110786D02*
X14905714Y-14096500D01*
X14934286Y-14082214D01*
X14977143Y-14082214D01*
X15005714Y-14096500D01*
X15020000Y-14125072D01*
X15020000Y-14282214D01*
X15020000Y-14125072D02*
X15034286Y-14096500D01*
X15062857Y-14082214D01*
X15105714Y-14082214D01*
X15134286Y-14096500D01*
X15148571Y-14125072D01*
X15148571Y-14282214D01*
X15291428Y-14282214D02*
X15291428Y-14082214D01*
X15291428Y-14110786D02*
X15305714Y-14096500D01*
X15334286Y-14082214D01*
X15377143Y-14082214D01*
X15405714Y-14096500D01*
X15420000Y-14125072D01*
X15420000Y-14282214D01*
X15420000Y-14125072D02*
X15434286Y-14096500D01*
X15462857Y-14082214D01*
X15505714Y-14082214D01*
X15534286Y-14096500D01*
X15548571Y-14125072D01*
X15548571Y-14282214D01*
X16134286Y-13967929D02*
X15877143Y-14353643D01*
X16520000Y-13982214D02*
X16548571Y-13982214D01*
X16577143Y-13996500D01*
X16591428Y-14010786D01*
X16605714Y-14039357D01*
X16620000Y-14096500D01*
X16620000Y-14167929D01*
X16605714Y-14225072D01*
X16591428Y-14253643D01*
X16577143Y-14267929D01*
X16548571Y-14282214D01*
X16520000Y-14282214D01*
X16491428Y-14267929D01*
X16477143Y-14253643D01*
X16462857Y-14225072D01*
X16448571Y-14167929D01*
X16448571Y-14096500D01*
X16462857Y-14039357D01*
X16477143Y-14010786D01*
X16491428Y-13996500D01*
X16520000Y-13982214D01*
X16748571Y-14253643D02*
X16762857Y-14267929D01*
X16748571Y-14282214D01*
X16734286Y-14267929D01*
X16748571Y-14253643D01*
X16748571Y-14282214D01*
X16948571Y-13982214D02*
X16977143Y-13982214D01*
X17005714Y-13996500D01*
X17020000Y-14010786D01*
X17034286Y-14039357D01*
X17048571Y-14096500D01*
X17048571Y-14167929D01*
X17034286Y-14225072D01*
X17020000Y-14253643D01*
X17005714Y-14267929D01*
X16977143Y-14282214D01*
X16948571Y-14282214D01*
X16920000Y-14267929D01*
X16905714Y-14253643D01*
X16891428Y-14225072D01*
X16877143Y-14167929D01*
X16877143Y-14096500D01*
X16891428Y-14039357D01*
X16905714Y-14010786D01*
X16920000Y-13996500D01*
X16948571Y-13982214D01*
X17148571Y-13982214D02*
X17334286Y-13982214D01*
X17234286Y-14096500D01*
X17277143Y-14096500D01*
X17305714Y-14110786D01*
X17320000Y-14125072D01*
X17334286Y-14153643D01*
X17334286Y-14225072D01*
X17320000Y-14253643D01*
X17305714Y-14267929D01*
X17277143Y-14282214D01*
X17191428Y-14282214D01*
X17162857Y-14267929D01*
X17148571Y-14253643D01*
X17477143Y-14282214D02*
X17534286Y-14282214D01*
X17562857Y-14267929D01*
X17577143Y-14253643D01*
X17605714Y-14210786D01*
X17620000Y-14153643D01*
X17620000Y-14039357D01*
X17605714Y-14010786D01*
X17591428Y-13996500D01*
X17562857Y-13982214D01*
X17505714Y-13982214D01*
X17477143Y-13996500D01*
X17462857Y-14010786D01*
X17448571Y-14039357D01*
X17448571Y-14110786D01*
X17462857Y-14139357D01*
X17477143Y-14153643D01*
X17505714Y-14167929D01*
X17562857Y-14167929D01*
X17591428Y-14153643D01*
X17605714Y-14139357D01*
X17620000Y-14110786D01*
X17734286Y-13982214D02*
X17734286Y-14039357D01*
X17848571Y-13982214D02*
X17848571Y-14039357D01*
X18291428Y-14396500D02*
X18277143Y-14382214D01*
X18248571Y-14339357D01*
X18234286Y-14310786D01*
X18220000Y-14267929D01*
X18205714Y-14196500D01*
X18205714Y-14139357D01*
X18220000Y-14067929D01*
X18234286Y-14025072D01*
X18248571Y-13996500D01*
X18277143Y-13953643D01*
X18291428Y-13939357D01*
X18391428Y-14010786D02*
X18405714Y-13996500D01*
X18434286Y-13982214D01*
X18505714Y-13982214D01*
X18534286Y-13996500D01*
X18548571Y-14010786D01*
X18562857Y-14039357D01*
X18562857Y-14067929D01*
X18548571Y-14110786D01*
X18377143Y-14282214D01*
X18562857Y-14282214D01*
X18677143Y-14010786D02*
X18691428Y-13996500D01*
X18720000Y-13982214D01*
X18791428Y-13982214D01*
X18820000Y-13996500D01*
X18834286Y-14010786D01*
X18848571Y-14039357D01*
X18848571Y-14067929D01*
X18834286Y-14110786D01*
X18662857Y-14282214D01*
X18848571Y-14282214D01*
X19205714Y-14282214D02*
X19205714Y-13982214D01*
X19334286Y-14282214D02*
X19334286Y-14125072D01*
X19320000Y-14096500D01*
X19291428Y-14082214D01*
X19248571Y-14082214D01*
X19220000Y-14096500D01*
X19205714Y-14110786D01*
X19520000Y-14282214D02*
X19491428Y-14267929D01*
X19477143Y-14253643D01*
X19462857Y-14225072D01*
X19462857Y-14139357D01*
X19477143Y-14110786D01*
X19491428Y-14096500D01*
X19520000Y-14082214D01*
X19562857Y-14082214D01*
X19591428Y-14096500D01*
X19605714Y-14110786D01*
X19620000Y-14139357D01*
X19620000Y-14225072D01*
X19605714Y-14253643D01*
X19591428Y-14267929D01*
X19562857Y-14282214D01*
X19520000Y-14282214D01*
X19791428Y-14282214D02*
X19762857Y-14267929D01*
X19748571Y-14239357D01*
X19748571Y-13982214D01*
X20020000Y-14267929D02*
X19991428Y-14282214D01*
X19934286Y-14282214D01*
X19905714Y-14267929D01*
X19891428Y-14239357D01*
X19891428Y-14125072D01*
X19905714Y-14096500D01*
X19934286Y-14082214D01*
X19991428Y-14082214D01*
X20020000Y-14096500D01*
X20034286Y-14125072D01*
X20034286Y-14153643D01*
X19891428Y-14182214D01*
X20148571Y-14267929D02*
X20177143Y-14282214D01*
X20234286Y-14282214D01*
X20262857Y-14267929D01*
X20277143Y-14239357D01*
X20277143Y-14225072D01*
X20262857Y-14196500D01*
X20234286Y-14182214D01*
X20191428Y-14182214D01*
X20162857Y-14167929D01*
X20148571Y-14139357D01*
X20148571Y-14125072D01*
X20162857Y-14096500D01*
X20191428Y-14082214D01*
X20234286Y-14082214D01*
X20262857Y-14096500D01*
X20377143Y-14396500D02*
X20391428Y-14382214D01*
X20420000Y-14339357D01*
X20434286Y-14310786D01*
X20448571Y-14267929D01*
X20462857Y-14196500D01*
X20462857Y-14139357D01*
X20448571Y-14067929D01*
X20434286Y-14025072D01*
X20420000Y-13996500D01*
X20391428Y-13953643D01*
X20377143Y-13939357D01*
X13503000Y-14491500D02*
X13605000Y-14593500D01*
X13605000Y-14491500D02*
X13503000Y-14593500D01*
X13605000Y-14542500D02*
G75*
G03*
X13605000Y-14542500I-51000J0D01*
G01*
X14048571Y-14678214D02*
X13877143Y-14678214D01*
X13962857Y-14678214D02*
X13962857Y-14378214D01*
X13934286Y-14421072D01*
X13905714Y-14449643D01*
X13877143Y-14463929D01*
X14177143Y-14649643D02*
X14191428Y-14663929D01*
X14177143Y-14678214D01*
X14162857Y-14663929D01*
X14177143Y-14649643D01*
X14177143Y-14678214D01*
X14377143Y-14378214D02*
X14405714Y-14378214D01*
X14434286Y-14392500D01*
X14448571Y-14406786D01*
X14462857Y-14435357D01*
X14477143Y-14492500D01*
X14477143Y-14563929D01*
X14462857Y-14621072D01*
X14448571Y-14649643D01*
X14434286Y-14663929D01*
X14405714Y-14678214D01*
X14377143Y-14678214D01*
X14348571Y-14663929D01*
X14334286Y-14649643D01*
X14320000Y-14621072D01*
X14305714Y-14563929D01*
X14305714Y-14492500D01*
X14320000Y-14435357D01*
X14334286Y-14406786D01*
X14348571Y-14392500D01*
X14377143Y-14378214D01*
X14591428Y-14406786D02*
X14605714Y-14392500D01*
X14634286Y-14378214D01*
X14705714Y-14378214D01*
X14734286Y-14392500D01*
X14748571Y-14406786D01*
X14762857Y-14435357D01*
X14762857Y-14463929D01*
X14748571Y-14506786D01*
X14577143Y-14678214D01*
X14762857Y-14678214D01*
X14891428Y-14678214D02*
X14891428Y-14478214D01*
X14891428Y-14506786D02*
X14905714Y-14492500D01*
X14934286Y-14478214D01*
X14977143Y-14478214D01*
X15005714Y-14492500D01*
X15020000Y-14521072D01*
X15020000Y-14678214D01*
X15020000Y-14521072D02*
X15034286Y-14492500D01*
X15062857Y-14478214D01*
X15105714Y-14478214D01*
X15134286Y-14492500D01*
X15148571Y-14521072D01*
X15148571Y-14678214D01*
X15291428Y-14678214D02*
X15291428Y-14478214D01*
X15291428Y-14506786D02*
X15305714Y-14492500D01*
X15334286Y-14478214D01*
X15377143Y-14478214D01*
X15405714Y-14492500D01*
X15420000Y-14521072D01*
X15420000Y-14678214D01*
X15420000Y-14521072D02*
X15434286Y-14492500D01*
X15462857Y-14478214D01*
X15505714Y-14478214D01*
X15534286Y-14492500D01*
X15548571Y-14521072D01*
X15548571Y-14678214D01*
X16134286Y-14363929D02*
X15877143Y-14749643D01*
X16520000Y-14378214D02*
X16548571Y-14378214D01*
X16577143Y-14392500D01*
X16591428Y-14406786D01*
X16605714Y-14435357D01*
X16620000Y-14492500D01*
X16620000Y-14563929D01*
X16605714Y-14621072D01*
X16591428Y-14649643D01*
X16577143Y-14663929D01*
X16548571Y-14678214D01*
X16520000Y-14678214D01*
X16491428Y-14663929D01*
X16477143Y-14649643D01*
X16462857Y-14621072D01*
X16448571Y-14563929D01*
X16448571Y-14492500D01*
X16462857Y-14435357D01*
X16477143Y-14406786D01*
X16491428Y-14392500D01*
X16520000Y-14378214D01*
X16748571Y-14649643D02*
X16762857Y-14663929D01*
X16748571Y-14678214D01*
X16734286Y-14663929D01*
X16748571Y-14649643D01*
X16748571Y-14678214D01*
X16948571Y-14378214D02*
X16977143Y-14378214D01*
X17005714Y-14392500D01*
X17020000Y-14406786D01*
X17034286Y-14435357D01*
X17048571Y-14492500D01*
X17048571Y-14563929D01*
X17034286Y-14621072D01*
X17020000Y-14649643D01*
X17005714Y-14663929D01*
X16977143Y-14678214D01*
X16948571Y-14678214D01*
X16920000Y-14663929D01*
X16905714Y-14649643D01*
X16891428Y-14621072D01*
X16877143Y-14563929D01*
X16877143Y-14492500D01*
X16891428Y-14435357D01*
X16905714Y-14406786D01*
X16920000Y-14392500D01*
X16948571Y-14378214D01*
X17305714Y-14478214D02*
X17305714Y-14678214D01*
X17234286Y-14363929D02*
X17162857Y-14578214D01*
X17348571Y-14578214D01*
X17520000Y-14378214D02*
X17548571Y-14378214D01*
X17577143Y-14392500D01*
X17591428Y-14406786D01*
X17605714Y-14435357D01*
X17620000Y-14492500D01*
X17620000Y-14563929D01*
X17605714Y-14621072D01*
X17591428Y-14649643D01*
X17577143Y-14663929D01*
X17548571Y-14678214D01*
X17520000Y-14678214D01*
X17491428Y-14663929D01*
X17477143Y-14649643D01*
X17462857Y-14621072D01*
X17448571Y-14563929D01*
X17448571Y-14492500D01*
X17462857Y-14435357D01*
X17477143Y-14406786D01*
X17491428Y-14392500D01*
X17520000Y-14378214D01*
X17734286Y-14378214D02*
X17734286Y-14435357D01*
X17848571Y-14378214D02*
X17848571Y-14435357D01*
X18291428Y-14792500D02*
X18277143Y-14778214D01*
X18248571Y-14735357D01*
X18234286Y-14706786D01*
X18220000Y-14663929D01*
X18205714Y-14592500D01*
X18205714Y-14535357D01*
X18220000Y-14463929D01*
X18234286Y-14421072D01*
X18248571Y-14392500D01*
X18277143Y-14349643D01*
X18291428Y-14335357D01*
X18534286Y-14478214D02*
X18534286Y-14678214D01*
X18462857Y-14363929D02*
X18391428Y-14578214D01*
X18577143Y-14578214D01*
X18662857Y-14378214D02*
X18848571Y-14378214D01*
X18748571Y-14492500D01*
X18791428Y-14492500D01*
X18820000Y-14506786D01*
X18834286Y-14521072D01*
X18848571Y-14549643D01*
X18848571Y-14621072D01*
X18834286Y-14649643D01*
X18820000Y-14663929D01*
X18791428Y-14678214D01*
X18705714Y-14678214D01*
X18677143Y-14663929D01*
X18662857Y-14649643D01*
X19205714Y-14678214D02*
X19205714Y-14378214D01*
X19334286Y-14678214D02*
X19334286Y-14521072D01*
X19320000Y-14492500D01*
X19291428Y-14478214D01*
X19248571Y-14478214D01*
X19220000Y-14492500D01*
X19205714Y-14506786D01*
X19520000Y-14678214D02*
X19491428Y-14663929D01*
X19477143Y-14649643D01*
X19462857Y-14621072D01*
X19462857Y-14535357D01*
X19477143Y-14506786D01*
X19491428Y-14492500D01*
X19520000Y-14478214D01*
X19562857Y-14478214D01*
X19591428Y-14492500D01*
X19605714Y-14506786D01*
X19620000Y-14535357D01*
X19620000Y-14621072D01*
X19605714Y-14649643D01*
X19591428Y-14663929D01*
X19562857Y-14678214D01*
X19520000Y-14678214D01*
X19791428Y-14678214D02*
X19762857Y-14663929D01*
X19748571Y-14635357D01*
X19748571Y-14378214D01*
X20020000Y-14663929D02*
X19991428Y-14678214D01*
X19934286Y-14678214D01*
X19905714Y-14663929D01*
X19891428Y-14635357D01*
X19891428Y-14521072D01*
X19905714Y-14492500D01*
X19934286Y-14478214D01*
X19991428Y-14478214D01*
X20020000Y-14492500D01*
X20034286Y-14521072D01*
X20034286Y-14549643D01*
X19891428Y-14578214D01*
X20148571Y-14663929D02*
X20177143Y-14678214D01*
X20234286Y-14678214D01*
X20262857Y-14663929D01*
X20277143Y-14635357D01*
X20277143Y-14621072D01*
X20262857Y-14592500D01*
X20234286Y-14578214D01*
X20191428Y-14578214D01*
X20162857Y-14563929D01*
X20148571Y-14535357D01*
X20148571Y-14521072D01*
X20162857Y-14492500D01*
X20191428Y-14478214D01*
X20234286Y-14478214D01*
X20262857Y-14492500D01*
X20377143Y-14792500D02*
X20391428Y-14778214D01*
X20420000Y-14735357D01*
X20434286Y-14706786D01*
X20448571Y-14663929D01*
X20462857Y-14592500D01*
X20462857Y-14535357D01*
X20448571Y-14463929D01*
X20434286Y-14421072D01*
X20420000Y-14392500D01*
X20391428Y-14349643D01*
X20377143Y-14335357D01*
X13465000Y-14868500D02*
X13605000Y-15008500D01*
X13605000Y-14868500D02*
X13465000Y-15008500D01*
X13535000Y-14868500D02*
X13535000Y-15008500D01*
X13465000Y-14938500D02*
X13605000Y-14938500D01*
X14048571Y-15074214D02*
X13877143Y-15074214D01*
X13962857Y-15074214D02*
X13962857Y-14774214D01*
X13934286Y-14817072D01*
X13905714Y-14845643D01*
X13877143Y-14859929D01*
X14177143Y-15045643D02*
X14191428Y-15059929D01*
X14177143Y-15074214D01*
X14162857Y-15059929D01*
X14177143Y-15045643D01*
X14177143Y-15074214D01*
X14448571Y-14874214D02*
X14448571Y-15074214D01*
X14377143Y-14759929D02*
X14305714Y-14974214D01*
X14491428Y-14974214D01*
X14662857Y-14774214D02*
X14691428Y-14774214D01*
X14720000Y-14788500D01*
X14734286Y-14802786D01*
X14748571Y-14831357D01*
X14762857Y-14888500D01*
X14762857Y-14959929D01*
X14748571Y-15017072D01*
X14734286Y-15045643D01*
X14720000Y-15059929D01*
X14691428Y-15074214D01*
X14662857Y-15074214D01*
X14634286Y-15059929D01*
X14620000Y-15045643D01*
X14605714Y-15017072D01*
X14591428Y-14959929D01*
X14591428Y-14888500D01*
X14605714Y-14831357D01*
X14620000Y-14802786D01*
X14634286Y-14788500D01*
X14662857Y-14774214D01*
X14891428Y-15074214D02*
X14891428Y-14874214D01*
X14891428Y-14902786D02*
X14905714Y-14888500D01*
X14934286Y-14874214D01*
X14977143Y-14874214D01*
X15005714Y-14888500D01*
X15020000Y-14917072D01*
X15020000Y-15074214D01*
X15020000Y-14917072D02*
X15034286Y-14888500D01*
X15062857Y-14874214D01*
X15105714Y-14874214D01*
X15134286Y-14888500D01*
X15148571Y-14917072D01*
X15148571Y-15074214D01*
X15291428Y-15074214D02*
X15291428Y-14874214D01*
X15291428Y-14902786D02*
X15305714Y-14888500D01*
X15334286Y-14874214D01*
X15377143Y-14874214D01*
X15405714Y-14888500D01*
X15420000Y-14917072D01*
X15420000Y-15074214D01*
X15420000Y-14917072D02*
X15434286Y-14888500D01*
X15462857Y-14874214D01*
X15505714Y-14874214D01*
X15534286Y-14888500D01*
X15548571Y-14917072D01*
X15548571Y-15074214D01*
X16134286Y-14759929D02*
X15877143Y-15145643D01*
X16520000Y-14774214D02*
X16548571Y-14774214D01*
X16577143Y-14788500D01*
X16591428Y-14802786D01*
X16605714Y-14831357D01*
X16620000Y-14888500D01*
X16620000Y-14959929D01*
X16605714Y-15017072D01*
X16591428Y-15045643D01*
X16577143Y-15059929D01*
X16548571Y-15074214D01*
X16520000Y-15074214D01*
X16491428Y-15059929D01*
X16477143Y-15045643D01*
X16462857Y-15017072D01*
X16448571Y-14959929D01*
X16448571Y-14888500D01*
X16462857Y-14831357D01*
X16477143Y-14802786D01*
X16491428Y-14788500D01*
X16520000Y-14774214D01*
X16748571Y-15045643D02*
X16762857Y-15059929D01*
X16748571Y-15074214D01*
X16734286Y-15059929D01*
X16748571Y-15045643D01*
X16748571Y-15074214D01*
X16948571Y-14774214D02*
X16977143Y-14774214D01*
X17005714Y-14788500D01*
X17020000Y-14802786D01*
X17034286Y-14831357D01*
X17048571Y-14888500D01*
X17048571Y-14959929D01*
X17034286Y-15017072D01*
X17020000Y-15045643D01*
X17005714Y-15059929D01*
X16977143Y-15074214D01*
X16948571Y-15074214D01*
X16920000Y-15059929D01*
X16905714Y-15045643D01*
X16891428Y-15017072D01*
X16877143Y-14959929D01*
X16877143Y-14888500D01*
X16891428Y-14831357D01*
X16905714Y-14802786D01*
X16920000Y-14788500D01*
X16948571Y-14774214D01*
X17320000Y-14774214D02*
X17177143Y-14774214D01*
X17162857Y-14917072D01*
X17177143Y-14902786D01*
X17205714Y-14888500D01*
X17277143Y-14888500D01*
X17305714Y-14902786D01*
X17320000Y-14917072D01*
X17334286Y-14945643D01*
X17334286Y-15017072D01*
X17320000Y-15045643D01*
X17305714Y-15059929D01*
X17277143Y-15074214D01*
X17205714Y-15074214D01*
X17177143Y-15059929D01*
X17162857Y-15045643D01*
X17605714Y-14774214D02*
X17462857Y-14774214D01*
X17448571Y-14917072D01*
X17462857Y-14902786D01*
X17491428Y-14888500D01*
X17562857Y-14888500D01*
X17591428Y-14902786D01*
X17605714Y-14917072D01*
X17620000Y-14945643D01*
X17620000Y-15017072D01*
X17605714Y-15045643D01*
X17591428Y-15059929D01*
X17562857Y-15074214D01*
X17491428Y-15074214D01*
X17462857Y-15059929D01*
X17448571Y-15045643D01*
X17734286Y-14774214D02*
X17734286Y-14831357D01*
X17848571Y-14774214D02*
X17848571Y-14831357D01*
X18291428Y-15188500D02*
X18277143Y-15174214D01*
X18248571Y-15131357D01*
X18234286Y-15102786D01*
X18220000Y-15059929D01*
X18205714Y-14988500D01*
X18205714Y-14931357D01*
X18220000Y-14859929D01*
X18234286Y-14817072D01*
X18248571Y-14788500D01*
X18277143Y-14745643D01*
X18291428Y-14731357D01*
X18548571Y-14774214D02*
X18405714Y-14774214D01*
X18391428Y-14917072D01*
X18405714Y-14902786D01*
X18434286Y-14888500D01*
X18505714Y-14888500D01*
X18534286Y-14902786D01*
X18548571Y-14917072D01*
X18562857Y-14945643D01*
X18562857Y-15017072D01*
X18548571Y-15045643D01*
X18534286Y-15059929D01*
X18505714Y-15074214D01*
X18434286Y-15074214D01*
X18405714Y-15059929D01*
X18391428Y-15045643D01*
X18920000Y-15074214D02*
X18920000Y-14774214D01*
X19048571Y-15074214D02*
X19048571Y-14917072D01*
X19034286Y-14888500D01*
X19005714Y-14874214D01*
X18962857Y-14874214D01*
X18934286Y-14888500D01*
X18920000Y-14902786D01*
X19234286Y-15074214D02*
X19205714Y-15059929D01*
X19191428Y-15045643D01*
X19177143Y-15017072D01*
X19177143Y-14931357D01*
X19191428Y-14902786D01*
X19205714Y-14888500D01*
X19234286Y-14874214D01*
X19277143Y-14874214D01*
X19305714Y-14888500D01*
X19320000Y-14902786D01*
X19334286Y-14931357D01*
X19334286Y-15017072D01*
X19320000Y-15045643D01*
X19305714Y-15059929D01*
X19277143Y-15074214D01*
X19234286Y-15074214D01*
X19505714Y-15074214D02*
X19477143Y-15059929D01*
X19462857Y-15031357D01*
X19462857Y-14774214D01*
X19734286Y-15059929D02*
X19705714Y-15074214D01*
X19648571Y-15074214D01*
X19620000Y-15059929D01*
X19605714Y-15031357D01*
X19605714Y-14917072D01*
X19620000Y-14888500D01*
X19648571Y-14874214D01*
X19705714Y-14874214D01*
X19734286Y-14888500D01*
X19748571Y-14917072D01*
X19748571Y-14945643D01*
X19605714Y-14974214D01*
X19862857Y-15059929D02*
X19891428Y-15074214D01*
X19948571Y-15074214D01*
X19977143Y-15059929D01*
X19991428Y-15031357D01*
X19991428Y-15017072D01*
X19977143Y-14988500D01*
X19948571Y-14974214D01*
X19905714Y-14974214D01*
X19877143Y-14959929D01*
X19862857Y-14931357D01*
X19862857Y-14917072D01*
X19877143Y-14888500D01*
X19905714Y-14874214D01*
X19948571Y-14874214D01*
X19977143Y-14888500D01*
X20091428Y-15188500D02*
X20105714Y-15174214D01*
X20134286Y-15131357D01*
X20148571Y-15102786D01*
X20162857Y-15059929D01*
X20177143Y-14988500D01*
X20177143Y-14931357D01*
X20162857Y-14859929D01*
X20148571Y-14817072D01*
X20134286Y-14788500D01*
X20105714Y-14745643D01*
X20091428Y-14731357D01*
X13448000Y-15256000D02*
X13605000Y-15413000D01*
X13605000Y-15256000D02*
X13448000Y-15413000D01*
X13582008Y-15390009D02*
X13582008Y-15278992D01*
X13470991Y-15278992D01*
X13470991Y-15390009D01*
X13582008Y-15390009D01*
X14048571Y-15470214D02*
X13877143Y-15470214D01*
X13962857Y-15470214D02*
X13962857Y-15170214D01*
X13934286Y-15213072D01*
X13905714Y-15241643D01*
X13877143Y-15255929D01*
X14177143Y-15441643D02*
X14191428Y-15455929D01*
X14177143Y-15470214D01*
X14162857Y-15455929D01*
X14177143Y-15441643D01*
X14177143Y-15470214D01*
X14462857Y-15170214D02*
X14320000Y-15170214D01*
X14305714Y-15313072D01*
X14320000Y-15298786D01*
X14348571Y-15284500D01*
X14420000Y-15284500D01*
X14448571Y-15298786D01*
X14462857Y-15313072D01*
X14477143Y-15341643D01*
X14477143Y-15413072D01*
X14462857Y-15441643D01*
X14448571Y-15455929D01*
X14420000Y-15470214D01*
X14348571Y-15470214D01*
X14320000Y-15455929D01*
X14305714Y-15441643D01*
X14577143Y-15170214D02*
X14777143Y-15170214D01*
X14648571Y-15470214D01*
X14891428Y-15470214D02*
X14891428Y-15270214D01*
X14891428Y-15298786D02*
X14905714Y-15284500D01*
X14934286Y-15270214D01*
X14977143Y-15270214D01*
X15005714Y-15284500D01*
X15020000Y-15313072D01*
X15020000Y-15470214D01*
X15020000Y-15313072D02*
X15034286Y-15284500D01*
X15062857Y-15270214D01*
X15105714Y-15270214D01*
X15134286Y-15284500D01*
X15148571Y-15313072D01*
X15148571Y-15470214D01*
X15291428Y-15470214D02*
X15291428Y-15270214D01*
X15291428Y-15298786D02*
X15305714Y-15284500D01*
X15334286Y-15270214D01*
X15377143Y-15270214D01*
X15405714Y-15284500D01*
X15420000Y-15313072D01*
X15420000Y-15470214D01*
X15420000Y-15313072D02*
X15434286Y-15284500D01*
X15462857Y-15270214D01*
X15505714Y-15270214D01*
X15534286Y-15284500D01*
X15548571Y-15313072D01*
X15548571Y-15470214D01*
X16134286Y-15155929D02*
X15877143Y-15541643D01*
X16520000Y-15170214D02*
X16548571Y-15170214D01*
X16577143Y-15184500D01*
X16591428Y-15198786D01*
X16605714Y-15227357D01*
X16620000Y-15284500D01*
X16620000Y-15355929D01*
X16605714Y-15413072D01*
X16591428Y-15441643D01*
X16577143Y-15455929D01*
X16548571Y-15470214D01*
X16520000Y-15470214D01*
X16491428Y-15455929D01*
X16477143Y-15441643D01*
X16462857Y-15413072D01*
X16448571Y-15355929D01*
X16448571Y-15284500D01*
X16462857Y-15227357D01*
X16477143Y-15198786D01*
X16491428Y-15184500D01*
X16520000Y-15170214D01*
X16748571Y-15441643D02*
X16762857Y-15455929D01*
X16748571Y-15470214D01*
X16734286Y-15455929D01*
X16748571Y-15441643D01*
X16748571Y-15470214D01*
X16948571Y-15170214D02*
X16977143Y-15170214D01*
X17005714Y-15184500D01*
X17020000Y-15198786D01*
X17034286Y-15227357D01*
X17048571Y-15284500D01*
X17048571Y-15355929D01*
X17034286Y-15413072D01*
X17020000Y-15441643D01*
X17005714Y-15455929D01*
X16977143Y-15470214D01*
X16948571Y-15470214D01*
X16920000Y-15455929D01*
X16905714Y-15441643D01*
X16891428Y-15413072D01*
X16877143Y-15355929D01*
X16877143Y-15284500D01*
X16891428Y-15227357D01*
X16905714Y-15198786D01*
X16920000Y-15184500D01*
X16948571Y-15170214D01*
X17305714Y-15170214D02*
X17248571Y-15170214D01*
X17220000Y-15184500D01*
X17205714Y-15198786D01*
X17177143Y-15241643D01*
X17162857Y-15298786D01*
X17162857Y-15413072D01*
X17177143Y-15441643D01*
X17191428Y-15455929D01*
X17220000Y-15470214D01*
X17277143Y-15470214D01*
X17305714Y-15455929D01*
X17320000Y-15441643D01*
X17334286Y-15413072D01*
X17334286Y-15341643D01*
X17320000Y-15313072D01*
X17305714Y-15298786D01*
X17277143Y-15284500D01*
X17220000Y-15284500D01*
X17191428Y-15298786D01*
X17177143Y-15313072D01*
X17162857Y-15341643D01*
X17448571Y-15198786D02*
X17462857Y-15184500D01*
X17491428Y-15170214D01*
X17562857Y-15170214D01*
X17591428Y-15184500D01*
X17605714Y-15198786D01*
X17620000Y-15227357D01*
X17620000Y-15255929D01*
X17605714Y-15298786D01*
X17434286Y-15470214D01*
X17620000Y-15470214D01*
X17734286Y-15170214D02*
X17734286Y-15227357D01*
X17848571Y-15170214D02*
X17848571Y-15227357D01*
X18291428Y-15584500D02*
X18277143Y-15570214D01*
X18248571Y-15527357D01*
X18234286Y-15498786D01*
X18220000Y-15455929D01*
X18205714Y-15384500D01*
X18205714Y-15327357D01*
X18220000Y-15255929D01*
X18234286Y-15213072D01*
X18248571Y-15184500D01*
X18277143Y-15141643D01*
X18291428Y-15127357D01*
X18534286Y-15270214D02*
X18534286Y-15470214D01*
X18462857Y-15155929D02*
X18391428Y-15370214D01*
X18577143Y-15370214D01*
X18920000Y-15470214D02*
X18920000Y-15170214D01*
X19048571Y-15470214D02*
X19048571Y-15313072D01*
X19034286Y-15284500D01*
X19005714Y-15270214D01*
X18962857Y-15270214D01*
X18934286Y-15284500D01*
X18920000Y-15298786D01*
X19234286Y-15470214D02*
X19205714Y-15455929D01*
X19191428Y-15441643D01*
X19177143Y-15413072D01*
X19177143Y-15327357D01*
X19191428Y-15298786D01*
X19205714Y-15284500D01*
X19234286Y-15270214D01*
X19277143Y-15270214D01*
X19305714Y-15284500D01*
X19320000Y-15298786D01*
X19334286Y-15327357D01*
X19334286Y-15413072D01*
X19320000Y-15441643D01*
X19305714Y-15455929D01*
X19277143Y-15470214D01*
X19234286Y-15470214D01*
X19505714Y-15470214D02*
X19477143Y-15455929D01*
X19462857Y-15427357D01*
X19462857Y-15170214D01*
X19734286Y-15455929D02*
X19705714Y-15470214D01*
X19648571Y-15470214D01*
X19620000Y-15455929D01*
X19605714Y-15427357D01*
X19605714Y-15313072D01*
X19620000Y-15284500D01*
X19648571Y-15270214D01*
X19705714Y-15270214D01*
X19734286Y-15284500D01*
X19748571Y-15313072D01*
X19748571Y-15341643D01*
X19605714Y-15370214D01*
X19862857Y-15455929D02*
X19891428Y-15470214D01*
X19948571Y-15470214D01*
X19977143Y-15455929D01*
X19991428Y-15427357D01*
X19991428Y-15413072D01*
X19977143Y-15384500D01*
X19948571Y-15370214D01*
X19905714Y-15370214D01*
X19877143Y-15355929D01*
X19862857Y-15327357D01*
X19862857Y-15313072D01*
X19877143Y-15284500D01*
X19905714Y-15270214D01*
X19948571Y-15270214D01*
X19977143Y-15284500D01*
X20091428Y-15584500D02*
X20105714Y-15570214D01*
X20134286Y-15527357D01*
X20148571Y-15498786D01*
X20162857Y-15455929D01*
X20177143Y-15384500D01*
X20177143Y-15327357D01*
X20162857Y-15255929D01*
X20148571Y-15213072D01*
X20134286Y-15184500D01*
X20105714Y-15141643D01*
X20091428Y-15127357D01*
X13285000Y-15570500D02*
X13605000Y-15890500D01*
X13605000Y-15570500D02*
X13285000Y-15890500D01*
X13445000Y-15890500D02*
X13605000Y-15730500D01*
X13445000Y-15570500D01*
X13285000Y-15730500D01*
X13445000Y-15890500D01*
X13862857Y-15566214D02*
X14048571Y-15566214D01*
X13948571Y-15680500D01*
X13991428Y-15680500D01*
X14020000Y-15694786D01*
X14034286Y-15709072D01*
X14048571Y-15737643D01*
X14048571Y-15809072D01*
X14034286Y-15837643D01*
X14020000Y-15851929D01*
X13991428Y-15866214D01*
X13905714Y-15866214D01*
X13877143Y-15851929D01*
X13862857Y-15837643D01*
X14177143Y-15837643D02*
X14191428Y-15851929D01*
X14177143Y-15866214D01*
X14162857Y-15851929D01*
X14177143Y-15837643D01*
X14177143Y-15866214D01*
X14305714Y-15594786D02*
X14320000Y-15580500D01*
X14348571Y-15566214D01*
X14420000Y-15566214D01*
X14448571Y-15580500D01*
X14462857Y-15594786D01*
X14477143Y-15623357D01*
X14477143Y-15651929D01*
X14462857Y-15694786D01*
X14291428Y-15866214D01*
X14477143Y-15866214D01*
X14662857Y-15566214D02*
X14691428Y-15566214D01*
X14720000Y-15580500D01*
X14734286Y-15594786D01*
X14748571Y-15623357D01*
X14762857Y-15680500D01*
X14762857Y-15751929D01*
X14748571Y-15809072D01*
X14734286Y-15837643D01*
X14720000Y-15851929D01*
X14691428Y-15866214D01*
X14662857Y-15866214D01*
X14634286Y-15851929D01*
X14620000Y-15837643D01*
X14605714Y-15809072D01*
X14591428Y-15751929D01*
X14591428Y-15680500D01*
X14605714Y-15623357D01*
X14620000Y-15594786D01*
X14634286Y-15580500D01*
X14662857Y-15566214D01*
X14891428Y-15866214D02*
X14891428Y-15666214D01*
X14891428Y-15694786D02*
X14905714Y-15680500D01*
X14934286Y-15666214D01*
X14977143Y-15666214D01*
X15005714Y-15680500D01*
X15020000Y-15709072D01*
X15020000Y-15866214D01*
X15020000Y-15709072D02*
X15034286Y-15680500D01*
X15062857Y-15666214D01*
X15105714Y-15666214D01*
X15134286Y-15680500D01*
X15148571Y-15709072D01*
X15148571Y-15866214D01*
X15291428Y-15866214D02*
X15291428Y-15666214D01*
X15291428Y-15694786D02*
X15305714Y-15680500D01*
X15334286Y-15666214D01*
X15377143Y-15666214D01*
X15405714Y-15680500D01*
X15420000Y-15709072D01*
X15420000Y-15866214D01*
X15420000Y-15709072D02*
X15434286Y-15680500D01*
X15462857Y-15666214D01*
X15505714Y-15666214D01*
X15534286Y-15680500D01*
X15548571Y-15709072D01*
X15548571Y-15866214D01*
X16134286Y-15551929D02*
X15877143Y-15937643D01*
X16520000Y-15566214D02*
X16548571Y-15566214D01*
X16577143Y-15580500D01*
X16591428Y-15594786D01*
X16605714Y-15623357D01*
X16620000Y-15680500D01*
X16620000Y-15751929D01*
X16605714Y-15809072D01*
X16591428Y-15837643D01*
X16577143Y-15851929D01*
X16548571Y-15866214D01*
X16520000Y-15866214D01*
X16491428Y-15851929D01*
X16477143Y-15837643D01*
X16462857Y-15809072D01*
X16448571Y-15751929D01*
X16448571Y-15680500D01*
X16462857Y-15623357D01*
X16477143Y-15594786D01*
X16491428Y-15580500D01*
X16520000Y-15566214D01*
X16748571Y-15837643D02*
X16762857Y-15851929D01*
X16748571Y-15866214D01*
X16734286Y-15851929D01*
X16748571Y-15837643D01*
X16748571Y-15866214D01*
X17048571Y-15866214D02*
X16877143Y-15866214D01*
X16962857Y-15866214D02*
X16962857Y-15566214D01*
X16934286Y-15609072D01*
X16905714Y-15637643D01*
X16877143Y-15651929D01*
X17162857Y-15594786D02*
X17177143Y-15580500D01*
X17205714Y-15566214D01*
X17277143Y-15566214D01*
X17305714Y-15580500D01*
X17320000Y-15594786D01*
X17334286Y-15623357D01*
X17334286Y-15651929D01*
X17320000Y-15694786D01*
X17148571Y-15866214D01*
X17334286Y-15866214D01*
X17591428Y-15566214D02*
X17534286Y-15566214D01*
X17505714Y-15580500D01*
X17491428Y-15594786D01*
X17462857Y-15637643D01*
X17448571Y-15694786D01*
X17448571Y-15809072D01*
X17462857Y-15837643D01*
X17477143Y-15851929D01*
X17505714Y-15866214D01*
X17562857Y-15866214D01*
X17591428Y-15851929D01*
X17605714Y-15837643D01*
X17620000Y-15809072D01*
X17620000Y-15737643D01*
X17605714Y-15709072D01*
X17591428Y-15694786D01*
X17562857Y-15680500D01*
X17505714Y-15680500D01*
X17477143Y-15694786D01*
X17462857Y-15709072D01*
X17448571Y-15737643D01*
X17734286Y-15566214D02*
X17734286Y-15623357D01*
X17848571Y-15566214D02*
X17848571Y-15623357D01*
X18291428Y-15980500D02*
X18277143Y-15966214D01*
X18248571Y-15923357D01*
X18234286Y-15894786D01*
X18220000Y-15851929D01*
X18205714Y-15780500D01*
X18205714Y-15723357D01*
X18220000Y-15651929D01*
X18234286Y-15609072D01*
X18248571Y-15580500D01*
X18277143Y-15537643D01*
X18291428Y-15523357D01*
X18391428Y-15594786D02*
X18405714Y-15580500D01*
X18434286Y-15566214D01*
X18505714Y-15566214D01*
X18534286Y-15580500D01*
X18548571Y-15594786D01*
X18562857Y-15623357D01*
X18562857Y-15651929D01*
X18548571Y-15694786D01*
X18377143Y-15866214D01*
X18562857Y-15866214D01*
X18920000Y-15866214D02*
X18920000Y-15566214D01*
X19048571Y-15866214D02*
X19048571Y-15709072D01*
X19034286Y-15680500D01*
X19005714Y-15666214D01*
X18962857Y-15666214D01*
X18934286Y-15680500D01*
X18920000Y-15694786D01*
X19234286Y-15866214D02*
X19205714Y-15851929D01*
X19191428Y-15837643D01*
X19177143Y-15809072D01*
X19177143Y-15723357D01*
X19191428Y-15694786D01*
X19205714Y-15680500D01*
X19234286Y-15666214D01*
X19277143Y-15666214D01*
X19305714Y-15680500D01*
X19320000Y-15694786D01*
X19334286Y-15723357D01*
X19334286Y-15809072D01*
X19320000Y-15837643D01*
X19305714Y-15851929D01*
X19277143Y-15866214D01*
X19234286Y-15866214D01*
X19505714Y-15866214D02*
X19477143Y-15851929D01*
X19462857Y-15823357D01*
X19462857Y-15566214D01*
X19734286Y-15851929D02*
X19705714Y-15866214D01*
X19648571Y-15866214D01*
X19620000Y-15851929D01*
X19605714Y-15823357D01*
X19605714Y-15709072D01*
X19620000Y-15680500D01*
X19648571Y-15666214D01*
X19705714Y-15666214D01*
X19734286Y-15680500D01*
X19748571Y-15709072D01*
X19748571Y-15737643D01*
X19605714Y-15766214D01*
X19862857Y-15851929D02*
X19891428Y-15866214D01*
X19948571Y-15866214D01*
X19977143Y-15851929D01*
X19991428Y-15823357D01*
X19991428Y-15809072D01*
X19977143Y-15780500D01*
X19948571Y-15766214D01*
X19905714Y-15766214D01*
X19877143Y-15751929D01*
X19862857Y-15723357D01*
X19862857Y-15709072D01*
X19877143Y-15680500D01*
X19905714Y-15666214D01*
X19948571Y-15666214D01*
X19977143Y-15680500D01*
X20091428Y-15980500D02*
X20105714Y-15966214D01*
X20134286Y-15923357D01*
X20148571Y-15894786D01*
X20162857Y-15851929D01*
X20177143Y-15780500D01*
X20177143Y-15723357D01*
X20162857Y-15651929D01*
X20148571Y-15609072D01*
X20134286Y-15580500D01*
X20105714Y-15537643D01*
X20091428Y-15523357D01*
M02*
