M48
; DRILL file {KiCad 5.1.9+dfsg1-1+deb11u1} date Wed Oct 19 16:44:58 2022
; FORMAT={-:-/ absolute / metric / decimal}
; #@! TF.CreationDate,2022-10-19T16:44:58+02:00
; #@! TF.GenerationSoftware,Kicad,Pcbnew,5.1.9+dfsg1-1+deb11u1
; #@! TF.FileFunction,Plated,1,4,PTH
FMAT,2
METRIC
T1C0.300
T2C0.400
T3C0.500
T4C0.890
T5C1.000
T6C1.020
T7C1.400
T8C1.570
T9C3.200
%
G90
G05
T1
X136.825Y-47.25
X136.825Y-50.25
X136.825Y-53.25
X136.825Y-56.25
X136.825Y-59.25
X136.825Y-62.25
X136.825Y-65.25
X136.825Y-68.25
X136.825Y-71.25
X136.825Y-74.25
X136.825Y-77.25
X136.825Y-80.25
X136.825Y-83.25
X136.825Y-86.25
X136.825Y-89.25
X136.825Y-92.25
X136.825Y-95.25
X136.825Y-98.25
X136.825Y-101.25
X136.825Y-104.25
X136.825Y-107.25
X136.825Y-110.25
X136.825Y-113.25
X137.575Y-114.75
X139.825Y-46.25
X139.825Y-115.25
X140.075Y-88.0
X141.075Y-78.5
X142.725Y-73.5
X142.825Y-46.25
X142.825Y-115.25
X143.325Y-78.5
X144.325Y-88.0
X145.575Y-78.5
X145.825Y-46.25
X145.825Y-115.25
X148.075Y-78.5
X148.325Y-73.0
X148.825Y-46.25
X148.825Y-115.25
X149.075Y-88.0
X149.575Y-62.5
X149.575Y-68.75
X150.405Y-90.22
X150.825Y-78.5
X151.809Y-55.142
X151.825Y-46.25
X151.825Y-115.25
X152.809Y-54.142
X153.325Y-78.5
X153.645Y-71.17
X154.325Y-88.0
X154.645Y-70.17
X154.825Y-46.25
X154.825Y-115.25
X155.825Y-78.5
X156.085Y-89.23
X157.075Y-62.5
X157.075Y-68.75
X157.825Y-46.25
X157.825Y-115.25
X158.325Y-78.5
X159.075Y-88.0
X160.075Y-72.25
X160.825Y-46.25
X160.825Y-115.25
X161.015Y-51.47
X161.075Y-65.75
X161.425Y-59.62
X161.974Y-82.01
X162.075Y-101.0
X162.974Y-81.01
X163.275Y-85.2
X163.825Y-46.25
X163.825Y-115.25
X164.325Y-88.5
X165.075Y-93.0
X165.075Y-97.5
X165.075Y-101.5
X165.075Y-109.25
X165.075Y-112.5
X166.075Y-86.5
X166.825Y-46.25
X166.825Y-115.25
X167.325Y-89.25
X168.35Y-83.175
X169.825Y-46.25
X169.825Y-83.5
X169.825Y-115.25
X169.875Y-89.25
X169.975Y-75.89
X170.25Y-82.4
X170.315Y-80.77
X172.145Y-49.35
X172.225Y-68.97
X172.325Y-83.5
X172.575Y-80.25
X172.575Y-89.5
X172.825Y-46.25
X172.825Y-115.25
X174.055Y-76.67
X174.705Y-68.97
X174.735Y-49.33
X175.445Y-80.99
X175.825Y-46.25
X175.825Y-87.0
X175.825Y-88.5
X175.825Y-90.0
X175.825Y-91.5
X175.825Y-93.0
X175.825Y-94.5
X175.825Y-96.0
X175.825Y-97.5
X175.825Y-99.0
X175.825Y-100.5
X175.825Y-102.0
X175.825Y-103.5
X175.825Y-105.0
X175.825Y-106.5
X175.825Y-108.0
X175.825Y-109.5
X175.825Y-111.0
X175.825Y-112.5
X175.825Y-114.0
X175.825Y-115.25
X176.325Y-85.75
X177.275Y-49.32
X177.575Y-85.25
X178.325Y-95.95
X178.325Y-97.45
X178.325Y-98.95
X178.325Y-100.45
X178.325Y-101.95
X178.325Y-103.5
X178.325Y-105.0
X178.325Y-106.5
X178.325Y-108.0
X178.325Y-109.5
X178.325Y-111.0
X178.325Y-112.5
X178.325Y-114.0
X178.325Y-115.25
X178.575Y-94.45
X178.825Y-46.25
X179.075Y-85.25
X179.575Y-93.5
X179.825Y-115.25
X179.875Y-49.35
X180.135Y-69.0
X180.575Y-85.25
X181.075Y-93.25
X181.325Y-115.25
X181.825Y-46.25
X182.025Y-79.85
X182.025Y-98.85
X182.455Y-49.32
X182.825Y-115.25
X183.195Y-103.44
X183.625Y-79.85
X184.325Y-115.25
X184.825Y-46.25
X184.895Y-69.06
X184.945Y-49.35
X185.825Y-115.25
X186.135Y-96.88
X187.325Y-115.25
X187.435Y-69.11
X187.475Y-49.35
X187.62Y-98.0
X187.825Y-46.25
X188.415Y-102.16
X188.575Y-97.29
X188.825Y-115.25
X189.215Y-96.4
X190.005Y-80.31
X190.045Y-49.39
X190.055Y-69.0
X190.325Y-115.25
X190.825Y-46.25
X191.615Y-80.3
X191.825Y-115.25
X192.325Y-93.25
X192.435Y-49.4
X192.505Y-69.14
X192.575Y-85.25
X193.05Y-105.0
X193.075Y-104.0
X193.325Y-115.25
X193.575Y-93.25
X193.825Y-46.25
X194.825Y-85.25
X194.825Y-115.25
X195.015Y-69.06
X195.075Y-93.25
X195.155Y-101.5
X196.325Y-96.0
X196.325Y-115.25
X196.575Y-93.25
X196.825Y-46.25
X196.825Y-85.25
X197.575Y-69.0
X197.605Y-49.59
X197.825Y-115.25
X198.075Y-93.25
X199.075Y-85.25
X199.325Y-115.25
X199.575Y-93.25
X199.825Y-46.25
X200.135Y-49.66
X200.825Y-85.25
X200.825Y-115.25
X201.075Y-93.25
X202.115Y-80.63
X202.325Y-115.25
X202.575Y-85.25
X202.575Y-93.25
X202.645Y-68.83
X202.695Y-49.68
X202.825Y-46.25
X203.325Y-101.5
X203.325Y-103.5
X203.365Y-107.77
X203.825Y-115.25
X204.325Y-85.25
X204.325Y-93.25
X205.075Y-101.5
X205.075Y-103.5
X205.225Y-49.64
X205.325Y-115.25
X205.825Y-46.25
X205.825Y-94.25
X206.075Y-84.25
X206.575Y-101.5
X206.575Y-103.5
X206.825Y-115.25
X207.075Y-96.25
X207.695Y-69.14
X207.795Y-49.64
X208.075Y-101.5
X208.075Y-103.5
X208.325Y-82.25
X208.325Y-96.25
X208.325Y-115.25
X208.825Y-46.25
X209.825Y-96.25
X209.825Y-101.5
X209.825Y-103.5
X209.825Y-115.25
X210.255Y-49.64
X211.325Y-82.25
X211.325Y-96.25
X211.325Y-115.25
X211.825Y-46.25
X212.815Y-69.06
X212.825Y-49.63
X212.825Y-96.25
X212.825Y-115.25
X214.325Y-82.25
X214.325Y-96.25
X214.325Y-115.25
X214.825Y-46.25
X215.825Y-96.25
X215.825Y-115.25
X217.325Y-82.25
X217.325Y-96.25
X217.825Y-46.25
X217.915Y-68.97
X217.935Y-49.66
X218.075Y-115.25
X218.825Y-96.25
X219.575Y-114.75
X219.825Y-97.0
X220.325Y-47.25
X220.325Y-56.25
X220.325Y-62.25
X220.325Y-65.25
X220.325Y-68.25
X220.325Y-74.25
X220.325Y-77.25
X220.325Y-79.5
X220.325Y-82.25
X220.325Y-113.5
X220.375Y-98.75
X220.375Y-100.0
X220.375Y-101.5
X220.375Y-103.0
X220.375Y-104.5
X220.375Y-106.0
X220.375Y-107.5
X220.375Y-109.0
X220.375Y-110.5
X220.375Y-112.0
T2
X139.915Y-91.88
X139.945Y-95.64
X141.145Y-68.57
X141.175Y-99.8
X142.345Y-67.47
X142.465Y-93.89
X145.335Y-93.83
X147.935Y-92.08
X147.955Y-95.6
X148.075Y-104.75
X148.075Y-106.5
X148.475Y-101.8
X148.575Y-100.5
X148.575Y-103.0
X149.475Y-103.0
X149.575Y-107.75
X149.675Y-100.4
X151.075Y-104.75
X151.075Y-106.5
X152.675Y-100.4
X152.675Y-103.0
X153.075Y-104.5
X153.075Y-106.0
X153.575Y-100.75
X153.575Y-103.0
X153.795Y-93.02
X153.875Y-101.8
X154.575Y-107.75
X156.075Y-104.5
X156.075Y-106.0
X158.745Y-89.8
X159.325Y-101.47
X161.675Y-105.2
X161.675Y-107.25
X163.075Y-107.5
X163.445Y-90.0
X164.575Y-105.25
X164.575Y-107.25
X167.475Y-100.1
X167.875Y-93.5
X168.575Y-97.75
X168.825Y-93.5
X169.175Y-74.94
X171.655Y-75.02
X171.675Y-104.2
X171.675Y-106.4
X172.575Y-93.5
X173.075Y-107.5
X173.325Y-97.75
X173.475Y-93.5
X174.675Y-104.2
X174.675Y-106.6
X176.766Y-80.93
X178.025Y-63.41
X178.045Y-68.54
X178.925Y-83.079
X182.045Y-68.54
X182.065Y-63.43
T3
X138.675Y-109.0
X139.378Y-107.303
X139.378Y-110.697
X140.675Y-52.5
X141.075Y-106.6
X141.075Y-111.4
X141.378Y-50.803
X141.378Y-54.197
X142.772Y-107.303
X142.772Y-110.697
X143.075Y-50.1
X143.075Y-54.9
X143.475Y-109.0
X144.772Y-50.803
X144.772Y-54.197
X145.475Y-52.5
X211.675Y-79.34
X211.675Y-80.34
X212.675Y-79.34
X212.675Y-80.34
X213.675Y-79.34
X213.675Y-80.34
X215.915Y-79.34
X215.915Y-80.34
X216.915Y-79.34
X216.915Y-80.34
X217.915Y-79.34
X217.915Y-80.34
T4
X185.203Y-108.23
X186.219Y-110.01
X187.235Y-108.23
X188.251Y-110.01
X189.267Y-108.23
X190.283Y-110.01
X191.299Y-108.23
X192.315Y-110.01
X204.963Y-108.23
X205.979Y-110.01
X206.995Y-108.23
X208.011Y-110.01
X209.027Y-108.23
X210.043Y-110.01
X211.059Y-108.23
X212.075Y-110.01
T5
X167.395Y-85.4
X167.395Y-87.94
X169.935Y-85.4
X169.935Y-87.94
X172.475Y-85.4
X172.475Y-87.94
X180.795Y-99.7
X180.825Y-78.49
X183.335Y-99.7
X183.365Y-78.49
X185.875Y-99.7
X185.905Y-78.49
X188.415Y-99.7
X188.445Y-78.49
X190.955Y-99.7
X190.985Y-78.49
X193.495Y-99.7
X193.525Y-78.49
X196.035Y-99.7
X196.065Y-78.49
X198.575Y-99.7
X198.605Y-78.49
T6
X170.945Y-52.7
X170.945Y-70.48
X171.175Y-59.05
X171.175Y-61.59
X171.175Y-64.13
X173.485Y-52.7
X173.485Y-70.48
X176.025Y-52.7
X176.025Y-70.48
X178.565Y-52.7
X178.565Y-70.48
X181.105Y-52.7
X181.105Y-70.48
X183.645Y-52.7
X183.645Y-70.48
X186.185Y-52.7
X186.185Y-70.48
X188.725Y-52.7
X188.725Y-70.48
X191.265Y-52.7
X191.265Y-70.48
X193.805Y-52.7
X193.805Y-70.48
X196.345Y-52.7
X196.345Y-70.48
X198.885Y-52.7
X198.885Y-70.48
X201.425Y-52.7
X201.425Y-70.48
X203.965Y-52.7
X203.965Y-70.48
X206.505Y-52.7
X206.505Y-70.48
X209.045Y-52.7
X209.045Y-70.48
X211.585Y-52.7
X211.585Y-70.48
X214.125Y-52.7
X214.125Y-70.48
X216.665Y-52.7
X216.665Y-70.48
X219.205Y-52.7
X219.205Y-70.48
T7
X149.575Y-105.5
X154.655Y-105.5
X163.075Y-105.32
X168.155Y-105.32
X173.235Y-105.32
T8
X180.625Y-109.12
X196.885Y-109.12
X200.385Y-109.12
X216.645Y-109.12
T9
X141.075Y-109.0
X143.075Y-52.5
T0
M30
