%TF.GenerationSoftware,KiCad,Pcbnew,5.1.9+dfsg1-1~bpo10+1*%
%TF.CreationDate,2021-03-08T15:45:51+01:00*%
%TF.ProjectId,firefly,66697265-666c-4792-9e6b-696361645f70,rev?*%
%TF.SameCoordinates,Original*%
%TF.FileFunction,Soldermask,Bot*%
%TF.FilePolarity,Negative*%
%FSLAX46Y46*%
G04 Gerber Fmt 4.6, Leading zero omitted, Abs format (unit mm)*
G04 Created by KiCad (PCBNEW 5.1.9+dfsg1-1~bpo10+1) date 2021-03-08 15:45:51*
%MOMM*%
%LPD*%
G01*
G04 APERTURE LIST*
%ADD10C,2.300000*%
%ADD11C,3.250000*%
%ADD12C,1.500000*%
%ADD13R,1.500000X1.500000*%
%ADD14O,2.080000X3.600000*%
%ADD15C,0.100000*%
%ADD16R,1.700000X1.700000*%
%ADD17O,1.700000X1.700000*%
%ADD18C,3.200000*%
%ADD19C,0.800000*%
%ADD20C,6.400000*%
%ADD21C,3.000000*%
%ADD22C,1.400000*%
%ADD23R,1.400000X1.400000*%
G04 APERTURE END LIST*
D10*
%TO.C,J2*%
X216645000Y-106610000D03*
X200385000Y-106610000D03*
D11*
X202165000Y-110040000D03*
X214865000Y-110040000D03*
D12*
X204963000Y-105720000D03*
X206995000Y-105720000D03*
X209027000Y-105720000D03*
X211059000Y-105720000D03*
X205979000Y-107500000D03*
X208011000Y-107500000D03*
X210043000Y-107500000D03*
D13*
X212075000Y-107500000D03*
%TD*%
%TO.C,J1*%
X192325000Y-107500000D03*
D12*
X190293000Y-107500000D03*
X188261000Y-107500000D03*
X186229000Y-107500000D03*
X191309000Y-105720000D03*
X189277000Y-105720000D03*
X187245000Y-105720000D03*
X185213000Y-105720000D03*
D11*
X195115000Y-110040000D03*
X182415000Y-110040000D03*
D10*
X180635000Y-106610000D03*
X196895000Y-106610000D03*
%TD*%
%TO.C,Jadd1*%
G36*
G01*
X162035000Y-106870002D02*
X162035000Y-103769998D01*
G75*
G02*
X162284998Y-103520000I249998J0D01*
G01*
X163865002Y-103520000D01*
G75*
G02*
X164115000Y-103769998I0J-249998D01*
G01*
X164115000Y-106870002D01*
G75*
G02*
X163865002Y-107120000I-249998J0D01*
G01*
X162284998Y-107120000D01*
G75*
G02*
X162035000Y-106870002I0J249998D01*
G01*
G37*
D14*
X168155000Y-105320000D03*
X173235000Y-105320000D03*
%TD*%
D15*
%TO.C,JP107*%
G36*
X197365000Y-101730602D02*
G01*
X197389534Y-101730602D01*
X197438365Y-101735412D01*
X197486490Y-101744984D01*
X197533445Y-101759228D01*
X197578778Y-101778005D01*
X197622051Y-101801136D01*
X197662850Y-101828396D01*
X197700779Y-101859524D01*
X197735476Y-101894221D01*
X197766604Y-101932150D01*
X197793864Y-101972949D01*
X197816995Y-102016222D01*
X197835772Y-102061555D01*
X197850016Y-102108510D01*
X197859588Y-102156635D01*
X197864398Y-102205466D01*
X197864398Y-102230000D01*
X197865000Y-102230000D01*
X197865000Y-102730000D01*
X197864398Y-102730000D01*
X197864398Y-102754534D01*
X197859588Y-102803365D01*
X197850016Y-102851490D01*
X197835772Y-102898445D01*
X197816995Y-102943778D01*
X197793864Y-102987051D01*
X197766604Y-103027850D01*
X197735476Y-103065779D01*
X197700779Y-103100476D01*
X197662850Y-103131604D01*
X197622051Y-103158864D01*
X197578778Y-103181995D01*
X197533445Y-103200772D01*
X197486490Y-103215016D01*
X197438365Y-103224588D01*
X197389534Y-103229398D01*
X197365000Y-103229398D01*
X197365000Y-103230000D01*
X196865000Y-103230000D01*
X196865000Y-101730000D01*
X197365000Y-101730000D01*
X197365000Y-101730602D01*
G37*
G36*
X196565000Y-103230000D02*
G01*
X196065000Y-103230000D01*
X196065000Y-103229398D01*
X196040466Y-103229398D01*
X195991635Y-103224588D01*
X195943510Y-103215016D01*
X195896555Y-103200772D01*
X195851222Y-103181995D01*
X195807949Y-103158864D01*
X195767150Y-103131604D01*
X195729221Y-103100476D01*
X195694524Y-103065779D01*
X195663396Y-103027850D01*
X195636136Y-102987051D01*
X195613005Y-102943778D01*
X195594228Y-102898445D01*
X195579984Y-102851490D01*
X195570412Y-102803365D01*
X195565602Y-102754534D01*
X195565602Y-102730000D01*
X195565000Y-102730000D01*
X195565000Y-102230000D01*
X195565602Y-102230000D01*
X195565602Y-102205466D01*
X195570412Y-102156635D01*
X195579984Y-102108510D01*
X195594228Y-102061555D01*
X195613005Y-102016222D01*
X195636136Y-101972949D01*
X195663396Y-101932150D01*
X195694524Y-101894221D01*
X195729221Y-101859524D01*
X195767150Y-101828396D01*
X195807949Y-101801136D01*
X195851222Y-101778005D01*
X195896555Y-101759228D01*
X195943510Y-101744984D01*
X195991635Y-101735412D01*
X196040466Y-101730602D01*
X196065000Y-101730602D01*
X196065000Y-101730000D01*
X196565000Y-101730000D01*
X196565000Y-103230000D01*
G37*
%TD*%
%TO.C,JP105*%
G36*
X185244398Y-103460000D02*
G01*
X185244398Y-103484534D01*
X185239588Y-103533365D01*
X185230016Y-103581490D01*
X185215772Y-103628445D01*
X185196995Y-103673778D01*
X185173864Y-103717051D01*
X185146604Y-103757850D01*
X185115476Y-103795779D01*
X185080779Y-103830476D01*
X185042850Y-103861604D01*
X185002051Y-103888864D01*
X184958778Y-103911995D01*
X184913445Y-103930772D01*
X184866490Y-103945016D01*
X184818365Y-103954588D01*
X184769534Y-103959398D01*
X184745000Y-103959398D01*
X184745000Y-103960000D01*
X184245000Y-103960000D01*
X184245000Y-103959398D01*
X184220466Y-103959398D01*
X184171635Y-103954588D01*
X184123510Y-103945016D01*
X184076555Y-103930772D01*
X184031222Y-103911995D01*
X183987949Y-103888864D01*
X183947150Y-103861604D01*
X183909221Y-103830476D01*
X183874524Y-103795779D01*
X183843396Y-103757850D01*
X183816136Y-103717051D01*
X183793005Y-103673778D01*
X183774228Y-103628445D01*
X183759984Y-103581490D01*
X183750412Y-103533365D01*
X183745602Y-103484534D01*
X183745602Y-103460000D01*
X183745000Y-103460000D01*
X183745000Y-102960000D01*
X185245000Y-102960000D01*
X185245000Y-103460000D01*
X185244398Y-103460000D01*
G37*
G36*
X183745000Y-102660000D02*
G01*
X183745000Y-102160000D01*
X183745602Y-102160000D01*
X183745602Y-102135466D01*
X183750412Y-102086635D01*
X183759984Y-102038510D01*
X183774228Y-101991555D01*
X183793005Y-101946222D01*
X183816136Y-101902949D01*
X183843396Y-101862150D01*
X183874524Y-101824221D01*
X183909221Y-101789524D01*
X183947150Y-101758396D01*
X183987949Y-101731136D01*
X184031222Y-101708005D01*
X184076555Y-101689228D01*
X184123510Y-101674984D01*
X184171635Y-101665412D01*
X184220466Y-101660602D01*
X184245000Y-101660602D01*
X184245000Y-101660000D01*
X184745000Y-101660000D01*
X184745000Y-101660602D01*
X184769534Y-101660602D01*
X184818365Y-101665412D01*
X184866490Y-101674984D01*
X184913445Y-101689228D01*
X184958778Y-101708005D01*
X185002051Y-101731136D01*
X185042850Y-101758396D01*
X185080779Y-101789524D01*
X185115476Y-101824221D01*
X185146604Y-101862150D01*
X185173864Y-101902949D01*
X185196995Y-101946222D01*
X185215772Y-101991555D01*
X185230016Y-102038510D01*
X185239588Y-102086635D01*
X185244398Y-102135466D01*
X185244398Y-102160000D01*
X185245000Y-102160000D01*
X185245000Y-102660000D01*
X183745000Y-102660000D01*
G37*
%TD*%
%TO.C,JP106*%
G36*
X186345000Y-102660000D02*
G01*
X186345000Y-102160000D01*
X186345602Y-102160000D01*
X186345602Y-102135466D01*
X186350412Y-102086635D01*
X186359984Y-102038510D01*
X186374228Y-101991555D01*
X186393005Y-101946222D01*
X186416136Y-101902949D01*
X186443396Y-101862150D01*
X186474524Y-101824221D01*
X186509221Y-101789524D01*
X186547150Y-101758396D01*
X186587949Y-101731136D01*
X186631222Y-101708005D01*
X186676555Y-101689228D01*
X186723510Y-101674984D01*
X186771635Y-101665412D01*
X186820466Y-101660602D01*
X186845000Y-101660602D01*
X186845000Y-101660000D01*
X187345000Y-101660000D01*
X187345000Y-101660602D01*
X187369534Y-101660602D01*
X187418365Y-101665412D01*
X187466490Y-101674984D01*
X187513445Y-101689228D01*
X187558778Y-101708005D01*
X187602051Y-101731136D01*
X187642850Y-101758396D01*
X187680779Y-101789524D01*
X187715476Y-101824221D01*
X187746604Y-101862150D01*
X187773864Y-101902949D01*
X187796995Y-101946222D01*
X187815772Y-101991555D01*
X187830016Y-102038510D01*
X187839588Y-102086635D01*
X187844398Y-102135466D01*
X187844398Y-102160000D01*
X187845000Y-102160000D01*
X187845000Y-102660000D01*
X186345000Y-102660000D01*
G37*
G36*
X187844398Y-103460000D02*
G01*
X187844398Y-103484534D01*
X187839588Y-103533365D01*
X187830016Y-103581490D01*
X187815772Y-103628445D01*
X187796995Y-103673778D01*
X187773864Y-103717051D01*
X187746604Y-103757850D01*
X187715476Y-103795779D01*
X187680779Y-103830476D01*
X187642850Y-103861604D01*
X187602051Y-103888864D01*
X187558778Y-103911995D01*
X187513445Y-103930772D01*
X187466490Y-103945016D01*
X187418365Y-103954588D01*
X187369534Y-103959398D01*
X187345000Y-103959398D01*
X187345000Y-103960000D01*
X186845000Y-103960000D01*
X186845000Y-103959398D01*
X186820466Y-103959398D01*
X186771635Y-103954588D01*
X186723510Y-103945016D01*
X186676555Y-103930772D01*
X186631222Y-103911995D01*
X186587949Y-103888864D01*
X186547150Y-103861604D01*
X186509221Y-103830476D01*
X186474524Y-103795779D01*
X186443396Y-103757850D01*
X186416136Y-103717051D01*
X186393005Y-103673778D01*
X186374228Y-103628445D01*
X186359984Y-103581490D01*
X186350412Y-103533365D01*
X186345602Y-103484534D01*
X186345602Y-103460000D01*
X186345000Y-103460000D01*
X186345000Y-102960000D01*
X187845000Y-102960000D01*
X187845000Y-103460000D01*
X187844398Y-103460000D01*
G37*
%TD*%
D16*
%TO.C,J101*%
X172475000Y-85400000D03*
D17*
X172475000Y-87940000D03*
X169935000Y-85400000D03*
X169935000Y-87940000D03*
X167395000Y-85400000D03*
X167395000Y-87940000D03*
%TD*%
D15*
%TO.C,JP108*%
G36*
X200425000Y-103220000D02*
G01*
X199925000Y-103220000D01*
X199925000Y-103219398D01*
X199900466Y-103219398D01*
X199851635Y-103214588D01*
X199803510Y-103205016D01*
X199756555Y-103190772D01*
X199711222Y-103171995D01*
X199667949Y-103148864D01*
X199627150Y-103121604D01*
X199589221Y-103090476D01*
X199554524Y-103055779D01*
X199523396Y-103017850D01*
X199496136Y-102977051D01*
X199473005Y-102933778D01*
X199454228Y-102888445D01*
X199439984Y-102841490D01*
X199430412Y-102793365D01*
X199425602Y-102744534D01*
X199425602Y-102720000D01*
X199425000Y-102720000D01*
X199425000Y-102220000D01*
X199425602Y-102220000D01*
X199425602Y-102195466D01*
X199430412Y-102146635D01*
X199439984Y-102098510D01*
X199454228Y-102051555D01*
X199473005Y-102006222D01*
X199496136Y-101962949D01*
X199523396Y-101922150D01*
X199554524Y-101884221D01*
X199589221Y-101849524D01*
X199627150Y-101818396D01*
X199667949Y-101791136D01*
X199711222Y-101768005D01*
X199756555Y-101749228D01*
X199803510Y-101734984D01*
X199851635Y-101725412D01*
X199900466Y-101720602D01*
X199925000Y-101720602D01*
X199925000Y-101720000D01*
X200425000Y-101720000D01*
X200425000Y-103220000D01*
G37*
G36*
X201225000Y-101720602D02*
G01*
X201249534Y-101720602D01*
X201298365Y-101725412D01*
X201346490Y-101734984D01*
X201393445Y-101749228D01*
X201438778Y-101768005D01*
X201482051Y-101791136D01*
X201522850Y-101818396D01*
X201560779Y-101849524D01*
X201595476Y-101884221D01*
X201626604Y-101922150D01*
X201653864Y-101962949D01*
X201676995Y-102006222D01*
X201695772Y-102051555D01*
X201710016Y-102098510D01*
X201719588Y-102146635D01*
X201724398Y-102195466D01*
X201724398Y-102220000D01*
X201725000Y-102220000D01*
X201725000Y-102720000D01*
X201724398Y-102720000D01*
X201724398Y-102744534D01*
X201719588Y-102793365D01*
X201710016Y-102841490D01*
X201695772Y-102888445D01*
X201676995Y-102933778D01*
X201653864Y-102977051D01*
X201626604Y-103017850D01*
X201595476Y-103055779D01*
X201560779Y-103090476D01*
X201522850Y-103121604D01*
X201482051Y-103148864D01*
X201438778Y-103171995D01*
X201393445Y-103190772D01*
X201346490Y-103205016D01*
X201298365Y-103214588D01*
X201249534Y-103219398D01*
X201225000Y-103219398D01*
X201225000Y-103220000D01*
X200725000Y-103220000D01*
X200725000Y-101720000D01*
X201225000Y-101720000D01*
X201225000Y-101720602D01*
G37*
%TD*%
%TO.C,R105*%
G36*
G01*
X208408750Y-109295000D02*
X208921250Y-109295000D01*
G75*
G02*
X209140000Y-109513750I0J-218750D01*
G01*
X209140000Y-109951250D01*
G75*
G02*
X208921250Y-110170000I-218750J0D01*
G01*
X208408750Y-110170000D01*
G75*
G02*
X208190000Y-109951250I0J218750D01*
G01*
X208190000Y-109513750D01*
G75*
G02*
X208408750Y-109295000I218750J0D01*
G01*
G37*
G36*
G01*
X208408750Y-110870000D02*
X208921250Y-110870000D01*
G75*
G02*
X209140000Y-111088750I0J-218750D01*
G01*
X209140000Y-111526250D01*
G75*
G02*
X208921250Y-111745000I-218750J0D01*
G01*
X208408750Y-111745000D01*
G75*
G02*
X208190000Y-111526250I0J218750D01*
G01*
X208190000Y-111088750D01*
G75*
G02*
X208408750Y-110870000I218750J0D01*
G01*
G37*
%TD*%
D18*
%TO.C,H3*%
X214075000Y-90000000D03*
%TD*%
%TO.C,Jc1*%
G36*
G01*
X148535000Y-107050002D02*
X148535000Y-103949998D01*
G75*
G02*
X148784998Y-103700000I249998J0D01*
G01*
X150365002Y-103700000D01*
G75*
G02*
X150615000Y-103949998I0J-249998D01*
G01*
X150615000Y-107050002D01*
G75*
G02*
X150365002Y-107300000I-249998J0D01*
G01*
X148784998Y-107300000D01*
G75*
G02*
X148535000Y-107050002I0J249998D01*
G01*
G37*
D14*
X154655000Y-105500000D03*
%TD*%
D15*
%TO.C,JP1*%
G36*
X206634398Y-111610000D02*
G01*
X206634398Y-111634534D01*
X206629588Y-111683365D01*
X206620016Y-111731490D01*
X206605772Y-111778445D01*
X206586995Y-111823778D01*
X206563864Y-111867051D01*
X206536604Y-111907850D01*
X206505476Y-111945779D01*
X206470779Y-111980476D01*
X206432850Y-112011604D01*
X206392051Y-112038864D01*
X206348778Y-112061995D01*
X206303445Y-112080772D01*
X206256490Y-112095016D01*
X206208365Y-112104588D01*
X206159534Y-112109398D01*
X206135000Y-112109398D01*
X206135000Y-112110000D01*
X205635000Y-112110000D01*
X205635000Y-112109398D01*
X205610466Y-112109398D01*
X205561635Y-112104588D01*
X205513510Y-112095016D01*
X205466555Y-112080772D01*
X205421222Y-112061995D01*
X205377949Y-112038864D01*
X205337150Y-112011604D01*
X205299221Y-111980476D01*
X205264524Y-111945779D01*
X205233396Y-111907850D01*
X205206136Y-111867051D01*
X205183005Y-111823778D01*
X205164228Y-111778445D01*
X205149984Y-111731490D01*
X205140412Y-111683365D01*
X205135602Y-111634534D01*
X205135602Y-111610000D01*
X205135000Y-111610000D01*
X205135000Y-111110000D01*
X206635000Y-111110000D01*
X206635000Y-111610000D01*
X206634398Y-111610000D01*
G37*
G36*
X205135000Y-110810000D02*
G01*
X205135000Y-110310000D01*
X205135602Y-110310000D01*
X205135602Y-110285466D01*
X205140412Y-110236635D01*
X205149984Y-110188510D01*
X205164228Y-110141555D01*
X205183005Y-110096222D01*
X205206136Y-110052949D01*
X205233396Y-110012150D01*
X205264524Y-109974221D01*
X205299221Y-109939524D01*
X205337150Y-109908396D01*
X205377949Y-109881136D01*
X205421222Y-109858005D01*
X205466555Y-109839228D01*
X205513510Y-109824984D01*
X205561635Y-109815412D01*
X205610466Y-109810602D01*
X205635000Y-109810602D01*
X205635000Y-109810000D01*
X206135000Y-109810000D01*
X206135000Y-109810602D01*
X206159534Y-109810602D01*
X206208365Y-109815412D01*
X206256490Y-109824984D01*
X206303445Y-109839228D01*
X206348778Y-109858005D01*
X206392051Y-109881136D01*
X206432850Y-109908396D01*
X206470779Y-109939524D01*
X206505476Y-109974221D01*
X206536604Y-110012150D01*
X206563864Y-110052949D01*
X206586995Y-110096222D01*
X206605772Y-110141555D01*
X206620016Y-110188510D01*
X206629588Y-110236635D01*
X206634398Y-110285466D01*
X206634398Y-110310000D01*
X206635000Y-110310000D01*
X206635000Y-110810000D01*
X205135000Y-110810000D01*
G37*
%TD*%
%TO.C,JP2*%
G36*
X212065000Y-111000000D02*
G01*
X212065000Y-111500000D01*
X212064398Y-111500000D01*
X212064398Y-111524534D01*
X212059588Y-111573365D01*
X212050016Y-111621490D01*
X212035772Y-111668445D01*
X212016995Y-111713778D01*
X211993864Y-111757051D01*
X211966604Y-111797850D01*
X211935476Y-111835779D01*
X211900779Y-111870476D01*
X211862850Y-111901604D01*
X211822051Y-111928864D01*
X211778778Y-111951995D01*
X211733445Y-111970772D01*
X211686490Y-111985016D01*
X211638365Y-111994588D01*
X211589534Y-111999398D01*
X211565000Y-111999398D01*
X211565000Y-112000000D01*
X211065000Y-112000000D01*
X211065000Y-111999398D01*
X211040466Y-111999398D01*
X210991635Y-111994588D01*
X210943510Y-111985016D01*
X210896555Y-111970772D01*
X210851222Y-111951995D01*
X210807949Y-111928864D01*
X210767150Y-111901604D01*
X210729221Y-111870476D01*
X210694524Y-111835779D01*
X210663396Y-111797850D01*
X210636136Y-111757051D01*
X210613005Y-111713778D01*
X210594228Y-111668445D01*
X210579984Y-111621490D01*
X210570412Y-111573365D01*
X210565602Y-111524534D01*
X210565602Y-111500000D01*
X210565000Y-111500000D01*
X210565000Y-111000000D01*
X212065000Y-111000000D01*
G37*
G36*
X210565602Y-110200000D02*
G01*
X210565602Y-110175466D01*
X210570412Y-110126635D01*
X210579984Y-110078510D01*
X210594228Y-110031555D01*
X210613005Y-109986222D01*
X210636136Y-109942949D01*
X210663396Y-109902150D01*
X210694524Y-109864221D01*
X210729221Y-109829524D01*
X210767150Y-109798396D01*
X210807949Y-109771136D01*
X210851222Y-109748005D01*
X210896555Y-109729228D01*
X210943510Y-109714984D01*
X210991635Y-109705412D01*
X211040466Y-109700602D01*
X211065000Y-109700602D01*
X211065000Y-109700000D01*
X211565000Y-109700000D01*
X211565000Y-109700602D01*
X211589534Y-109700602D01*
X211638365Y-109705412D01*
X211686490Y-109714984D01*
X211733445Y-109729228D01*
X211778778Y-109748005D01*
X211822051Y-109771136D01*
X211862850Y-109798396D01*
X211900779Y-109829524D01*
X211935476Y-109864221D01*
X211966604Y-109902150D01*
X211993864Y-109942949D01*
X212016995Y-109986222D01*
X212035772Y-110031555D01*
X212050016Y-110078510D01*
X212059588Y-110126635D01*
X212064398Y-110175466D01*
X212064398Y-110200000D01*
X212065000Y-110200000D01*
X212065000Y-110700000D01*
X210565000Y-110700000D01*
X210565000Y-110200000D01*
X210565602Y-110200000D01*
G37*
%TD*%
D19*
%TO.C,H1*%
X144772056Y-63802944D03*
X143075000Y-63100000D03*
X141377944Y-63802944D03*
X140675000Y-65500000D03*
X141377944Y-67197056D03*
X143075000Y-67900000D03*
X144772056Y-67197056D03*
X145475000Y-65500000D03*
D20*
X143075000Y-65500000D03*
%TD*%
%TO.C,H2*%
X141075000Y-109000000D03*
D19*
X143475000Y-109000000D03*
X142772056Y-110697056D03*
X141075000Y-111400000D03*
X139377944Y-110697056D03*
X138675000Y-109000000D03*
X139377944Y-107302944D03*
X141075000Y-106600000D03*
X142772056Y-107302944D03*
%TD*%
%TO.C,H4*%
X215772056Y-63802944D03*
X214075000Y-63100000D03*
X212377944Y-63802944D03*
X211675000Y-65500000D03*
X212377944Y-67197056D03*
X214075000Y-67900000D03*
X215772056Y-67197056D03*
X216475000Y-65500000D03*
D20*
X214075000Y-65500000D03*
%TD*%
D21*
%TO.C,J3*%
X206615760Y-65070280D03*
D22*
X201845760Y-65560280D03*
X199345760Y-65560280D03*
D23*
X201845760Y-62360280D03*
D21*
X194575760Y-65070280D03*
D22*
X199345760Y-62360280D03*
%TD*%
D15*
%TO.C,JP3*%
G36*
X203676960Y-78172480D02*
G01*
X203176960Y-78172480D01*
X203176960Y-78171878D01*
X203152426Y-78171878D01*
X203103595Y-78167068D01*
X203055470Y-78157496D01*
X203008515Y-78143252D01*
X202963182Y-78124475D01*
X202919909Y-78101344D01*
X202879110Y-78074084D01*
X202841181Y-78042956D01*
X202806484Y-78008259D01*
X202775356Y-77970330D01*
X202748096Y-77929531D01*
X202724965Y-77886258D01*
X202706188Y-77840925D01*
X202691944Y-77793970D01*
X202682372Y-77745845D01*
X202677562Y-77697014D01*
X202677562Y-77672480D01*
X202676960Y-77672480D01*
X202676960Y-77172480D01*
X202677562Y-77172480D01*
X202677562Y-77147946D01*
X202682372Y-77099115D01*
X202691944Y-77050990D01*
X202706188Y-77004035D01*
X202724965Y-76958702D01*
X202748096Y-76915429D01*
X202775356Y-76874630D01*
X202806484Y-76836701D01*
X202841181Y-76802004D01*
X202879110Y-76770876D01*
X202919909Y-76743616D01*
X202963182Y-76720485D01*
X203008515Y-76701708D01*
X203055470Y-76687464D01*
X203103595Y-76677892D01*
X203152426Y-76673082D01*
X203176960Y-76673082D01*
X203176960Y-76672480D01*
X203676960Y-76672480D01*
X203676960Y-78172480D01*
G37*
G36*
X204476960Y-76673082D02*
G01*
X204501494Y-76673082D01*
X204550325Y-76677892D01*
X204598450Y-76687464D01*
X204645405Y-76701708D01*
X204690738Y-76720485D01*
X204734011Y-76743616D01*
X204774810Y-76770876D01*
X204812739Y-76802004D01*
X204847436Y-76836701D01*
X204878564Y-76874630D01*
X204905824Y-76915429D01*
X204928955Y-76958702D01*
X204947732Y-77004035D01*
X204961976Y-77050990D01*
X204971548Y-77099115D01*
X204976358Y-77147946D01*
X204976358Y-77172480D01*
X204976960Y-77172480D01*
X204976960Y-77672480D01*
X204976358Y-77672480D01*
X204976358Y-77697014D01*
X204971548Y-77745845D01*
X204961976Y-77793970D01*
X204947732Y-77840925D01*
X204928955Y-77886258D01*
X204905824Y-77929531D01*
X204878564Y-77970330D01*
X204847436Y-78008259D01*
X204812739Y-78042956D01*
X204774810Y-78074084D01*
X204734011Y-78101344D01*
X204690738Y-78124475D01*
X204645405Y-78143252D01*
X204598450Y-78157496D01*
X204550325Y-78167068D01*
X204501494Y-78171878D01*
X204476960Y-78171878D01*
X204476960Y-78172480D01*
X203976960Y-78172480D01*
X203976960Y-76672480D01*
X204476960Y-76672480D01*
X204476960Y-76673082D01*
G37*
%TD*%
%TO.C,JP4*%
G36*
X204451560Y-81636242D02*
G01*
X204476094Y-81636242D01*
X204524925Y-81641052D01*
X204573050Y-81650624D01*
X204620005Y-81664868D01*
X204665338Y-81683645D01*
X204708611Y-81706776D01*
X204749410Y-81734036D01*
X204787339Y-81765164D01*
X204822036Y-81799861D01*
X204853164Y-81837790D01*
X204880424Y-81878589D01*
X204903555Y-81921862D01*
X204922332Y-81967195D01*
X204936576Y-82014150D01*
X204946148Y-82062275D01*
X204950958Y-82111106D01*
X204950958Y-82135640D01*
X204951560Y-82135640D01*
X204951560Y-82635640D01*
X204950958Y-82635640D01*
X204950958Y-82660174D01*
X204946148Y-82709005D01*
X204936576Y-82757130D01*
X204922332Y-82804085D01*
X204903555Y-82849418D01*
X204880424Y-82892691D01*
X204853164Y-82933490D01*
X204822036Y-82971419D01*
X204787339Y-83006116D01*
X204749410Y-83037244D01*
X204708611Y-83064504D01*
X204665338Y-83087635D01*
X204620005Y-83106412D01*
X204573050Y-83120656D01*
X204524925Y-83130228D01*
X204476094Y-83135038D01*
X204451560Y-83135038D01*
X204451560Y-83135640D01*
X203951560Y-83135640D01*
X203951560Y-81635640D01*
X204451560Y-81635640D01*
X204451560Y-81636242D01*
G37*
G36*
X203651560Y-83135640D02*
G01*
X203151560Y-83135640D01*
X203151560Y-83135038D01*
X203127026Y-83135038D01*
X203078195Y-83130228D01*
X203030070Y-83120656D01*
X202983115Y-83106412D01*
X202937782Y-83087635D01*
X202894509Y-83064504D01*
X202853710Y-83037244D01*
X202815781Y-83006116D01*
X202781084Y-82971419D01*
X202749956Y-82933490D01*
X202722696Y-82892691D01*
X202699565Y-82849418D01*
X202680788Y-82804085D01*
X202666544Y-82757130D01*
X202656972Y-82709005D01*
X202652162Y-82660174D01*
X202652162Y-82635640D01*
X202651560Y-82635640D01*
X202651560Y-82135640D01*
X202652162Y-82135640D01*
X202652162Y-82111106D01*
X202656972Y-82062275D01*
X202666544Y-82014150D01*
X202680788Y-81967195D01*
X202699565Y-81921862D01*
X202722696Y-81878589D01*
X202749956Y-81837790D01*
X202781084Y-81799861D01*
X202815781Y-81765164D01*
X202853710Y-81734036D01*
X202894509Y-81706776D01*
X202937782Y-81683645D01*
X202983115Y-81664868D01*
X203030070Y-81650624D01*
X203078195Y-81641052D01*
X203127026Y-81636242D01*
X203151560Y-81636242D01*
X203151560Y-81635640D01*
X203651560Y-81635640D01*
X203651560Y-83135640D01*
G37*
%TD*%
M02*
