%TF.GenerationSoftware,KiCad,Pcbnew,5.1.9+dfsg1-1+deb11u1*%
%TF.CreationDate,2022-10-19T16:44:56+02:00*%
%TF.ProjectId,firefly,66697265-666c-4792-9e6b-696361645f70,rev?*%
%TF.SameCoordinates,Original*%
%TF.FileFunction,Paste,Top*%
%TF.FilePolarity,Positive*%
%FSLAX46Y46*%
G04 Gerber Fmt 4.6, Leading zero omitted, Abs format (unit mm)*
G04 Created by KiCad (PCBNEW 5.1.9+dfsg1-1+deb11u1) date 2022-10-19 16:44:56*
%MOMM*%
%LPD*%
G01*
G04 APERTURE LIST*
%ADD10R,1.200000X0.900000*%
%ADD11R,1.600000X3.100000*%
%ADD12R,3.800000X2.000000*%
%ADD13R,1.500000X2.000000*%
%ADD14R,0.700000X0.600000*%
G04 APERTURE END LIST*
%TO.C,C120*%
G36*
G01*
X142026316Y-68766291D02*
X142388709Y-69128684D01*
G75*
G02*
X142388709Y-69438044I-154680J-154680D01*
G01*
X142079350Y-69747403D01*
G75*
G02*
X141769990Y-69747403I-154680J154680D01*
G01*
X141407597Y-69385010D01*
G75*
G02*
X141407597Y-69075650I154680J154680D01*
G01*
X141716956Y-68766291D01*
G75*
G02*
X142026316Y-68766291I154680J-154680D01*
G01*
G37*
G36*
G01*
X143140010Y-67652597D02*
X143502403Y-68014990D01*
G75*
G02*
X143502403Y-68324350I-154680J-154680D01*
G01*
X143193044Y-68633709D01*
G75*
G02*
X142883684Y-68633709I-154680J154680D01*
G01*
X142521291Y-68271316D01*
G75*
G02*
X142521291Y-67961956I154680J154680D01*
G01*
X142830650Y-67652597D01*
G75*
G02*
X143140010Y-67652597I154680J-154680D01*
G01*
G37*
%TD*%
%TO.C,C109*%
G36*
G01*
X159755000Y-100143750D02*
X159755000Y-100656250D01*
G75*
G02*
X159536250Y-100875000I-218750J0D01*
G01*
X159098750Y-100875000D01*
G75*
G02*
X158880000Y-100656250I0J218750D01*
G01*
X158880000Y-100143750D01*
G75*
G02*
X159098750Y-99925000I218750J0D01*
G01*
X159536250Y-99925000D01*
G75*
G02*
X159755000Y-100143750I0J-218750D01*
G01*
G37*
G36*
G01*
X161330000Y-100143750D02*
X161330000Y-100656250D01*
G75*
G02*
X161111250Y-100875000I-218750J0D01*
G01*
X160673750Y-100875000D01*
G75*
G02*
X160455000Y-100656250I0J218750D01*
G01*
X160455000Y-100143750D01*
G75*
G02*
X160673750Y-99925000I218750J0D01*
G01*
X161111250Y-99925000D01*
G75*
G02*
X161330000Y-100143750I0J-218750D01*
G01*
G37*
%TD*%
%TO.C,C121*%
G36*
G01*
X152374190Y-56439643D02*
X152011797Y-56077250D01*
G75*
G02*
X152011797Y-55767890I154680J154680D01*
G01*
X152321156Y-55458531D01*
G75*
G02*
X152630516Y-55458531I154680J-154680D01*
G01*
X152992909Y-55820924D01*
G75*
G02*
X152992909Y-56130284I-154680J-154680D01*
G01*
X152683550Y-56439643D01*
G75*
G02*
X152374190Y-56439643I-154680J154680D01*
G01*
G37*
G36*
G01*
X153487884Y-55325949D02*
X153125491Y-54963556D01*
G75*
G02*
X153125491Y-54654196I154680J154680D01*
G01*
X153434850Y-54344837D01*
G75*
G02*
X153744210Y-54344837I154680J-154680D01*
G01*
X154106603Y-54707230D01*
G75*
G02*
X154106603Y-55016590I-154680J-154680D01*
G01*
X153797244Y-55325949D01*
G75*
G02*
X153487884Y-55325949I-154680J154680D01*
G01*
G37*
%TD*%
%TO.C,C123*%
G36*
G01*
X162482343Y-83364650D02*
X162119950Y-83002257D01*
G75*
G02*
X162119950Y-82692897I154680J154680D01*
G01*
X162429309Y-82383538D01*
G75*
G02*
X162738669Y-82383538I154680J-154680D01*
G01*
X163101062Y-82745931D01*
G75*
G02*
X163101062Y-83055291I-154680J-154680D01*
G01*
X162791703Y-83364650D01*
G75*
G02*
X162482343Y-83364650I-154680J154680D01*
G01*
G37*
G36*
G01*
X163596037Y-82250956D02*
X163233644Y-81888563D01*
G75*
G02*
X163233644Y-81579203I154680J154680D01*
G01*
X163543003Y-81269844D01*
G75*
G02*
X163852363Y-81269844I154680J-154680D01*
G01*
X164214756Y-81632237D01*
G75*
G02*
X164214756Y-81941597I-154680J-154680D01*
G01*
X163905397Y-82250956D01*
G75*
G02*
X163596037Y-82250956I-154680J154680D01*
G01*
G37*
%TD*%
%TO.C,R2*%
G36*
G01*
X173018750Y-77890000D02*
X173531250Y-77890000D01*
G75*
G02*
X173750000Y-78108750I0J-218750D01*
G01*
X173750000Y-78546250D01*
G75*
G02*
X173531250Y-78765000I-218750J0D01*
G01*
X173018750Y-78765000D01*
G75*
G02*
X172800000Y-78546250I0J218750D01*
G01*
X172800000Y-78108750D01*
G75*
G02*
X173018750Y-77890000I218750J0D01*
G01*
G37*
G36*
G01*
X173018750Y-76315000D02*
X173531250Y-76315000D01*
G75*
G02*
X173750000Y-76533750I0J-218750D01*
G01*
X173750000Y-76971250D01*
G75*
G02*
X173531250Y-77190000I-218750J0D01*
G01*
X173018750Y-77190000D01*
G75*
G02*
X172800000Y-76971250I0J218750D01*
G01*
X172800000Y-76533750D01*
G75*
G02*
X173018750Y-76315000I218750J0D01*
G01*
G37*
%TD*%
%TO.C,Cvin1*%
G36*
G01*
X137955000Y-94850000D02*
X137955000Y-92850000D01*
G75*
G02*
X138205000Y-92600000I250000J0D01*
G01*
X141705000Y-92600000D01*
G75*
G02*
X141955000Y-92850000I0J-250000D01*
G01*
X141955000Y-94850000D01*
G75*
G02*
X141705000Y-95100000I-250000J0D01*
G01*
X138205000Y-95100000D01*
G75*
G02*
X137955000Y-94850000I0J250000D01*
G01*
G37*
G36*
G01*
X145955000Y-94850000D02*
X145955000Y-92850000D01*
G75*
G02*
X146205000Y-92600000I250000J0D01*
G01*
X149705000Y-92600000D01*
G75*
G02*
X149955000Y-92850000I0J-250000D01*
G01*
X149955000Y-94850000D01*
G75*
G02*
X149705000Y-95100000I-250000J0D01*
G01*
X146205000Y-95100000D01*
G75*
G02*
X145955000Y-94850000I0J250000D01*
G01*
G37*
%TD*%
%TO.C,C102*%
G36*
G01*
X167450000Y-81056250D02*
X167450000Y-80543750D01*
G75*
G02*
X167668750Y-80325000I218750J0D01*
G01*
X168106250Y-80325000D01*
G75*
G02*
X168325000Y-80543750I0J-218750D01*
G01*
X168325000Y-81056250D01*
G75*
G02*
X168106250Y-81275000I-218750J0D01*
G01*
X167668750Y-81275000D01*
G75*
G02*
X167450000Y-81056250I0J218750D01*
G01*
G37*
G36*
G01*
X169025000Y-81056250D02*
X169025000Y-80543750D01*
G75*
G02*
X169243750Y-80325000I218750J0D01*
G01*
X169681250Y-80325000D01*
G75*
G02*
X169900000Y-80543750I0J-218750D01*
G01*
X169900000Y-81056250D01*
G75*
G02*
X169681250Y-81275000I-218750J0D01*
G01*
X169243750Y-81275000D01*
G75*
G02*
X169025000Y-81056250I0J218750D01*
G01*
G37*
%TD*%
%TO.C,C103*%
G36*
G01*
X200965000Y-83203750D02*
X200965000Y-83716250D01*
G75*
G02*
X200746250Y-83935000I-218750J0D01*
G01*
X200308750Y-83935000D01*
G75*
G02*
X200090000Y-83716250I0J218750D01*
G01*
X200090000Y-83203750D01*
G75*
G02*
X200308750Y-82985000I218750J0D01*
G01*
X200746250Y-82985000D01*
G75*
G02*
X200965000Y-83203750I0J-218750D01*
G01*
G37*
G36*
G01*
X202540000Y-83203750D02*
X202540000Y-83716250D01*
G75*
G02*
X202321250Y-83935000I-218750J0D01*
G01*
X201883750Y-83935000D01*
G75*
G02*
X201665000Y-83716250I0J218750D01*
G01*
X201665000Y-83203750D01*
G75*
G02*
X201883750Y-82985000I218750J0D01*
G01*
X202321250Y-82985000D01*
G75*
G02*
X202540000Y-83203750I0J-218750D01*
G01*
G37*
%TD*%
%TO.C,C104*%
G36*
G01*
X167450000Y-82656250D02*
X167450000Y-82143750D01*
G75*
G02*
X167668750Y-81925000I218750J0D01*
G01*
X168106250Y-81925000D01*
G75*
G02*
X168325000Y-82143750I0J-218750D01*
G01*
X168325000Y-82656250D01*
G75*
G02*
X168106250Y-82875000I-218750J0D01*
G01*
X167668750Y-82875000D01*
G75*
G02*
X167450000Y-82656250I0J218750D01*
G01*
G37*
G36*
G01*
X169025000Y-82656250D02*
X169025000Y-82143750D01*
G75*
G02*
X169243750Y-81925000I218750J0D01*
G01*
X169681250Y-81925000D01*
G75*
G02*
X169900000Y-82143750I0J-218750D01*
G01*
X169900000Y-82656250D01*
G75*
G02*
X169681250Y-82875000I-218750J0D01*
G01*
X169243750Y-82875000D01*
G75*
G02*
X169025000Y-82656250I0J218750D01*
G01*
G37*
%TD*%
%TO.C,C105*%
G36*
G01*
X200965000Y-81403750D02*
X200965000Y-81916250D01*
G75*
G02*
X200746250Y-82135000I-218750J0D01*
G01*
X200308750Y-82135000D01*
G75*
G02*
X200090000Y-81916250I0J218750D01*
G01*
X200090000Y-81403750D01*
G75*
G02*
X200308750Y-81185000I218750J0D01*
G01*
X200746250Y-81185000D01*
G75*
G02*
X200965000Y-81403750I0J-218750D01*
G01*
G37*
G36*
G01*
X202540000Y-81403750D02*
X202540000Y-81916250D01*
G75*
G02*
X202321250Y-82135000I-218750J0D01*
G01*
X201883750Y-82135000D01*
G75*
G02*
X201665000Y-81916250I0J218750D01*
G01*
X201665000Y-81403750D01*
G75*
G02*
X201883750Y-81185000I218750J0D01*
G01*
X202321250Y-81185000D01*
G75*
G02*
X202540000Y-81403750I0J-218750D01*
G01*
G37*
%TD*%
%TO.C,C108*%
G36*
G01*
X205415000Y-79103750D02*
X205415000Y-79616250D01*
G75*
G02*
X205196250Y-79835000I-218750J0D01*
G01*
X204758750Y-79835000D01*
G75*
G02*
X204540000Y-79616250I0J218750D01*
G01*
X204540000Y-79103750D01*
G75*
G02*
X204758750Y-78885000I218750J0D01*
G01*
X205196250Y-78885000D01*
G75*
G02*
X205415000Y-79103750I0J-218750D01*
G01*
G37*
G36*
G01*
X206990000Y-79103750D02*
X206990000Y-79616250D01*
G75*
G02*
X206771250Y-79835000I-218750J0D01*
G01*
X206333750Y-79835000D01*
G75*
G02*
X206115000Y-79616250I0J218750D01*
G01*
X206115000Y-79103750D01*
G75*
G02*
X206333750Y-78885000I218750J0D01*
G01*
X206771250Y-78885000D01*
G75*
G02*
X206990000Y-79103750I0J-218750D01*
G01*
G37*
%TD*%
%TO.C,C110*%
G36*
G01*
X163188750Y-90705000D02*
X163701250Y-90705000D01*
G75*
G02*
X163920000Y-90923750I0J-218750D01*
G01*
X163920000Y-91361250D01*
G75*
G02*
X163701250Y-91580000I-218750J0D01*
G01*
X163188750Y-91580000D01*
G75*
G02*
X162970000Y-91361250I0J218750D01*
G01*
X162970000Y-90923750D01*
G75*
G02*
X163188750Y-90705000I218750J0D01*
G01*
G37*
G36*
G01*
X163188750Y-92280000D02*
X163701250Y-92280000D01*
G75*
G02*
X163920000Y-92498750I0J-218750D01*
G01*
X163920000Y-92936250D01*
G75*
G02*
X163701250Y-93155000I-218750J0D01*
G01*
X163188750Y-93155000D01*
G75*
G02*
X162970000Y-92936250I0J218750D01*
G01*
X162970000Y-92498750D01*
G75*
G02*
X163188750Y-92280000I218750J0D01*
G01*
G37*
%TD*%
%TO.C,C111*%
G36*
G01*
X184050000Y-82318750D02*
X184050000Y-82831250D01*
G75*
G02*
X183831250Y-83050000I-218750J0D01*
G01*
X183393750Y-83050000D01*
G75*
G02*
X183175000Y-82831250I0J218750D01*
G01*
X183175000Y-82318750D01*
G75*
G02*
X183393750Y-82100000I218750J0D01*
G01*
X183831250Y-82100000D01*
G75*
G02*
X184050000Y-82318750I0J-218750D01*
G01*
G37*
G36*
G01*
X182475000Y-82318750D02*
X182475000Y-82831250D01*
G75*
G02*
X182256250Y-83050000I-218750J0D01*
G01*
X181818750Y-83050000D01*
G75*
G02*
X181600000Y-82831250I0J218750D01*
G01*
X181600000Y-82318750D01*
G75*
G02*
X181818750Y-82100000I218750J0D01*
G01*
X182256250Y-82100000D01*
G75*
G02*
X182475000Y-82318750I0J-218750D01*
G01*
G37*
%TD*%
%TO.C,C112*%
G36*
G01*
X190385000Y-82473750D02*
X190385000Y-82986250D01*
G75*
G02*
X190166250Y-83205000I-218750J0D01*
G01*
X189728750Y-83205000D01*
G75*
G02*
X189510000Y-82986250I0J218750D01*
G01*
X189510000Y-82473750D01*
G75*
G02*
X189728750Y-82255000I218750J0D01*
G01*
X190166250Y-82255000D01*
G75*
G02*
X190385000Y-82473750I0J-218750D01*
G01*
G37*
G36*
G01*
X191960000Y-82473750D02*
X191960000Y-82986250D01*
G75*
G02*
X191741250Y-83205000I-218750J0D01*
G01*
X191303750Y-83205000D01*
G75*
G02*
X191085000Y-82986250I0J218750D01*
G01*
X191085000Y-82473750D01*
G75*
G02*
X191303750Y-82255000I218750J0D01*
G01*
X191741250Y-82255000D01*
G75*
G02*
X191960000Y-82473750I0J-218750D01*
G01*
G37*
%TD*%
%TO.C,C113*%
G36*
G01*
X181625000Y-81081250D02*
X181625000Y-80568750D01*
G75*
G02*
X181843750Y-80350000I218750J0D01*
G01*
X182281250Y-80350000D01*
G75*
G02*
X182500000Y-80568750I0J-218750D01*
G01*
X182500000Y-81081250D01*
G75*
G02*
X182281250Y-81300000I-218750J0D01*
G01*
X181843750Y-81300000D01*
G75*
G02*
X181625000Y-81081250I0J218750D01*
G01*
G37*
G36*
G01*
X183200000Y-81081250D02*
X183200000Y-80568750D01*
G75*
G02*
X183418750Y-80350000I218750J0D01*
G01*
X183856250Y-80350000D01*
G75*
G02*
X184075000Y-80568750I0J-218750D01*
G01*
X184075000Y-81081250D01*
G75*
G02*
X183856250Y-81300000I-218750J0D01*
G01*
X183418750Y-81300000D01*
G75*
G02*
X183200000Y-81081250I0J218750D01*
G01*
G37*
%TD*%
%TO.C,C114*%
G36*
G01*
X189510000Y-81446250D02*
X189510000Y-80933750D01*
G75*
G02*
X189728750Y-80715000I218750J0D01*
G01*
X190166250Y-80715000D01*
G75*
G02*
X190385000Y-80933750I0J-218750D01*
G01*
X190385000Y-81446250D01*
G75*
G02*
X190166250Y-81665000I-218750J0D01*
G01*
X189728750Y-81665000D01*
G75*
G02*
X189510000Y-81446250I0J218750D01*
G01*
G37*
G36*
G01*
X191085000Y-81446250D02*
X191085000Y-80933750D01*
G75*
G02*
X191303750Y-80715000I218750J0D01*
G01*
X191741250Y-80715000D01*
G75*
G02*
X191960000Y-80933750I0J-218750D01*
G01*
X191960000Y-81446250D01*
G75*
G02*
X191741250Y-81665000I-218750J0D01*
G01*
X191303750Y-81665000D01*
G75*
G02*
X191085000Y-81446250I0J218750D01*
G01*
G37*
%TD*%
%TO.C,C115*%
G36*
G01*
X189600000Y-96606250D02*
X189600000Y-96093750D01*
G75*
G02*
X189818750Y-95875000I218750J0D01*
G01*
X190256250Y-95875000D01*
G75*
G02*
X190475000Y-96093750I0J-218750D01*
G01*
X190475000Y-96606250D01*
G75*
G02*
X190256250Y-96825000I-218750J0D01*
G01*
X189818750Y-96825000D01*
G75*
G02*
X189600000Y-96606250I0J218750D01*
G01*
G37*
G36*
G01*
X191175000Y-96606250D02*
X191175000Y-96093750D01*
G75*
G02*
X191393750Y-95875000I218750J0D01*
G01*
X191831250Y-95875000D01*
G75*
G02*
X192050000Y-96093750I0J-218750D01*
G01*
X192050000Y-96606250D01*
G75*
G02*
X191831250Y-96825000I-218750J0D01*
G01*
X191393750Y-96825000D01*
G75*
G02*
X191175000Y-96606250I0J218750D01*
G01*
G37*
%TD*%
%TO.C,C116*%
G36*
G01*
X181615000Y-96436250D02*
X181615000Y-95923750D01*
G75*
G02*
X181833750Y-95705000I218750J0D01*
G01*
X182271250Y-95705000D01*
G75*
G02*
X182490000Y-95923750I0J-218750D01*
G01*
X182490000Y-96436250D01*
G75*
G02*
X182271250Y-96655000I-218750J0D01*
G01*
X181833750Y-96655000D01*
G75*
G02*
X181615000Y-96436250I0J218750D01*
G01*
G37*
G36*
G01*
X183190000Y-96436250D02*
X183190000Y-95923750D01*
G75*
G02*
X183408750Y-95705000I218750J0D01*
G01*
X183846250Y-95705000D01*
G75*
G02*
X184065000Y-95923750I0J-218750D01*
G01*
X184065000Y-96436250D01*
G75*
G02*
X183846250Y-96655000I-218750J0D01*
G01*
X183408750Y-96655000D01*
G75*
G02*
X183190000Y-96436250I0J218750D01*
G01*
G37*
%TD*%
%TO.C,C117*%
G36*
G01*
X191175000Y-98206250D02*
X191175000Y-97693750D01*
G75*
G02*
X191393750Y-97475000I218750J0D01*
G01*
X191831250Y-97475000D01*
G75*
G02*
X192050000Y-97693750I0J-218750D01*
G01*
X192050000Y-98206250D01*
G75*
G02*
X191831250Y-98425000I-218750J0D01*
G01*
X191393750Y-98425000D01*
G75*
G02*
X191175000Y-98206250I0J218750D01*
G01*
G37*
G36*
G01*
X189600000Y-98206250D02*
X189600000Y-97693750D01*
G75*
G02*
X189818750Y-97475000I218750J0D01*
G01*
X190256250Y-97475000D01*
G75*
G02*
X190475000Y-97693750I0J-218750D01*
G01*
X190475000Y-98206250D01*
G75*
G02*
X190256250Y-98425000I-218750J0D01*
G01*
X189818750Y-98425000D01*
G75*
G02*
X189600000Y-98206250I0J218750D01*
G01*
G37*
%TD*%
%TO.C,C118*%
G36*
G01*
X183195000Y-97956250D02*
X183195000Y-97443750D01*
G75*
G02*
X183413750Y-97225000I218750J0D01*
G01*
X183851250Y-97225000D01*
G75*
G02*
X184070000Y-97443750I0J-218750D01*
G01*
X184070000Y-97956250D01*
G75*
G02*
X183851250Y-98175000I-218750J0D01*
G01*
X183413750Y-98175000D01*
G75*
G02*
X183195000Y-97956250I0J218750D01*
G01*
G37*
G36*
G01*
X181620000Y-97956250D02*
X181620000Y-97443750D01*
G75*
G02*
X181838750Y-97225000I218750J0D01*
G01*
X182276250Y-97225000D01*
G75*
G02*
X182495000Y-97443750I0J-218750D01*
G01*
X182495000Y-97956250D01*
G75*
G02*
X182276250Y-98175000I-218750J0D01*
G01*
X181838750Y-98175000D01*
G75*
G02*
X181620000Y-97956250I0J218750D01*
G01*
G37*
%TD*%
D10*
%TO.C,D102*%
X153755000Y-97520000D03*
X153755000Y-94220000D03*
%TD*%
%TO.C,D103*%
G36*
G01*
X154655000Y-89476250D02*
X154655000Y-88963750D01*
G75*
G02*
X154873750Y-88745000I218750J0D01*
G01*
X155311250Y-88745000D01*
G75*
G02*
X155530000Y-88963750I0J-218750D01*
G01*
X155530000Y-89476250D01*
G75*
G02*
X155311250Y-89695000I-218750J0D01*
G01*
X154873750Y-89695000D01*
G75*
G02*
X154655000Y-89476250I0J218750D01*
G01*
G37*
G36*
G01*
X153080000Y-89476250D02*
X153080000Y-88963750D01*
G75*
G02*
X153298750Y-88745000I218750J0D01*
G01*
X153736250Y-88745000D01*
G75*
G02*
X153955000Y-88963750I0J-218750D01*
G01*
X153955000Y-89476250D01*
G75*
G02*
X153736250Y-89695000I-218750J0D01*
G01*
X153298750Y-89695000D01*
G75*
G02*
X153080000Y-89476250I0J218750D01*
G01*
G37*
%TD*%
%TO.C,R102*%
G36*
G01*
X143150000Y-72243750D02*
X143150000Y-72756250D01*
G75*
G02*
X142931250Y-72975000I-218750J0D01*
G01*
X142493750Y-72975000D01*
G75*
G02*
X142275000Y-72756250I0J218750D01*
G01*
X142275000Y-72243750D01*
G75*
G02*
X142493750Y-72025000I218750J0D01*
G01*
X142931250Y-72025000D01*
G75*
G02*
X143150000Y-72243750I0J-218750D01*
G01*
G37*
G36*
G01*
X141575000Y-72243750D02*
X141575000Y-72756250D01*
G75*
G02*
X141356250Y-72975000I-218750J0D01*
G01*
X140918750Y-72975000D01*
G75*
G02*
X140700000Y-72756250I0J218750D01*
G01*
X140700000Y-72243750D01*
G75*
G02*
X140918750Y-72025000I218750J0D01*
G01*
X141356250Y-72025000D01*
G75*
G02*
X141575000Y-72243750I0J-218750D01*
G01*
G37*
%TD*%
%TO.C,R104*%
G36*
G01*
X151545000Y-89476250D02*
X151545000Y-88963750D01*
G75*
G02*
X151763750Y-88745000I218750J0D01*
G01*
X152201250Y-88745000D01*
G75*
G02*
X152420000Y-88963750I0J-218750D01*
G01*
X152420000Y-89476250D01*
G75*
G02*
X152201250Y-89695000I-218750J0D01*
G01*
X151763750Y-89695000D01*
G75*
G02*
X151545000Y-89476250I0J218750D01*
G01*
G37*
G36*
G01*
X149970000Y-89476250D02*
X149970000Y-88963750D01*
G75*
G02*
X150188750Y-88745000I218750J0D01*
G01*
X150626250Y-88745000D01*
G75*
G02*
X150845000Y-88963750I0J-218750D01*
G01*
X150845000Y-89476250D01*
G75*
G02*
X150626250Y-89695000I-218750J0D01*
G01*
X150188750Y-89695000D01*
G75*
G02*
X149970000Y-89476250I0J218750D01*
G01*
G37*
%TD*%
%TO.C,Radd1*%
G36*
G01*
X169850000Y-101256250D02*
X169850000Y-100743750D01*
G75*
G02*
X170068750Y-100525000I218750J0D01*
G01*
X170506250Y-100525000D01*
G75*
G02*
X170725000Y-100743750I0J-218750D01*
G01*
X170725000Y-101256250D01*
G75*
G02*
X170506250Y-101475000I-218750J0D01*
G01*
X170068750Y-101475000D01*
G75*
G02*
X169850000Y-101256250I0J218750D01*
G01*
G37*
G36*
G01*
X171425000Y-101256250D02*
X171425000Y-100743750D01*
G75*
G02*
X171643750Y-100525000I218750J0D01*
G01*
X172081250Y-100525000D01*
G75*
G02*
X172300000Y-100743750I0J-218750D01*
G01*
X172300000Y-101256250D01*
G75*
G02*
X172081250Y-101475000I-218750J0D01*
G01*
X171643750Y-101475000D01*
G75*
G02*
X171425000Y-101256250I0J218750D01*
G01*
G37*
%TD*%
D11*
%TO.C,SW101*%
X140935000Y-84945000D03*
X158715000Y-76055000D03*
X143475000Y-84945000D03*
X156175000Y-76055000D03*
X146015000Y-84945000D03*
X153635000Y-76055000D03*
X148555000Y-84945000D03*
X151095000Y-76055000D03*
X151095000Y-84945000D03*
X148555000Y-76055000D03*
X153635000Y-84945000D03*
X146015000Y-76055000D03*
X156175000Y-84945000D03*
X143475000Y-76055000D03*
X158715000Y-84945000D03*
X140935000Y-76055000D03*
%TD*%
%TO.C,U103*%
G36*
G01*
X191070000Y-83775000D02*
X191370000Y-83775000D01*
G75*
G02*
X191520000Y-83925000I0J-150000D01*
G01*
X191520000Y-85675000D01*
G75*
G02*
X191370000Y-85825000I-150000J0D01*
G01*
X191070000Y-85825000D01*
G75*
G02*
X190920000Y-85675000I0J150000D01*
G01*
X190920000Y-83925000D01*
G75*
G02*
X191070000Y-83775000I150000J0D01*
G01*
G37*
G36*
G01*
X189800000Y-83775000D02*
X190100000Y-83775000D01*
G75*
G02*
X190250000Y-83925000I0J-150000D01*
G01*
X190250000Y-85675000D01*
G75*
G02*
X190100000Y-85825000I-150000J0D01*
G01*
X189800000Y-85825000D01*
G75*
G02*
X189650000Y-85675000I0J150000D01*
G01*
X189650000Y-83925000D01*
G75*
G02*
X189800000Y-83775000I150000J0D01*
G01*
G37*
G36*
G01*
X188530000Y-83775000D02*
X188830000Y-83775000D01*
G75*
G02*
X188980000Y-83925000I0J-150000D01*
G01*
X188980000Y-85675000D01*
G75*
G02*
X188830000Y-85825000I-150000J0D01*
G01*
X188530000Y-85825000D01*
G75*
G02*
X188380000Y-85675000I0J150000D01*
G01*
X188380000Y-83925000D01*
G75*
G02*
X188530000Y-83775000I150000J0D01*
G01*
G37*
G36*
G01*
X187260000Y-83775000D02*
X187560000Y-83775000D01*
G75*
G02*
X187710000Y-83925000I0J-150000D01*
G01*
X187710000Y-85675000D01*
G75*
G02*
X187560000Y-85825000I-150000J0D01*
G01*
X187260000Y-85825000D01*
G75*
G02*
X187110000Y-85675000I0J150000D01*
G01*
X187110000Y-83925000D01*
G75*
G02*
X187260000Y-83775000I150000J0D01*
G01*
G37*
G36*
G01*
X185990000Y-83775000D02*
X186290000Y-83775000D01*
G75*
G02*
X186440000Y-83925000I0J-150000D01*
G01*
X186440000Y-85675000D01*
G75*
G02*
X186290000Y-85825000I-150000J0D01*
G01*
X185990000Y-85825000D01*
G75*
G02*
X185840000Y-85675000I0J150000D01*
G01*
X185840000Y-83925000D01*
G75*
G02*
X185990000Y-83775000I150000J0D01*
G01*
G37*
G36*
G01*
X184720000Y-83775000D02*
X185020000Y-83775000D01*
G75*
G02*
X185170000Y-83925000I0J-150000D01*
G01*
X185170000Y-85675000D01*
G75*
G02*
X185020000Y-85825000I-150000J0D01*
G01*
X184720000Y-85825000D01*
G75*
G02*
X184570000Y-85675000I0J150000D01*
G01*
X184570000Y-83925000D01*
G75*
G02*
X184720000Y-83775000I150000J0D01*
G01*
G37*
G36*
G01*
X183450000Y-83775000D02*
X183750000Y-83775000D01*
G75*
G02*
X183900000Y-83925000I0J-150000D01*
G01*
X183900000Y-85675000D01*
G75*
G02*
X183750000Y-85825000I-150000J0D01*
G01*
X183450000Y-85825000D01*
G75*
G02*
X183300000Y-85675000I0J150000D01*
G01*
X183300000Y-83925000D01*
G75*
G02*
X183450000Y-83775000I150000J0D01*
G01*
G37*
G36*
G01*
X182180000Y-83775000D02*
X182480000Y-83775000D01*
G75*
G02*
X182630000Y-83925000I0J-150000D01*
G01*
X182630000Y-85675000D01*
G75*
G02*
X182480000Y-85825000I-150000J0D01*
G01*
X182180000Y-85825000D01*
G75*
G02*
X182030000Y-85675000I0J150000D01*
G01*
X182030000Y-83925000D01*
G75*
G02*
X182180000Y-83775000I150000J0D01*
G01*
G37*
G36*
G01*
X182180000Y-93075000D02*
X182480000Y-93075000D01*
G75*
G02*
X182630000Y-93225000I0J-150000D01*
G01*
X182630000Y-94975000D01*
G75*
G02*
X182480000Y-95125000I-150000J0D01*
G01*
X182180000Y-95125000D01*
G75*
G02*
X182030000Y-94975000I0J150000D01*
G01*
X182030000Y-93225000D01*
G75*
G02*
X182180000Y-93075000I150000J0D01*
G01*
G37*
G36*
G01*
X183450000Y-93075000D02*
X183750000Y-93075000D01*
G75*
G02*
X183900000Y-93225000I0J-150000D01*
G01*
X183900000Y-94975000D01*
G75*
G02*
X183750000Y-95125000I-150000J0D01*
G01*
X183450000Y-95125000D01*
G75*
G02*
X183300000Y-94975000I0J150000D01*
G01*
X183300000Y-93225000D01*
G75*
G02*
X183450000Y-93075000I150000J0D01*
G01*
G37*
G36*
G01*
X184720000Y-93075000D02*
X185020000Y-93075000D01*
G75*
G02*
X185170000Y-93225000I0J-150000D01*
G01*
X185170000Y-94975000D01*
G75*
G02*
X185020000Y-95125000I-150000J0D01*
G01*
X184720000Y-95125000D01*
G75*
G02*
X184570000Y-94975000I0J150000D01*
G01*
X184570000Y-93225000D01*
G75*
G02*
X184720000Y-93075000I150000J0D01*
G01*
G37*
G36*
G01*
X185990000Y-93075000D02*
X186290000Y-93075000D01*
G75*
G02*
X186440000Y-93225000I0J-150000D01*
G01*
X186440000Y-94975000D01*
G75*
G02*
X186290000Y-95125000I-150000J0D01*
G01*
X185990000Y-95125000D01*
G75*
G02*
X185840000Y-94975000I0J150000D01*
G01*
X185840000Y-93225000D01*
G75*
G02*
X185990000Y-93075000I150000J0D01*
G01*
G37*
G36*
G01*
X187260000Y-93075000D02*
X187560000Y-93075000D01*
G75*
G02*
X187710000Y-93225000I0J-150000D01*
G01*
X187710000Y-94975000D01*
G75*
G02*
X187560000Y-95125000I-150000J0D01*
G01*
X187260000Y-95125000D01*
G75*
G02*
X187110000Y-94975000I0J150000D01*
G01*
X187110000Y-93225000D01*
G75*
G02*
X187260000Y-93075000I150000J0D01*
G01*
G37*
G36*
G01*
X188530000Y-93075000D02*
X188830000Y-93075000D01*
G75*
G02*
X188980000Y-93225000I0J-150000D01*
G01*
X188980000Y-94975000D01*
G75*
G02*
X188830000Y-95125000I-150000J0D01*
G01*
X188530000Y-95125000D01*
G75*
G02*
X188380000Y-94975000I0J150000D01*
G01*
X188380000Y-93225000D01*
G75*
G02*
X188530000Y-93075000I150000J0D01*
G01*
G37*
G36*
G01*
X189800000Y-93075000D02*
X190100000Y-93075000D01*
G75*
G02*
X190250000Y-93225000I0J-150000D01*
G01*
X190250000Y-94975000D01*
G75*
G02*
X190100000Y-95125000I-150000J0D01*
G01*
X189800000Y-95125000D01*
G75*
G02*
X189650000Y-94975000I0J150000D01*
G01*
X189650000Y-93225000D01*
G75*
G02*
X189800000Y-93075000I150000J0D01*
G01*
G37*
G36*
G01*
X191070000Y-93075000D02*
X191370000Y-93075000D01*
G75*
G02*
X191520000Y-93225000I0J-150000D01*
G01*
X191520000Y-94975000D01*
G75*
G02*
X191370000Y-95125000I-150000J0D01*
G01*
X191070000Y-95125000D01*
G75*
G02*
X190920000Y-94975000I0J150000D01*
G01*
X190920000Y-93225000D01*
G75*
G02*
X191070000Y-93075000I150000J0D01*
G01*
G37*
%TD*%
%TO.C,F1*%
G36*
G01*
X153275000Y-101125000D02*
X153275000Y-102375000D01*
G75*
G02*
X153025000Y-102625000I-250000J0D01*
G01*
X152100000Y-102625000D01*
G75*
G02*
X151850000Y-102375000I0J250000D01*
G01*
X151850000Y-101125000D01*
G75*
G02*
X152100000Y-100875000I250000J0D01*
G01*
X153025000Y-100875000D01*
G75*
G02*
X153275000Y-101125000I0J-250000D01*
G01*
G37*
G36*
G01*
X150300000Y-101125000D02*
X150300000Y-102375000D01*
G75*
G02*
X150050000Y-102625000I-250000J0D01*
G01*
X149125000Y-102625000D01*
G75*
G02*
X148875000Y-102375000I0J250000D01*
G01*
X148875000Y-101125000D01*
G75*
G02*
X149125000Y-100875000I250000J0D01*
G01*
X150050000Y-100875000D01*
G75*
G02*
X150300000Y-101125000I0J-250000D01*
G01*
G37*
%TD*%
%TO.C,C101*%
G36*
G01*
X166025000Y-95550000D02*
X166025000Y-94450000D01*
G75*
G02*
X166275000Y-94200000I250000J0D01*
G01*
X169275000Y-94200000D01*
G75*
G02*
X169525000Y-94450000I0J-250000D01*
G01*
X169525000Y-95550000D01*
G75*
G02*
X169275000Y-95800000I-250000J0D01*
G01*
X166275000Y-95800000D01*
G75*
G02*
X166025000Y-95550000I0J250000D01*
G01*
G37*
G36*
G01*
X171625000Y-95550000D02*
X171625000Y-94450000D01*
G75*
G02*
X171875000Y-94200000I250000J0D01*
G01*
X174875000Y-94200000D01*
G75*
G02*
X175125000Y-94450000I0J-250000D01*
G01*
X175125000Y-95550000D01*
G75*
G02*
X174875000Y-95800000I-250000J0D01*
G01*
X171875000Y-95800000D01*
G75*
G02*
X171625000Y-95550000I0J250000D01*
G01*
G37*
%TD*%
%TO.C,C119*%
G36*
G01*
X155580010Y-70372597D02*
X155942403Y-70734990D01*
G75*
G02*
X155942403Y-71044350I-154680J-154680D01*
G01*
X155633044Y-71353709D01*
G75*
G02*
X155323684Y-71353709I-154680J154680D01*
G01*
X154961291Y-70991316D01*
G75*
G02*
X154961291Y-70681956I154680J154680D01*
G01*
X155270650Y-70372597D01*
G75*
G02*
X155580010Y-70372597I154680J-154680D01*
G01*
G37*
G36*
G01*
X154466316Y-71486291D02*
X154828709Y-71848684D01*
G75*
G02*
X154828709Y-72158044I-154680J-154680D01*
G01*
X154519350Y-72467403D01*
G75*
G02*
X154209990Y-72467403I-154680J154680D01*
G01*
X153847597Y-72105010D01*
G75*
G02*
X153847597Y-71795650I154680J154680D01*
G01*
X154156956Y-71486291D01*
G75*
G02*
X154466316Y-71486291I154680J-154680D01*
G01*
G37*
%TD*%
%TO.C,C122*%
G36*
G01*
X176945889Y-82365896D02*
X176583496Y-82728289D01*
G75*
G02*
X176274136Y-82728289I-154680J154680D01*
G01*
X175964777Y-82418930D01*
G75*
G02*
X175964777Y-82109570I154680J154680D01*
G01*
X176327170Y-81747177D01*
G75*
G02*
X176636530Y-81747177I154680J-154680D01*
G01*
X176945889Y-82056536D01*
G75*
G02*
X176945889Y-82365896I-154680J-154680D01*
G01*
G37*
G36*
G01*
X178059583Y-83479590D02*
X177697190Y-83841983D01*
G75*
G02*
X177387830Y-83841983I-154680J154680D01*
G01*
X177078471Y-83532624D01*
G75*
G02*
X177078471Y-83223264I154680J154680D01*
G01*
X177440864Y-82860871D01*
G75*
G02*
X177750224Y-82860871I154680J-154680D01*
G01*
X178059583Y-83170230D01*
G75*
G02*
X178059583Y-83479590I-154680J-154680D01*
G01*
G37*
%TD*%
%TO.C,D104*%
G36*
G01*
X168671250Y-77127500D02*
X168158750Y-77127500D01*
G75*
G02*
X167940000Y-76908750I0J218750D01*
G01*
X167940000Y-76471250D01*
G75*
G02*
X168158750Y-76252500I218750J0D01*
G01*
X168671250Y-76252500D01*
G75*
G02*
X168890000Y-76471250I0J-218750D01*
G01*
X168890000Y-76908750D01*
G75*
G02*
X168671250Y-77127500I-218750J0D01*
G01*
G37*
G36*
G01*
X168671250Y-78702500D02*
X168158750Y-78702500D01*
G75*
G02*
X167940000Y-78483750I0J218750D01*
G01*
X167940000Y-78046250D01*
G75*
G02*
X168158750Y-77827500I218750J0D01*
G01*
X168671250Y-77827500D01*
G75*
G02*
X168890000Y-78046250I0J-218750D01*
G01*
X168890000Y-78483750D01*
G75*
G02*
X168671250Y-78702500I-218750J0D01*
G01*
G37*
%TD*%
%TO.C,D105*%
G36*
G01*
X171921250Y-78745000D02*
X171408750Y-78745000D01*
G75*
G02*
X171190000Y-78526250I0J218750D01*
G01*
X171190000Y-78088750D01*
G75*
G02*
X171408750Y-77870000I218750J0D01*
G01*
X171921250Y-77870000D01*
G75*
G02*
X172140000Y-78088750I0J-218750D01*
G01*
X172140000Y-78526250D01*
G75*
G02*
X171921250Y-78745000I-218750J0D01*
G01*
G37*
G36*
G01*
X171921250Y-77170000D02*
X171408750Y-77170000D01*
G75*
G02*
X171190000Y-76951250I0J218750D01*
G01*
X171190000Y-76513750D01*
G75*
G02*
X171408750Y-76295000I218750J0D01*
G01*
X171921250Y-76295000D01*
G75*
G02*
X172140000Y-76513750I0J-218750D01*
G01*
X172140000Y-76951250D01*
G75*
G02*
X171921250Y-77170000I-218750J0D01*
G01*
G37*
%TD*%
%TO.C,R1*%
G36*
G01*
X169768750Y-76295000D02*
X170281250Y-76295000D01*
G75*
G02*
X170500000Y-76513750I0J-218750D01*
G01*
X170500000Y-76951250D01*
G75*
G02*
X170281250Y-77170000I-218750J0D01*
G01*
X169768750Y-77170000D01*
G75*
G02*
X169550000Y-76951250I0J218750D01*
G01*
X169550000Y-76513750D01*
G75*
G02*
X169768750Y-76295000I218750J0D01*
G01*
G37*
G36*
G01*
X169768750Y-77870000D02*
X170281250Y-77870000D01*
G75*
G02*
X170500000Y-78088750I0J-218750D01*
G01*
X170500000Y-78526250D01*
G75*
G02*
X170281250Y-78745000I-218750J0D01*
G01*
X169768750Y-78745000D01*
G75*
G02*
X169550000Y-78526250I0J218750D01*
G01*
X169550000Y-78088750D01*
G75*
G02*
X169768750Y-77870000I218750J0D01*
G01*
G37*
%TD*%
D12*
%TO.C,U104*%
X158785000Y-91590000D03*
D13*
X158785000Y-97890000D03*
X161085000Y-97890000D03*
X156485000Y-97890000D03*
%TD*%
D14*
%TO.C,ESD1*%
X168325000Y-100050000D03*
X168325000Y-101450000D03*
%TD*%
%TO.C,D101*%
G36*
G01*
X143200000Y-100643750D02*
X143200000Y-101156250D01*
G75*
G02*
X142981250Y-101375000I-218750J0D01*
G01*
X142543750Y-101375000D01*
G75*
G02*
X142325000Y-101156250I0J218750D01*
G01*
X142325000Y-100643750D01*
G75*
G02*
X142543750Y-100425000I218750J0D01*
G01*
X142981250Y-100425000D01*
G75*
G02*
X143200000Y-100643750I0J-218750D01*
G01*
G37*
G36*
G01*
X141625000Y-100643750D02*
X141625000Y-101156250D01*
G75*
G02*
X141406250Y-101375000I-218750J0D01*
G01*
X140968750Y-101375000D01*
G75*
G02*
X140750000Y-101156250I0J218750D01*
G01*
X140750000Y-100643750D01*
G75*
G02*
X140968750Y-100425000I218750J0D01*
G01*
X141406250Y-100425000D01*
G75*
G02*
X141625000Y-100643750I0J-218750D01*
G01*
G37*
%TD*%
%TO.C,D106*%
G36*
G01*
X180621250Y-98165000D02*
X180108750Y-98165000D01*
G75*
G02*
X179890000Y-97946250I0J218750D01*
G01*
X179890000Y-97508750D01*
G75*
G02*
X180108750Y-97290000I218750J0D01*
G01*
X180621250Y-97290000D01*
G75*
G02*
X180840000Y-97508750I0J-218750D01*
G01*
X180840000Y-97946250D01*
G75*
G02*
X180621250Y-98165000I-218750J0D01*
G01*
G37*
G36*
G01*
X180621250Y-96590000D02*
X180108750Y-96590000D01*
G75*
G02*
X179890000Y-96371250I0J218750D01*
G01*
X179890000Y-95933750D01*
G75*
G02*
X180108750Y-95715000I218750J0D01*
G01*
X180621250Y-95715000D01*
G75*
G02*
X180840000Y-95933750I0J-218750D01*
G01*
X180840000Y-96371250D01*
G75*
G02*
X180621250Y-96590000I-218750J0D01*
G01*
G37*
%TD*%
%TO.C,D107*%
G36*
G01*
X194531250Y-95920000D02*
X194018750Y-95920000D01*
G75*
G02*
X193800000Y-95701250I0J218750D01*
G01*
X193800000Y-95263750D01*
G75*
G02*
X194018750Y-95045000I218750J0D01*
G01*
X194531250Y-95045000D01*
G75*
G02*
X194750000Y-95263750I0J-218750D01*
G01*
X194750000Y-95701250D01*
G75*
G02*
X194531250Y-95920000I-218750J0D01*
G01*
G37*
G36*
G01*
X194531250Y-97495000D02*
X194018750Y-97495000D01*
G75*
G02*
X193800000Y-97276250I0J218750D01*
G01*
X193800000Y-96838750D01*
G75*
G02*
X194018750Y-96620000I218750J0D01*
G01*
X194531250Y-96620000D01*
G75*
G02*
X194750000Y-96838750I0J-218750D01*
G01*
X194750000Y-97276250D01*
G75*
G02*
X194531250Y-97495000I-218750J0D01*
G01*
G37*
%TD*%
M02*
