M48
; DRILL file {KiCad 5.1.9+dfsg1-1~bpo10+1} date Mon Mar  8 15:46:06 2021
; FORMAT={-:-/ absolute / inch / decimal}
; #@! TF.CreationDate,2021-03-08T15:46:06+01:00
; #@! TF.GenerationSoftware,Kicad,Pcbnew,5.1.9+dfsg1-1~bpo10+1
; #@! TF.FileFunction,Plated,1,4,PTH
FMAT,2
INCH
T1C0.0118
T2C0.0157
T3C0.0197
T4C0.0350
T5C0.0362
T6C0.0394
T7C0.0551
T8C0.0618
T9C0.0906
T10C0.1260
%
G90
G05
T1
X5.3868Y-2.4508
X5.3868Y-2.5689
X5.3868Y-2.687
X5.3868Y-2.8051
X5.3868Y-2.9232
X5.3868Y-3.0413
X5.3868Y-3.1594
X5.3868Y-3.2776
X5.3868Y-3.3957
X5.3868Y-3.5138
X5.3868Y-3.6319
X5.3868Y-3.75
X5.3868Y-3.8681
X5.3868Y-3.9862
X5.3868Y-4.1043
X5.3868Y-4.2224
X5.3868Y-4.3406
X5.3868Y-4.4587
X5.3967Y-2.3425
X5.4163Y-4.5177
X5.5049Y-2.3327
X5.5049Y-4.5374
X5.5148Y-3.4646
X5.5443Y-3.248
X5.5541Y-3.0906
X5.6191Y-2.8937
X5.623Y-2.3327
X5.623Y-4.5374
X5.6427Y-3.0906
X5.6526Y-3.2185
X5.6821Y-3.4646
X5.7313Y-3.0906
X5.7411Y-2.3327
X5.7411Y-4.5374
X5.8297Y-3.0906
X5.8396Y-2.874
X5.8593Y-2.3327
X5.8593Y-4.5374
X5.8691Y-3.4646
X5.8888Y-2.4606
X5.8888Y-2.7067
X5.9215Y-3.552
X5.938Y-3.0906
X5.9774Y-2.3327
X5.9774Y-4.5374
X5.997Y-2.5787
X6.0364Y-2.5394
X6.0364Y-3.0906
X6.0758Y-3.4646
X6.0955Y-2.3327
X6.0955Y-4.5374
X6.1348Y-3.0906
X6.1451Y-3.513
X6.1841Y-2.4606
X6.1841Y-2.7067
X6.2136Y-2.3327
X6.2136Y-4.5374
X6.2333Y-3.0906
X6.2628Y-3.4646
X6.3022Y-2.8445
X6.3317Y-2.3327
X6.3317Y-4.5374
X6.3415Y-2.5886
X6.3769Y-3.2288
X6.3809Y-3.9764
X6.4163Y-3.1894
X6.4281Y-3.3543
X6.4498Y-2.3327
X6.4498Y-4.5374
X6.4596Y-2.4508
X6.4695Y-2.7461
X6.4695Y-3.4843
X6.499Y-3.6614
X6.499Y-3.8386
X6.499Y-3.9961
X6.499Y-4.3012
X6.499Y-4.4291
X6.5285Y-2.687
X6.5384Y-3.4055
X6.5607Y-3.2651
X6.5679Y-2.3327
X6.5679Y-4.5374
X6.5778Y-2.6378
X6.5876Y-3.5138
X6.5974Y-2.8937
X6.5974Y-2.9429
X6.5974Y-3.002
X6.6073Y-2.5492
X6.6279Y-3.2746
X6.6368Y-2.8248
X6.6368Y-3.0512
X6.6418Y-3.3912
X6.6486Y-2.5748
X6.6565Y-2.8937
X6.6565Y-2.9429
X6.6565Y-3.002
X6.6762Y-2.815
X6.6762Y-3.0512
X6.686Y-2.3327
X6.686Y-2.4531
X6.686Y-3.2874
X6.686Y-4.5374
X6.688Y-3.5138
X6.7028Y-3.2441
X6.7073Y-3.0562
X6.7116Y-2.5748
X6.7156Y-2.8937
X6.7156Y-2.9429
X6.7156Y-3.002
X6.7156Y-3.1693
X6.7352Y-2.8248
X6.7549Y-2.7165
X6.7746Y-2.8937
X6.7746Y-2.9429
X6.7746Y-3.002
X6.7844Y-3.2579
X6.7844Y-3.2874
X6.7943Y-2.7165
X6.7943Y-3.1594
X6.7943Y-3.5236
X6.8041Y-2.3327
X6.8041Y-2.9232
X6.8041Y-4.5374
X6.8105Y-3.2138
X6.8337Y-3.1102
X6.8533Y-2.4705
X6.8827Y-2.7756
X6.8927Y-2.4311
X6.8927Y-3.1496
X6.8973Y-2.7369
X6.9124Y-2.9528
X6.9124Y-2.9823
X6.9219Y-3.0484
X6.9222Y-2.3327
X6.9222Y-3.4252
X6.9222Y-3.4843
X6.9222Y-3.5433
X6.9222Y-3.6024
X6.9222Y-3.6614
X6.9222Y-3.7205
X6.9222Y-3.7795
X6.9222Y-3.8386
X6.9222Y-3.8976
X6.9222Y-3.9567
X6.9222Y-4.0157
X6.9222Y-4.0748
X6.9222Y-4.1339
X6.9222Y-4.1929
X6.9222Y-4.252
X6.9222Y-4.311
X6.9222Y-4.3701
X6.9222Y-4.4291
X6.9222Y-4.4882
X6.9222Y-4.5374
X6.9418Y-2.7552
X6.9419Y-3.376
X6.9518Y-2.9528
X6.9663Y-3.0909
X6.9911Y-3.3563
X6.998Y-3.0574
X7.0207Y-3.7776
X7.0207Y-3.8366
X7.0207Y-3.8957
X7.0207Y-3.9547
X7.0207Y-4.0138
X7.0207Y-4.0748
X7.0207Y-4.1339
X7.0207Y-4.1929
X7.0207Y-4.252
X7.0207Y-4.311
X7.0207Y-4.3701
X7.0207Y-4.4291
X7.0207Y-4.4882
X7.0207Y-4.5374
X7.0305Y-3.7185
X7.0396Y-2.578
X7.0404Y-2.3327
X7.0502Y-3.3563
X7.0699Y-3.6811
X7.0797Y-3.002
X7.0797Y-4.5374
X7.0994Y-2.815
X7.1093Y-3.3563
X7.1159Y-2.9102
X7.1289Y-3.1496
X7.1289Y-3.6713
X7.1374Y-3.0297
X7.1388Y-4.5374
X7.1585Y-2.3327
X7.1663Y-3.1437
X7.1663Y-3.8917
X7.1734Y-3.0051
X7.1978Y-4.5374
X7.2274Y-2.4311
X7.2293Y-3.1437
X7.2313Y-2.8071
X7.2467Y-3.0297
X7.2569Y-4.5374
X7.2667Y-2.7362
X7.2766Y-2.3327
X7.3159Y-4.5374
X7.3278Y-3.8295
X7.3278Y-3.7932
X7.3337Y-2.8071
X7.3455Y-3.9665
X7.362Y-3.0051
X7.3652Y-3.0512
X7.375Y-4.5374
X7.3866Y-3.8583
X7.3947Y-2.3327
X7.4201Y-3.8583
X7.4341Y-3.1398
X7.4341Y-4.5374
X7.436Y-2.8071
X7.4399Y-4.004
X7.4636Y-3.9803
X7.4813Y-3.1496
X7.4931Y-4.5374
X7.5128Y-2.3327
X7.5404Y-2.8071
X7.5423Y-2.4311
X7.5423Y-3.1496
X7.5443Y-3.8917
X7.5522Y-3.061
X7.5522Y-4.5374
X7.5719Y-3.6713
X7.5817Y-3.3563
X7.6014Y-4.0945
X7.6014Y-4.1339
X7.6112Y-4.5374
X7.6211Y-3.6713
X7.6309Y-2.3327
X7.6703Y-3.3563
X7.6703Y-4.5374
X7.6801Y-3.6713
X7.6886Y-3.2245
X7.7191Y-3.974
X7.7279Y-3.1851
X7.7293Y-3.7795
X7.7293Y-4.5374
X7.7392Y-3.6713
X7.749Y-2.3327
X7.749Y-3.3563
X7.7884Y-4.5374
X7.7982Y-3.6713
X7.8376Y-3.3563
X7.8474Y-4.5374
X7.8573Y-3.6713
X7.8671Y-2.3327
X7.9065Y-3.3563
X7.9065Y-4.5374
X7.9163Y-3.6713
X7.9656Y-4.5374
X7.9754Y-3.3563
X7.9754Y-3.6713
X7.9852Y-2.3327
X7.9852Y-4.2224
X8.0049Y-3.9961
X8.0049Y-4.0748
X8.0246Y-4.5374
X8.0443Y-3.3563
X8.0443Y-3.6713
X8.0738Y-3.9961
X8.0738Y-4.0748
X8.0837Y-4.5374
X8.1033Y-2.3327
X8.1033Y-3.7106
X8.1132Y-3.3169
X8.1329Y-3.9961
X8.1329Y-4.0748
X8.1427Y-4.5374
X8.1526Y-3.7894
X8.1919Y-3.9961
X8.1919Y-4.0748
X8.2018Y-3.2382
X8.2018Y-3.7894
X8.2018Y-4.5374
X8.2215Y-2.3327
X8.2608Y-3.7894
X8.2608Y-3.9961
X8.2608Y-4.0748
X8.2608Y-4.5374
X8.3199Y-3.2382
X8.3199Y-3.7894
X8.3199Y-4.5374
X8.3396Y-2.3327
X8.3789Y-3.7894
X8.3789Y-4.5374
X8.438Y-3.2382
X8.438Y-3.7894
X8.438Y-4.5374
X8.4577Y-2.3327
X8.497Y-3.7894
X8.497Y-4.5374
X8.5561Y-3.2382
X8.5561Y-3.7894
X8.5758Y-2.3327
X8.5856Y-4.5374
X8.6152Y-3.7894
X8.6447Y-4.5177
X8.6545Y-3.8189
X8.6644Y-2.3425
X8.6742Y-2.4508
X8.6742Y-2.5689
X8.6742Y-2.687
X8.6742Y-2.8051
X8.6742Y-2.9232
X8.6742Y-3.0413
X8.6742Y-3.1299
X8.6742Y-3.2382
X8.6742Y-4.4685
X8.6762Y-3.8878
X8.6762Y-3.937
X8.6762Y-3.9961
X8.6762Y-4.0551
X8.6762Y-4.1142
X8.6762Y-4.1732
X8.6762Y-4.2323
X8.6762Y-4.2913
X8.6762Y-4.3504
X8.6762Y-4.4094
T2
X5.5085Y-3.6173
X5.5096Y-3.7654
X5.6089Y-3.6965
X5.7219Y-3.6941
X5.8242Y-3.6252
X5.825Y-3.7638
X5.8297Y-4.124
X5.8297Y-4.1929
X5.8455Y-4.0079
X5.8494Y-3.9567
X5.8494Y-4.0551
X5.8848Y-4.0551
X5.8888Y-4.2421
X5.8927Y-3.9528
X5.9478Y-4.124
X5.9478Y-4.1929
X6.0108Y-3.9528
X6.0108Y-4.0551
X6.0266Y-4.1142
X6.0266Y-4.1732
X6.0463Y-3.9665
X6.0463Y-4.0551
X6.0549Y-3.6622
X6.0581Y-4.0079
X6.0856Y-4.2421
X6.1447Y-4.1142
X6.1447Y-4.1732
X6.2498Y-3.5354
X6.2726Y-3.9949
X6.3652Y-4.1417
X6.3652Y-4.2224
X6.4203Y-4.2323
X6.4348Y-3.5433
X6.4793Y-4.1437
X6.4793Y-4.2224
X6.6093Y-3.6811
X6.6368Y-3.8484
X6.6467Y-3.6811
X6.6762Y-3.9173
X6.7589Y-4.1024
X6.7589Y-4.189
X6.7943Y-3.6811
X6.814Y-4.2323
X6.8238Y-3.8484
X6.8297Y-3.6811
X6.877Y-4.1024
X6.877Y-4.1969
X6.9593Y-3.1862
X7.0443Y-3.2708
X7.6791Y-2.7245
X7.7209Y-2.4187
X7.8685Y-2.7697
X8.0095Y-2.9799
X8.0137Y-2.6617
X8.0159Y-3.1607
X8.0185Y-2.4255
X8.1931Y-2.8912
X8.2007Y-2.9939
X8.2063Y-3.0541
X8.2076Y-2.8358
X8.2565Y-2.9369
X8.2647Y-3.1701
X8.3231Y-2.8075
X8.3235Y-2.8651
X8.3607Y-3.0945
X8.3843Y-3.2023
X8.413Y-2.9891
X8.4361Y-3.1967
X8.4383Y-2.7519
X8.4847Y-2.8923
X8.5174Y-3.002
X8.5554Y-3.0811
X8.5605Y-2.7471
X8.6043Y-3.0096
T3
X5.4596Y-4.2913
X5.4873Y-4.2245
X5.4873Y-4.3582
X5.5384Y-2.5787
X5.5541Y-4.1969
X5.5541Y-4.3858
X5.5661Y-2.5119
X5.5661Y-2.6456
X5.6209Y-4.2245
X5.6209Y-4.3582
X5.6329Y-2.4843
X5.6329Y-2.6732
X5.6486Y-4.2913
X5.6997Y-2.5119
X5.6997Y-2.6456
X5.7274Y-2.5787
X8.3337Y-2.5787
X8.3613Y-2.5119
X8.3613Y-2.6456
X8.4281Y-2.4843
X8.4281Y-2.6732
X8.495Y-2.5119
X8.495Y-2.6456
X8.5226Y-2.5787
T4
X7.2919Y-4.1622
X7.3319Y-4.2323
X7.3719Y-4.1622
X7.4119Y-4.2323
X7.4519Y-4.1622
X7.4919Y-4.2323
X7.5319Y-4.1622
X7.5719Y-4.2323
X8.0694Y-4.1622
X8.1094Y-4.2323
X8.1494Y-4.1622
X8.1894Y-4.2323
X8.2294Y-4.1622
X8.2694Y-4.2323
X8.3094Y-4.1622
X8.3494Y-4.2323
T5
X7.8483Y-2.4551
X7.8483Y-2.5811
X7.9467Y-2.4551
X7.9467Y-2.5811
T6
X6.5904Y-3.3622
X6.5904Y-3.4622
X6.6904Y-3.3622
X6.6904Y-3.4622
X6.7904Y-3.3622
X6.7904Y-3.4622
T7
X5.8888Y-4.1535
X6.0888Y-4.1535
X6.4203Y-4.1465
X6.6203Y-4.1465
X6.8203Y-4.1465
T8
X7.1116Y-4.1972
X7.7518Y-4.1972
X7.8892Y-4.1972
X8.5293Y-4.1972
T9
X7.6605Y-2.5618
X8.1345Y-2.5618
T10
X5.5541Y-4.2913
X5.6329Y-2.5787
X8.4281Y-2.5787
T0
M30
