%TF.GenerationSoftware,KiCad,Pcbnew,5.1.9+dfsg1-1~bpo10+1*%
%TF.CreationDate,2021-03-08T15:45:51+01:00*%
%TF.ProjectId,firefly,66697265-666c-4792-9e6b-696361645f70,rev?*%
%TF.SameCoordinates,Original*%
%TF.FileFunction,Soldermask,Top*%
%TF.FilePolarity,Negative*%
%FSLAX46Y46*%
G04 Gerber Fmt 4.6, Leading zero omitted, Abs format (unit mm)*
G04 Created by KiCad (PCBNEW 5.1.9+dfsg1-1~bpo10+1) date 2021-03-08 15:45:51*
%MOMM*%
%LPD*%
G01*
G04 APERTURE LIST*
%ADD10C,1.000000*%
%ADD11R,1.550000X1.300000*%
%ADD12C,2.300000*%
%ADD13C,3.250000*%
%ADD14C,1.500000*%
%ADD15R,1.500000X1.500000*%
%ADD16O,2.080000X3.600000*%
%ADD17R,1.200000X0.900000*%
%ADD18R,1.700000X1.700000*%
%ADD19O,1.700000X1.700000*%
%ADD20C,0.100000*%
%ADD21R,1.600000X3.100000*%
%ADD22R,0.550000X1.600000*%
%ADD23R,1.600000X0.550000*%
%ADD24C,3.200000*%
%ADD25R,1.000000X1.000000*%
%ADD26C,0.800000*%
%ADD27C,6.400000*%
%ADD28C,3.000000*%
%ADD29C,1.400000*%
%ADD30R,1.400000X1.400000*%
%ADD31R,0.400000X1.200000*%
%ADD32R,3.800000X2.000000*%
%ADD33R,1.500000X2.000000*%
G04 APERTURE END LIST*
%TO.C,C109*%
G36*
G01*
X159755000Y-100143750D02*
X159755000Y-100656250D01*
G75*
G02*
X159536250Y-100875000I-218750J0D01*
G01*
X159098750Y-100875000D01*
G75*
G02*
X158880000Y-100656250I0J218750D01*
G01*
X158880000Y-100143750D01*
G75*
G02*
X159098750Y-99925000I218750J0D01*
G01*
X159536250Y-99925000D01*
G75*
G02*
X159755000Y-100143750I0J-218750D01*
G01*
G37*
G36*
G01*
X161330000Y-100143750D02*
X161330000Y-100656250D01*
G75*
G02*
X161111250Y-100875000I-218750J0D01*
G01*
X160673750Y-100875000D01*
G75*
G02*
X160455000Y-100656250I0J218750D01*
G01*
X160455000Y-100143750D01*
G75*
G02*
X160673750Y-99925000I218750J0D01*
G01*
X161111250Y-99925000D01*
G75*
G02*
X161330000Y-100143750I0J-218750D01*
G01*
G37*
%TD*%
D10*
%TO.C,FID3*%
X219125000Y-113600000D03*
%TD*%
%TO.C,FID1*%
X138107000Y-60628000D03*
%TD*%
%TO.C,C121*%
G36*
G01*
X195854190Y-83199643D02*
X195491797Y-82837250D01*
G75*
G02*
X195491797Y-82527890I154680J154680D01*
G01*
X195801156Y-82218531D01*
G75*
G02*
X196110516Y-82218531I154680J-154680D01*
G01*
X196472909Y-82580924D01*
G75*
G02*
X196472909Y-82890284I-154680J-154680D01*
G01*
X196163550Y-83199643D01*
G75*
G02*
X195854190Y-83199643I-154680J154680D01*
G01*
G37*
G36*
G01*
X196967884Y-82085949D02*
X196605491Y-81723556D01*
G75*
G02*
X196605491Y-81414196I154680J154680D01*
G01*
X196914850Y-81104837D01*
G75*
G02*
X197224210Y-81104837I154680J-154680D01*
G01*
X197586603Y-81467230D01*
G75*
G02*
X197586603Y-81776590I-154680J-154680D01*
G01*
X197277244Y-82085949D01*
G75*
G02*
X196967884Y-82085949I-154680J154680D01*
G01*
G37*
%TD*%
%TO.C,C123*%
G36*
G01*
X162482343Y-83364650D02*
X162119950Y-83002257D01*
G75*
G02*
X162119950Y-82692897I154680J154680D01*
G01*
X162429309Y-82383538D01*
G75*
G02*
X162738669Y-82383538I154680J-154680D01*
G01*
X163101062Y-82745931D01*
G75*
G02*
X163101062Y-83055291I-154680J-154680D01*
G01*
X162791703Y-83364650D01*
G75*
G02*
X162482343Y-83364650I-154680J154680D01*
G01*
G37*
G36*
G01*
X163596037Y-82250956D02*
X163233644Y-81888563D01*
G75*
G02*
X163233644Y-81579203I154680J154680D01*
G01*
X163543003Y-81269844D01*
G75*
G02*
X163852363Y-81269844I154680J-154680D01*
G01*
X164214756Y-81632237D01*
G75*
G02*
X164214756Y-81941597I-154680J-154680D01*
G01*
X163905397Y-82250956D01*
G75*
G02*
X163596037Y-82250956I-154680J154680D01*
G01*
G37*
%TD*%
D11*
%TO.C,SW102*%
X182345000Y-66250000D03*
X182345000Y-61750000D03*
X190305000Y-61750000D03*
X190305000Y-66250000D03*
%TD*%
%TO.C,R2*%
G36*
G01*
X190725000Y-76493750D02*
X190725000Y-77006250D01*
G75*
G02*
X190506250Y-77225000I-218750J0D01*
G01*
X190068750Y-77225000D01*
G75*
G02*
X189850000Y-77006250I0J218750D01*
G01*
X189850000Y-76493750D01*
G75*
G02*
X190068750Y-76275000I218750J0D01*
G01*
X190506250Y-76275000D01*
G75*
G02*
X190725000Y-76493750I0J-218750D01*
G01*
G37*
G36*
G01*
X192300000Y-76493750D02*
X192300000Y-77006250D01*
G75*
G02*
X192081250Y-77225000I-218750J0D01*
G01*
X191643750Y-77225000D01*
G75*
G02*
X191425000Y-77006250I0J218750D01*
G01*
X191425000Y-76493750D01*
G75*
G02*
X191643750Y-76275000I218750J0D01*
G01*
X192081250Y-76275000D01*
G75*
G02*
X192300000Y-76493750I0J-218750D01*
G01*
G37*
%TD*%
D12*
%TO.C,J2*%
X216645000Y-106610000D03*
X200385000Y-106610000D03*
D13*
X202165000Y-110040000D03*
X214865000Y-110040000D03*
D14*
X204963000Y-105720000D03*
X206995000Y-105720000D03*
X209027000Y-105720000D03*
X211059000Y-105720000D03*
X205979000Y-107500000D03*
X208011000Y-107500000D03*
X210043000Y-107500000D03*
D15*
X212075000Y-107500000D03*
%TD*%
%TO.C,J1*%
X192325000Y-107500000D03*
D14*
X190293000Y-107500000D03*
X188261000Y-107500000D03*
X186229000Y-107500000D03*
X191309000Y-105720000D03*
X189277000Y-105720000D03*
X187245000Y-105720000D03*
X185213000Y-105720000D03*
D13*
X195115000Y-110040000D03*
X182415000Y-110040000D03*
D12*
X180635000Y-106610000D03*
X196895000Y-106610000D03*
%TD*%
%TO.C,C107*%
G36*
G01*
X166641291Y-65428684D02*
X167003684Y-65066291D01*
G75*
G02*
X167313044Y-65066291I154680J-154680D01*
G01*
X167622403Y-65375650D01*
G75*
G02*
X167622403Y-65685010I-154680J-154680D01*
G01*
X167260010Y-66047403D01*
G75*
G02*
X166950650Y-66047403I-154680J154680D01*
G01*
X166641291Y-65738044D01*
G75*
G02*
X166641291Y-65428684I154680J154680D01*
G01*
G37*
G36*
G01*
X165527597Y-64314990D02*
X165889990Y-63952597D01*
G75*
G02*
X166199350Y-63952597I154680J-154680D01*
G01*
X166508709Y-64261956D01*
G75*
G02*
X166508709Y-64571316I-154680J-154680D01*
G01*
X166146316Y-64933709D01*
G75*
G02*
X165836956Y-64933709I-154680J154680D01*
G01*
X165527597Y-64624350D01*
G75*
G02*
X165527597Y-64314990I154680J154680D01*
G01*
G37*
%TD*%
%TO.C,Jadd1*%
G36*
G01*
X162035000Y-106870002D02*
X162035000Y-103769998D01*
G75*
G02*
X162284998Y-103520000I249998J0D01*
G01*
X163865002Y-103520000D01*
G75*
G02*
X164115000Y-103769998I0J-249998D01*
G01*
X164115000Y-106870002D01*
G75*
G02*
X163865002Y-107120000I-249998J0D01*
G01*
X162284998Y-107120000D01*
G75*
G02*
X162035000Y-106870002I0J249998D01*
G01*
G37*
D16*
X168155000Y-105320000D03*
X173235000Y-105320000D03*
%TD*%
%TO.C,Cvin1*%
G36*
G01*
X137955000Y-94850000D02*
X137955000Y-92850000D01*
G75*
G02*
X138205000Y-92600000I250000J0D01*
G01*
X141705000Y-92600000D01*
G75*
G02*
X141955000Y-92850000I0J-250000D01*
G01*
X141955000Y-94850000D01*
G75*
G02*
X141705000Y-95100000I-250000J0D01*
G01*
X138205000Y-95100000D01*
G75*
G02*
X137955000Y-94850000I0J250000D01*
G01*
G37*
G36*
G01*
X145955000Y-94850000D02*
X145955000Y-92850000D01*
G75*
G02*
X146205000Y-92600000I250000J0D01*
G01*
X149705000Y-92600000D01*
G75*
G02*
X149955000Y-92850000I0J-250000D01*
G01*
X149955000Y-94850000D01*
G75*
G02*
X149705000Y-95100000I-250000J0D01*
G01*
X146205000Y-95100000D01*
G75*
G02*
X145955000Y-94850000I0J250000D01*
G01*
G37*
%TD*%
%TO.C,C102*%
G36*
G01*
X167450000Y-81056250D02*
X167450000Y-80543750D01*
G75*
G02*
X167668750Y-80325000I218750J0D01*
G01*
X168106250Y-80325000D01*
G75*
G02*
X168325000Y-80543750I0J-218750D01*
G01*
X168325000Y-81056250D01*
G75*
G02*
X168106250Y-81275000I-218750J0D01*
G01*
X167668750Y-81275000D01*
G75*
G02*
X167450000Y-81056250I0J218750D01*
G01*
G37*
G36*
G01*
X169025000Y-81056250D02*
X169025000Y-80543750D01*
G75*
G02*
X169243750Y-80325000I218750J0D01*
G01*
X169681250Y-80325000D01*
G75*
G02*
X169900000Y-80543750I0J-218750D01*
G01*
X169900000Y-81056250D01*
G75*
G02*
X169681250Y-81275000I-218750J0D01*
G01*
X169243750Y-81275000D01*
G75*
G02*
X169025000Y-81056250I0J218750D01*
G01*
G37*
%TD*%
%TO.C,C103*%
G36*
G01*
X169325000Y-67943750D02*
X169325000Y-68456250D01*
G75*
G02*
X169106250Y-68675000I-218750J0D01*
G01*
X168668750Y-68675000D01*
G75*
G02*
X168450000Y-68456250I0J218750D01*
G01*
X168450000Y-67943750D01*
G75*
G02*
X168668750Y-67725000I218750J0D01*
G01*
X169106250Y-67725000D01*
G75*
G02*
X169325000Y-67943750I0J-218750D01*
G01*
G37*
G36*
G01*
X170900000Y-67943750D02*
X170900000Y-68456250D01*
G75*
G02*
X170681250Y-68675000I-218750J0D01*
G01*
X170243750Y-68675000D01*
G75*
G02*
X170025000Y-68456250I0J218750D01*
G01*
X170025000Y-67943750D01*
G75*
G02*
X170243750Y-67725000I218750J0D01*
G01*
X170681250Y-67725000D01*
G75*
G02*
X170900000Y-67943750I0J-218750D01*
G01*
G37*
%TD*%
%TO.C,C104*%
G36*
G01*
X167450000Y-82656250D02*
X167450000Y-82143750D01*
G75*
G02*
X167668750Y-81925000I218750J0D01*
G01*
X168106250Y-81925000D01*
G75*
G02*
X168325000Y-82143750I0J-218750D01*
G01*
X168325000Y-82656250D01*
G75*
G02*
X168106250Y-82875000I-218750J0D01*
G01*
X167668750Y-82875000D01*
G75*
G02*
X167450000Y-82656250I0J218750D01*
G01*
G37*
G36*
G01*
X169025000Y-82656250D02*
X169025000Y-82143750D01*
G75*
G02*
X169243750Y-81925000I218750J0D01*
G01*
X169681250Y-81925000D01*
G75*
G02*
X169900000Y-82143750I0J-218750D01*
G01*
X169900000Y-82656250D01*
G75*
G02*
X169681250Y-82875000I-218750J0D01*
G01*
X169243750Y-82875000D01*
G75*
G02*
X169025000Y-82656250I0J218750D01*
G01*
G37*
%TD*%
%TO.C,C105*%
G36*
G01*
X169325000Y-66143750D02*
X169325000Y-66656250D01*
G75*
G02*
X169106250Y-66875000I-218750J0D01*
G01*
X168668750Y-66875000D01*
G75*
G02*
X168450000Y-66656250I0J218750D01*
G01*
X168450000Y-66143750D01*
G75*
G02*
X168668750Y-65925000I218750J0D01*
G01*
X169106250Y-65925000D01*
G75*
G02*
X169325000Y-66143750I0J-218750D01*
G01*
G37*
G36*
G01*
X170900000Y-66143750D02*
X170900000Y-66656250D01*
G75*
G02*
X170681250Y-66875000I-218750J0D01*
G01*
X170243750Y-66875000D01*
G75*
G02*
X170025000Y-66656250I0J218750D01*
G01*
X170025000Y-66143750D01*
G75*
G02*
X170243750Y-65925000I218750J0D01*
G01*
X170681250Y-65925000D01*
G75*
G02*
X170900000Y-66143750I0J-218750D01*
G01*
G37*
%TD*%
%TO.C,C106*%
G36*
G01*
X159277597Y-70314990D02*
X159639990Y-69952597D01*
G75*
G02*
X159949350Y-69952597I154680J-154680D01*
G01*
X160258709Y-70261956D01*
G75*
G02*
X160258709Y-70571316I-154680J-154680D01*
G01*
X159896316Y-70933709D01*
G75*
G02*
X159586956Y-70933709I-154680J154680D01*
G01*
X159277597Y-70624350D01*
G75*
G02*
X159277597Y-70314990I154680J154680D01*
G01*
G37*
G36*
G01*
X160391291Y-71428684D02*
X160753684Y-71066291D01*
G75*
G02*
X161063044Y-71066291I154680J-154680D01*
G01*
X161372403Y-71375650D01*
G75*
G02*
X161372403Y-71685010I-154680J-154680D01*
G01*
X161010010Y-72047403D01*
G75*
G02*
X160700650Y-72047403I-154680J154680D01*
G01*
X160391291Y-71738044D01*
G75*
G02*
X160391291Y-71428684I154680J154680D01*
G01*
G37*
%TD*%
%TO.C,C108*%
G36*
G01*
X171068750Y-82350000D02*
X171581250Y-82350000D01*
G75*
G02*
X171800000Y-82568750I0J-218750D01*
G01*
X171800000Y-83006250D01*
G75*
G02*
X171581250Y-83225000I-218750J0D01*
G01*
X171068750Y-83225000D01*
G75*
G02*
X170850000Y-83006250I0J218750D01*
G01*
X170850000Y-82568750D01*
G75*
G02*
X171068750Y-82350000I218750J0D01*
G01*
G37*
G36*
G01*
X171068750Y-80775000D02*
X171581250Y-80775000D01*
G75*
G02*
X171800000Y-80993750I0J-218750D01*
G01*
X171800000Y-81431250D01*
G75*
G02*
X171581250Y-81650000I-218750J0D01*
G01*
X171068750Y-81650000D01*
G75*
G02*
X170850000Y-81431250I0J218750D01*
G01*
X170850000Y-80993750D01*
G75*
G02*
X171068750Y-80775000I218750J0D01*
G01*
G37*
%TD*%
%TO.C,C110*%
G36*
G01*
X163188750Y-90705000D02*
X163701250Y-90705000D01*
G75*
G02*
X163920000Y-90923750I0J-218750D01*
G01*
X163920000Y-91361250D01*
G75*
G02*
X163701250Y-91580000I-218750J0D01*
G01*
X163188750Y-91580000D01*
G75*
G02*
X162970000Y-91361250I0J218750D01*
G01*
X162970000Y-90923750D01*
G75*
G02*
X163188750Y-90705000I218750J0D01*
G01*
G37*
G36*
G01*
X163188750Y-92280000D02*
X163701250Y-92280000D01*
G75*
G02*
X163920000Y-92498750I0J-218750D01*
G01*
X163920000Y-92936250D01*
G75*
G02*
X163701250Y-93155000I-218750J0D01*
G01*
X163188750Y-93155000D01*
G75*
G02*
X162970000Y-92936250I0J218750D01*
G01*
X162970000Y-92498750D01*
G75*
G02*
X163188750Y-92280000I218750J0D01*
G01*
G37*
%TD*%
%TO.C,C111*%
G36*
G01*
X184050000Y-82318750D02*
X184050000Y-82831250D01*
G75*
G02*
X183831250Y-83050000I-218750J0D01*
G01*
X183393750Y-83050000D01*
G75*
G02*
X183175000Y-82831250I0J218750D01*
G01*
X183175000Y-82318750D01*
G75*
G02*
X183393750Y-82100000I218750J0D01*
G01*
X183831250Y-82100000D01*
G75*
G02*
X184050000Y-82318750I0J-218750D01*
G01*
G37*
G36*
G01*
X182475000Y-82318750D02*
X182475000Y-82831250D01*
G75*
G02*
X182256250Y-83050000I-218750J0D01*
G01*
X181818750Y-83050000D01*
G75*
G02*
X181600000Y-82831250I0J218750D01*
G01*
X181600000Y-82318750D01*
G75*
G02*
X181818750Y-82100000I218750J0D01*
G01*
X182256250Y-82100000D01*
G75*
G02*
X182475000Y-82318750I0J-218750D01*
G01*
G37*
%TD*%
%TO.C,C112*%
G36*
G01*
X190400000Y-82293750D02*
X190400000Y-82806250D01*
G75*
G02*
X190181250Y-83025000I-218750J0D01*
G01*
X189743750Y-83025000D01*
G75*
G02*
X189525000Y-82806250I0J218750D01*
G01*
X189525000Y-82293750D01*
G75*
G02*
X189743750Y-82075000I218750J0D01*
G01*
X190181250Y-82075000D01*
G75*
G02*
X190400000Y-82293750I0J-218750D01*
G01*
G37*
G36*
G01*
X191975000Y-82293750D02*
X191975000Y-82806250D01*
G75*
G02*
X191756250Y-83025000I-218750J0D01*
G01*
X191318750Y-83025000D01*
G75*
G02*
X191100000Y-82806250I0J218750D01*
G01*
X191100000Y-82293750D01*
G75*
G02*
X191318750Y-82075000I218750J0D01*
G01*
X191756250Y-82075000D01*
G75*
G02*
X191975000Y-82293750I0J-218750D01*
G01*
G37*
%TD*%
%TO.C,C113*%
G36*
G01*
X181625000Y-81081250D02*
X181625000Y-80568750D01*
G75*
G02*
X181843750Y-80350000I218750J0D01*
G01*
X182281250Y-80350000D01*
G75*
G02*
X182500000Y-80568750I0J-218750D01*
G01*
X182500000Y-81081250D01*
G75*
G02*
X182281250Y-81300000I-218750J0D01*
G01*
X181843750Y-81300000D01*
G75*
G02*
X181625000Y-81081250I0J218750D01*
G01*
G37*
G36*
G01*
X183200000Y-81081250D02*
X183200000Y-80568750D01*
G75*
G02*
X183418750Y-80350000I218750J0D01*
G01*
X183856250Y-80350000D01*
G75*
G02*
X184075000Y-80568750I0J-218750D01*
G01*
X184075000Y-81081250D01*
G75*
G02*
X183856250Y-81300000I-218750J0D01*
G01*
X183418750Y-81300000D01*
G75*
G02*
X183200000Y-81081250I0J218750D01*
G01*
G37*
%TD*%
%TO.C,C114*%
G36*
G01*
X189550000Y-81206250D02*
X189550000Y-80693750D01*
G75*
G02*
X189768750Y-80475000I218750J0D01*
G01*
X190206250Y-80475000D01*
G75*
G02*
X190425000Y-80693750I0J-218750D01*
G01*
X190425000Y-81206250D01*
G75*
G02*
X190206250Y-81425000I-218750J0D01*
G01*
X189768750Y-81425000D01*
G75*
G02*
X189550000Y-81206250I0J218750D01*
G01*
G37*
G36*
G01*
X191125000Y-81206250D02*
X191125000Y-80693750D01*
G75*
G02*
X191343750Y-80475000I218750J0D01*
G01*
X191781250Y-80475000D01*
G75*
G02*
X192000000Y-80693750I0J-218750D01*
G01*
X192000000Y-81206250D01*
G75*
G02*
X191781250Y-81425000I-218750J0D01*
G01*
X191343750Y-81425000D01*
G75*
G02*
X191125000Y-81206250I0J218750D01*
G01*
G37*
%TD*%
%TO.C,C115*%
G36*
G01*
X189600000Y-96606250D02*
X189600000Y-96093750D01*
G75*
G02*
X189818750Y-95875000I218750J0D01*
G01*
X190256250Y-95875000D01*
G75*
G02*
X190475000Y-96093750I0J-218750D01*
G01*
X190475000Y-96606250D01*
G75*
G02*
X190256250Y-96825000I-218750J0D01*
G01*
X189818750Y-96825000D01*
G75*
G02*
X189600000Y-96606250I0J218750D01*
G01*
G37*
G36*
G01*
X191175000Y-96606250D02*
X191175000Y-96093750D01*
G75*
G02*
X191393750Y-95875000I218750J0D01*
G01*
X191831250Y-95875000D01*
G75*
G02*
X192050000Y-96093750I0J-218750D01*
G01*
X192050000Y-96606250D01*
G75*
G02*
X191831250Y-96825000I-218750J0D01*
G01*
X191393750Y-96825000D01*
G75*
G02*
X191175000Y-96606250I0J218750D01*
G01*
G37*
%TD*%
%TO.C,C116*%
G36*
G01*
X181625000Y-96606250D02*
X181625000Y-96093750D01*
G75*
G02*
X181843750Y-95875000I218750J0D01*
G01*
X182281250Y-95875000D01*
G75*
G02*
X182500000Y-96093750I0J-218750D01*
G01*
X182500000Y-96606250D01*
G75*
G02*
X182281250Y-96825000I-218750J0D01*
G01*
X181843750Y-96825000D01*
G75*
G02*
X181625000Y-96606250I0J218750D01*
G01*
G37*
G36*
G01*
X183200000Y-96606250D02*
X183200000Y-96093750D01*
G75*
G02*
X183418750Y-95875000I218750J0D01*
G01*
X183856250Y-95875000D01*
G75*
G02*
X184075000Y-96093750I0J-218750D01*
G01*
X184075000Y-96606250D01*
G75*
G02*
X183856250Y-96825000I-218750J0D01*
G01*
X183418750Y-96825000D01*
G75*
G02*
X183200000Y-96606250I0J218750D01*
G01*
G37*
%TD*%
%TO.C,C117*%
G36*
G01*
X191175000Y-98206250D02*
X191175000Y-97693750D01*
G75*
G02*
X191393750Y-97475000I218750J0D01*
G01*
X191831250Y-97475000D01*
G75*
G02*
X192050000Y-97693750I0J-218750D01*
G01*
X192050000Y-98206250D01*
G75*
G02*
X191831250Y-98425000I-218750J0D01*
G01*
X191393750Y-98425000D01*
G75*
G02*
X191175000Y-98206250I0J218750D01*
G01*
G37*
G36*
G01*
X189600000Y-98206250D02*
X189600000Y-97693750D01*
G75*
G02*
X189818750Y-97475000I218750J0D01*
G01*
X190256250Y-97475000D01*
G75*
G02*
X190475000Y-97693750I0J-218750D01*
G01*
X190475000Y-98206250D01*
G75*
G02*
X190256250Y-98425000I-218750J0D01*
G01*
X189818750Y-98425000D01*
G75*
G02*
X189600000Y-98206250I0J218750D01*
G01*
G37*
%TD*%
%TO.C,C118*%
G36*
G01*
X183200000Y-98206250D02*
X183200000Y-97693750D01*
G75*
G02*
X183418750Y-97475000I218750J0D01*
G01*
X183856250Y-97475000D01*
G75*
G02*
X184075000Y-97693750I0J-218750D01*
G01*
X184075000Y-98206250D01*
G75*
G02*
X183856250Y-98425000I-218750J0D01*
G01*
X183418750Y-98425000D01*
G75*
G02*
X183200000Y-98206250I0J218750D01*
G01*
G37*
G36*
G01*
X181625000Y-98206250D02*
X181625000Y-97693750D01*
G75*
G02*
X181843750Y-97475000I218750J0D01*
G01*
X182281250Y-97475000D01*
G75*
G02*
X182500000Y-97693750I0J-218750D01*
G01*
X182500000Y-98206250D01*
G75*
G02*
X182281250Y-98425000I-218750J0D01*
G01*
X181843750Y-98425000D01*
G75*
G02*
X181625000Y-98206250I0J218750D01*
G01*
G37*
%TD*%
D17*
%TO.C,D102*%
X153755000Y-97520000D03*
X153755000Y-94220000D03*
%TD*%
%TO.C,D103*%
G36*
G01*
X154655000Y-89476250D02*
X154655000Y-88963750D01*
G75*
G02*
X154873750Y-88745000I218750J0D01*
G01*
X155311250Y-88745000D01*
G75*
G02*
X155530000Y-88963750I0J-218750D01*
G01*
X155530000Y-89476250D01*
G75*
G02*
X155311250Y-89695000I-218750J0D01*
G01*
X154873750Y-89695000D01*
G75*
G02*
X154655000Y-89476250I0J218750D01*
G01*
G37*
G36*
G01*
X153080000Y-89476250D02*
X153080000Y-88963750D01*
G75*
G02*
X153298750Y-88745000I218750J0D01*
G01*
X153736250Y-88745000D01*
G75*
G02*
X153955000Y-88963750I0J-218750D01*
G01*
X153955000Y-89476250D01*
G75*
G02*
X153736250Y-89695000I-218750J0D01*
G01*
X153298750Y-89695000D01*
G75*
G02*
X153080000Y-89476250I0J218750D01*
G01*
G37*
%TD*%
D18*
%TO.C,J101*%
X172475000Y-85400000D03*
D19*
X172475000Y-87940000D03*
X169935000Y-85400000D03*
X169935000Y-87940000D03*
X167395000Y-85400000D03*
X167395000Y-87940000D03*
%TD*%
D20*
%TO.C,JP101*%
G36*
X187024398Y-73850000D02*
G01*
X187024398Y-73874534D01*
X187019588Y-73923365D01*
X187010016Y-73971490D01*
X186995772Y-74018445D01*
X186976995Y-74063778D01*
X186953864Y-74107051D01*
X186926604Y-74147850D01*
X186895476Y-74185779D01*
X186860779Y-74220476D01*
X186822850Y-74251604D01*
X186782051Y-74278864D01*
X186738778Y-74301995D01*
X186693445Y-74320772D01*
X186646490Y-74335016D01*
X186598365Y-74344588D01*
X186549534Y-74349398D01*
X186525000Y-74349398D01*
X186525000Y-74350000D01*
X186025000Y-74350000D01*
X186025000Y-74349398D01*
X186000466Y-74349398D01*
X185951635Y-74344588D01*
X185903510Y-74335016D01*
X185856555Y-74320772D01*
X185811222Y-74301995D01*
X185767949Y-74278864D01*
X185727150Y-74251604D01*
X185689221Y-74220476D01*
X185654524Y-74185779D01*
X185623396Y-74147850D01*
X185596136Y-74107051D01*
X185573005Y-74063778D01*
X185554228Y-74018445D01*
X185539984Y-73971490D01*
X185530412Y-73923365D01*
X185525602Y-73874534D01*
X185525602Y-73850000D01*
X185525000Y-73850000D01*
X185525000Y-73350000D01*
X187025000Y-73350000D01*
X187025000Y-73850000D01*
X187024398Y-73850000D01*
G37*
G36*
X185525000Y-73050000D02*
G01*
X185525000Y-72550000D01*
X185525602Y-72550000D01*
X185525602Y-72525466D01*
X185530412Y-72476635D01*
X185539984Y-72428510D01*
X185554228Y-72381555D01*
X185573005Y-72336222D01*
X185596136Y-72292949D01*
X185623396Y-72252150D01*
X185654524Y-72214221D01*
X185689221Y-72179524D01*
X185727150Y-72148396D01*
X185767949Y-72121136D01*
X185811222Y-72098005D01*
X185856555Y-72079228D01*
X185903510Y-72064984D01*
X185951635Y-72055412D01*
X186000466Y-72050602D01*
X186025000Y-72050602D01*
X186025000Y-72050000D01*
X186525000Y-72050000D01*
X186525000Y-72050602D01*
X186549534Y-72050602D01*
X186598365Y-72055412D01*
X186646490Y-72064984D01*
X186693445Y-72079228D01*
X186738778Y-72098005D01*
X186782051Y-72121136D01*
X186822850Y-72148396D01*
X186860779Y-72179524D01*
X186895476Y-72214221D01*
X186926604Y-72252150D01*
X186953864Y-72292949D01*
X186976995Y-72336222D01*
X186995772Y-72381555D01*
X187010016Y-72428510D01*
X187019588Y-72476635D01*
X187024398Y-72525466D01*
X187024398Y-72550000D01*
X187025000Y-72550000D01*
X187025000Y-73050000D01*
X185525000Y-73050000D01*
G37*
%TD*%
%TO.C,JP102*%
G36*
X192245000Y-73350000D02*
G01*
X192245000Y-73850000D01*
X192244398Y-73850000D01*
X192244398Y-73874534D01*
X192239588Y-73923365D01*
X192230016Y-73971490D01*
X192215772Y-74018445D01*
X192196995Y-74063778D01*
X192173864Y-74107051D01*
X192146604Y-74147850D01*
X192115476Y-74185779D01*
X192080779Y-74220476D01*
X192042850Y-74251604D01*
X192002051Y-74278864D01*
X191958778Y-74301995D01*
X191913445Y-74320772D01*
X191866490Y-74335016D01*
X191818365Y-74344588D01*
X191769534Y-74349398D01*
X191745000Y-74349398D01*
X191745000Y-74350000D01*
X191245000Y-74350000D01*
X191245000Y-74349398D01*
X191220466Y-74349398D01*
X191171635Y-74344588D01*
X191123510Y-74335016D01*
X191076555Y-74320772D01*
X191031222Y-74301995D01*
X190987949Y-74278864D01*
X190947150Y-74251604D01*
X190909221Y-74220476D01*
X190874524Y-74185779D01*
X190843396Y-74147850D01*
X190816136Y-74107051D01*
X190793005Y-74063778D01*
X190774228Y-74018445D01*
X190759984Y-73971490D01*
X190750412Y-73923365D01*
X190745602Y-73874534D01*
X190745602Y-73850000D01*
X190745000Y-73850000D01*
X190745000Y-73350000D01*
X192245000Y-73350000D01*
G37*
G36*
X190745602Y-72550000D02*
G01*
X190745602Y-72525466D01*
X190750412Y-72476635D01*
X190759984Y-72428510D01*
X190774228Y-72381555D01*
X190793005Y-72336222D01*
X190816136Y-72292949D01*
X190843396Y-72252150D01*
X190874524Y-72214221D01*
X190909221Y-72179524D01*
X190947150Y-72148396D01*
X190987949Y-72121136D01*
X191031222Y-72098005D01*
X191076555Y-72079228D01*
X191123510Y-72064984D01*
X191171635Y-72055412D01*
X191220466Y-72050602D01*
X191245000Y-72050602D01*
X191245000Y-72050000D01*
X191745000Y-72050000D01*
X191745000Y-72050602D01*
X191769534Y-72050602D01*
X191818365Y-72055412D01*
X191866490Y-72064984D01*
X191913445Y-72079228D01*
X191958778Y-72098005D01*
X192002051Y-72121136D01*
X192042850Y-72148396D01*
X192080779Y-72179524D01*
X192115476Y-72214221D01*
X192146604Y-72252150D01*
X192173864Y-72292949D01*
X192196995Y-72336222D01*
X192215772Y-72381555D01*
X192230016Y-72428510D01*
X192239588Y-72476635D01*
X192244398Y-72525466D01*
X192244398Y-72550000D01*
X192245000Y-72550000D01*
X192245000Y-73050000D01*
X190745000Y-73050000D01*
X190745000Y-72550000D01*
X190745602Y-72550000D01*
G37*
%TD*%
%TO.C,JP103*%
G36*
X184424398Y-73850000D02*
G01*
X184424398Y-73874534D01*
X184419588Y-73923365D01*
X184410016Y-73971490D01*
X184395772Y-74018445D01*
X184376995Y-74063778D01*
X184353864Y-74107051D01*
X184326604Y-74147850D01*
X184295476Y-74185779D01*
X184260779Y-74220476D01*
X184222850Y-74251604D01*
X184182051Y-74278864D01*
X184138778Y-74301995D01*
X184093445Y-74320772D01*
X184046490Y-74335016D01*
X183998365Y-74344588D01*
X183949534Y-74349398D01*
X183925000Y-74349398D01*
X183925000Y-74350000D01*
X183425000Y-74350000D01*
X183425000Y-74349398D01*
X183400466Y-74349398D01*
X183351635Y-74344588D01*
X183303510Y-74335016D01*
X183256555Y-74320772D01*
X183211222Y-74301995D01*
X183167949Y-74278864D01*
X183127150Y-74251604D01*
X183089221Y-74220476D01*
X183054524Y-74185779D01*
X183023396Y-74147850D01*
X182996136Y-74107051D01*
X182973005Y-74063778D01*
X182954228Y-74018445D01*
X182939984Y-73971490D01*
X182930412Y-73923365D01*
X182925602Y-73874534D01*
X182925602Y-73850000D01*
X182925000Y-73850000D01*
X182925000Y-73350000D01*
X184425000Y-73350000D01*
X184425000Y-73850000D01*
X184424398Y-73850000D01*
G37*
G36*
X182925000Y-73050000D02*
G01*
X182925000Y-72550000D01*
X182925602Y-72550000D01*
X182925602Y-72525466D01*
X182930412Y-72476635D01*
X182939984Y-72428510D01*
X182954228Y-72381555D01*
X182973005Y-72336222D01*
X182996136Y-72292949D01*
X183023396Y-72252150D01*
X183054524Y-72214221D01*
X183089221Y-72179524D01*
X183127150Y-72148396D01*
X183167949Y-72121136D01*
X183211222Y-72098005D01*
X183256555Y-72079228D01*
X183303510Y-72064984D01*
X183351635Y-72055412D01*
X183400466Y-72050602D01*
X183425000Y-72050602D01*
X183425000Y-72050000D01*
X183925000Y-72050000D01*
X183925000Y-72050602D01*
X183949534Y-72050602D01*
X183998365Y-72055412D01*
X184046490Y-72064984D01*
X184093445Y-72079228D01*
X184138778Y-72098005D01*
X184182051Y-72121136D01*
X184222850Y-72148396D01*
X184260779Y-72179524D01*
X184295476Y-72214221D01*
X184326604Y-72252150D01*
X184353864Y-72292949D01*
X184376995Y-72336222D01*
X184395772Y-72381555D01*
X184410016Y-72428510D01*
X184419588Y-72476635D01*
X184424398Y-72525466D01*
X184424398Y-72550000D01*
X184425000Y-72550000D01*
X184425000Y-73050000D01*
X182925000Y-73050000D01*
G37*
%TD*%
%TO.C,JP104*%
G36*
X189625000Y-73350000D02*
G01*
X189625000Y-73850000D01*
X189624398Y-73850000D01*
X189624398Y-73874534D01*
X189619588Y-73923365D01*
X189610016Y-73971490D01*
X189595772Y-74018445D01*
X189576995Y-74063778D01*
X189553864Y-74107051D01*
X189526604Y-74147850D01*
X189495476Y-74185779D01*
X189460779Y-74220476D01*
X189422850Y-74251604D01*
X189382051Y-74278864D01*
X189338778Y-74301995D01*
X189293445Y-74320772D01*
X189246490Y-74335016D01*
X189198365Y-74344588D01*
X189149534Y-74349398D01*
X189125000Y-74349398D01*
X189125000Y-74350000D01*
X188625000Y-74350000D01*
X188625000Y-74349398D01*
X188600466Y-74349398D01*
X188551635Y-74344588D01*
X188503510Y-74335016D01*
X188456555Y-74320772D01*
X188411222Y-74301995D01*
X188367949Y-74278864D01*
X188327150Y-74251604D01*
X188289221Y-74220476D01*
X188254524Y-74185779D01*
X188223396Y-74147850D01*
X188196136Y-74107051D01*
X188173005Y-74063778D01*
X188154228Y-74018445D01*
X188139984Y-73971490D01*
X188130412Y-73923365D01*
X188125602Y-73874534D01*
X188125602Y-73850000D01*
X188125000Y-73850000D01*
X188125000Y-73350000D01*
X189625000Y-73350000D01*
G37*
G36*
X188125602Y-72550000D02*
G01*
X188125602Y-72525466D01*
X188130412Y-72476635D01*
X188139984Y-72428510D01*
X188154228Y-72381555D01*
X188173005Y-72336222D01*
X188196136Y-72292949D01*
X188223396Y-72252150D01*
X188254524Y-72214221D01*
X188289221Y-72179524D01*
X188327150Y-72148396D01*
X188367949Y-72121136D01*
X188411222Y-72098005D01*
X188456555Y-72079228D01*
X188503510Y-72064984D01*
X188551635Y-72055412D01*
X188600466Y-72050602D01*
X188625000Y-72050602D01*
X188625000Y-72050000D01*
X189125000Y-72050000D01*
X189125000Y-72050602D01*
X189149534Y-72050602D01*
X189198365Y-72055412D01*
X189246490Y-72064984D01*
X189293445Y-72079228D01*
X189338778Y-72098005D01*
X189382051Y-72121136D01*
X189422850Y-72148396D01*
X189460779Y-72179524D01*
X189495476Y-72214221D01*
X189526604Y-72252150D01*
X189553864Y-72292949D01*
X189576995Y-72336222D01*
X189595772Y-72381555D01*
X189610016Y-72428510D01*
X189619588Y-72476635D01*
X189624398Y-72525466D01*
X189624398Y-72550000D01*
X189625000Y-72550000D01*
X189625000Y-73050000D01*
X188125000Y-73050000D01*
X188125000Y-72550000D01*
X188125602Y-72550000D01*
G37*
%TD*%
%TO.C,R101*%
G36*
G01*
X178111139Y-76815080D02*
X178473532Y-76452687D01*
G75*
G02*
X178782892Y-76452687I154680J-154680D01*
G01*
X179092251Y-76762046D01*
G75*
G02*
X179092251Y-77071406I-154680J-154680D01*
G01*
X178729858Y-77433799D01*
G75*
G02*
X178420498Y-77433799I-154680J154680D01*
G01*
X178111139Y-77124440D01*
G75*
G02*
X178111139Y-76815080I154680J154680D01*
G01*
G37*
G36*
G01*
X176997445Y-75701386D02*
X177359838Y-75338993D01*
G75*
G02*
X177669198Y-75338993I154680J-154680D01*
G01*
X177978557Y-75648352D01*
G75*
G02*
X177978557Y-75957712I-154680J-154680D01*
G01*
X177616164Y-76320105D01*
G75*
G02*
X177306804Y-76320105I-154680J154680D01*
G01*
X176997445Y-76010746D01*
G75*
G02*
X176997445Y-75701386I154680J154680D01*
G01*
G37*
%TD*%
%TO.C,R102*%
G36*
G01*
X143150000Y-72243750D02*
X143150000Y-72756250D01*
G75*
G02*
X142931250Y-72975000I-218750J0D01*
G01*
X142493750Y-72975000D01*
G75*
G02*
X142275000Y-72756250I0J218750D01*
G01*
X142275000Y-72243750D01*
G75*
G02*
X142493750Y-72025000I218750J0D01*
G01*
X142931250Y-72025000D01*
G75*
G02*
X143150000Y-72243750I0J-218750D01*
G01*
G37*
G36*
G01*
X141575000Y-72243750D02*
X141575000Y-72756250D01*
G75*
G02*
X141356250Y-72975000I-218750J0D01*
G01*
X140918750Y-72975000D01*
G75*
G02*
X140700000Y-72756250I0J218750D01*
G01*
X140700000Y-72243750D01*
G75*
G02*
X140918750Y-72025000I218750J0D01*
G01*
X141356250Y-72025000D01*
G75*
G02*
X141575000Y-72243750I0J-218750D01*
G01*
G37*
%TD*%
%TO.C,R104*%
G36*
G01*
X151545000Y-89476250D02*
X151545000Y-88963750D01*
G75*
G02*
X151763750Y-88745000I218750J0D01*
G01*
X152201250Y-88745000D01*
G75*
G02*
X152420000Y-88963750I0J-218750D01*
G01*
X152420000Y-89476250D01*
G75*
G02*
X152201250Y-89695000I-218750J0D01*
G01*
X151763750Y-89695000D01*
G75*
G02*
X151545000Y-89476250I0J218750D01*
G01*
G37*
G36*
G01*
X149970000Y-89476250D02*
X149970000Y-88963750D01*
G75*
G02*
X150188750Y-88745000I218750J0D01*
G01*
X150626250Y-88745000D01*
G75*
G02*
X150845000Y-88963750I0J-218750D01*
G01*
X150845000Y-89476250D01*
G75*
G02*
X150626250Y-89695000I-218750J0D01*
G01*
X150188750Y-89695000D01*
G75*
G02*
X149970000Y-89476250I0J218750D01*
G01*
G37*
%TD*%
%TO.C,Radd1*%
G36*
G01*
X169850000Y-101256250D02*
X169850000Y-100743750D01*
G75*
G02*
X170068750Y-100525000I218750J0D01*
G01*
X170506250Y-100525000D01*
G75*
G02*
X170725000Y-100743750I0J-218750D01*
G01*
X170725000Y-101256250D01*
G75*
G02*
X170506250Y-101475000I-218750J0D01*
G01*
X170068750Y-101475000D01*
G75*
G02*
X169850000Y-101256250I0J218750D01*
G01*
G37*
G36*
G01*
X171425000Y-101256250D02*
X171425000Y-100743750D01*
G75*
G02*
X171643750Y-100525000I218750J0D01*
G01*
X172081250Y-100525000D01*
G75*
G02*
X172300000Y-100743750I0J-218750D01*
G01*
X172300000Y-101256250D01*
G75*
G02*
X172081250Y-101475000I-218750J0D01*
G01*
X171643750Y-101475000D01*
G75*
G02*
X171425000Y-101256250I0J218750D01*
G01*
G37*
%TD*%
D21*
%TO.C,SW101*%
X140935000Y-84945000D03*
X158715000Y-76055000D03*
X143475000Y-84945000D03*
X156175000Y-76055000D03*
X146015000Y-84945000D03*
X153635000Y-76055000D03*
X148555000Y-84945000D03*
X151095000Y-76055000D03*
X151095000Y-84945000D03*
X148555000Y-76055000D03*
X153635000Y-84945000D03*
X146015000Y-76055000D03*
X156175000Y-84945000D03*
X143475000Y-76055000D03*
X158715000Y-84945000D03*
X140935000Y-76055000D03*
%TD*%
D22*
%TO.C,U101*%
X172675000Y-70350000D03*
X171875000Y-70350000D03*
X171075000Y-70350000D03*
X170275000Y-70350000D03*
X169475000Y-70350000D03*
X168675000Y-70350000D03*
X167875000Y-70350000D03*
X167075000Y-70350000D03*
D23*
X165625000Y-71800000D03*
X165625000Y-72600000D03*
X165625000Y-73400000D03*
X165625000Y-74200000D03*
X165625000Y-75000000D03*
X165625000Y-75800000D03*
X165625000Y-76600000D03*
X165625000Y-77400000D03*
D22*
X167075000Y-78850000D03*
X167875000Y-78850000D03*
X168675000Y-78850000D03*
X169475000Y-78850000D03*
X170275000Y-78850000D03*
X171075000Y-78850000D03*
X171875000Y-78850000D03*
X172675000Y-78850000D03*
D23*
X174125000Y-77400000D03*
X174125000Y-76600000D03*
X174125000Y-75800000D03*
X174125000Y-75000000D03*
X174125000Y-74200000D03*
X174125000Y-73400000D03*
X174125000Y-72600000D03*
X174125000Y-71800000D03*
%TD*%
%TO.C,U103*%
G36*
G01*
X191070000Y-83775000D02*
X191370000Y-83775000D01*
G75*
G02*
X191520000Y-83925000I0J-150000D01*
G01*
X191520000Y-85675000D01*
G75*
G02*
X191370000Y-85825000I-150000J0D01*
G01*
X191070000Y-85825000D01*
G75*
G02*
X190920000Y-85675000I0J150000D01*
G01*
X190920000Y-83925000D01*
G75*
G02*
X191070000Y-83775000I150000J0D01*
G01*
G37*
G36*
G01*
X189800000Y-83775000D02*
X190100000Y-83775000D01*
G75*
G02*
X190250000Y-83925000I0J-150000D01*
G01*
X190250000Y-85675000D01*
G75*
G02*
X190100000Y-85825000I-150000J0D01*
G01*
X189800000Y-85825000D01*
G75*
G02*
X189650000Y-85675000I0J150000D01*
G01*
X189650000Y-83925000D01*
G75*
G02*
X189800000Y-83775000I150000J0D01*
G01*
G37*
G36*
G01*
X188530000Y-83775000D02*
X188830000Y-83775000D01*
G75*
G02*
X188980000Y-83925000I0J-150000D01*
G01*
X188980000Y-85675000D01*
G75*
G02*
X188830000Y-85825000I-150000J0D01*
G01*
X188530000Y-85825000D01*
G75*
G02*
X188380000Y-85675000I0J150000D01*
G01*
X188380000Y-83925000D01*
G75*
G02*
X188530000Y-83775000I150000J0D01*
G01*
G37*
G36*
G01*
X187260000Y-83775000D02*
X187560000Y-83775000D01*
G75*
G02*
X187710000Y-83925000I0J-150000D01*
G01*
X187710000Y-85675000D01*
G75*
G02*
X187560000Y-85825000I-150000J0D01*
G01*
X187260000Y-85825000D01*
G75*
G02*
X187110000Y-85675000I0J150000D01*
G01*
X187110000Y-83925000D01*
G75*
G02*
X187260000Y-83775000I150000J0D01*
G01*
G37*
G36*
G01*
X185990000Y-83775000D02*
X186290000Y-83775000D01*
G75*
G02*
X186440000Y-83925000I0J-150000D01*
G01*
X186440000Y-85675000D01*
G75*
G02*
X186290000Y-85825000I-150000J0D01*
G01*
X185990000Y-85825000D01*
G75*
G02*
X185840000Y-85675000I0J150000D01*
G01*
X185840000Y-83925000D01*
G75*
G02*
X185990000Y-83775000I150000J0D01*
G01*
G37*
G36*
G01*
X184720000Y-83775000D02*
X185020000Y-83775000D01*
G75*
G02*
X185170000Y-83925000I0J-150000D01*
G01*
X185170000Y-85675000D01*
G75*
G02*
X185020000Y-85825000I-150000J0D01*
G01*
X184720000Y-85825000D01*
G75*
G02*
X184570000Y-85675000I0J150000D01*
G01*
X184570000Y-83925000D01*
G75*
G02*
X184720000Y-83775000I150000J0D01*
G01*
G37*
G36*
G01*
X183450000Y-83775000D02*
X183750000Y-83775000D01*
G75*
G02*
X183900000Y-83925000I0J-150000D01*
G01*
X183900000Y-85675000D01*
G75*
G02*
X183750000Y-85825000I-150000J0D01*
G01*
X183450000Y-85825000D01*
G75*
G02*
X183300000Y-85675000I0J150000D01*
G01*
X183300000Y-83925000D01*
G75*
G02*
X183450000Y-83775000I150000J0D01*
G01*
G37*
G36*
G01*
X182180000Y-83775000D02*
X182480000Y-83775000D01*
G75*
G02*
X182630000Y-83925000I0J-150000D01*
G01*
X182630000Y-85675000D01*
G75*
G02*
X182480000Y-85825000I-150000J0D01*
G01*
X182180000Y-85825000D01*
G75*
G02*
X182030000Y-85675000I0J150000D01*
G01*
X182030000Y-83925000D01*
G75*
G02*
X182180000Y-83775000I150000J0D01*
G01*
G37*
G36*
G01*
X182180000Y-93075000D02*
X182480000Y-93075000D01*
G75*
G02*
X182630000Y-93225000I0J-150000D01*
G01*
X182630000Y-94975000D01*
G75*
G02*
X182480000Y-95125000I-150000J0D01*
G01*
X182180000Y-95125000D01*
G75*
G02*
X182030000Y-94975000I0J150000D01*
G01*
X182030000Y-93225000D01*
G75*
G02*
X182180000Y-93075000I150000J0D01*
G01*
G37*
G36*
G01*
X183450000Y-93075000D02*
X183750000Y-93075000D01*
G75*
G02*
X183900000Y-93225000I0J-150000D01*
G01*
X183900000Y-94975000D01*
G75*
G02*
X183750000Y-95125000I-150000J0D01*
G01*
X183450000Y-95125000D01*
G75*
G02*
X183300000Y-94975000I0J150000D01*
G01*
X183300000Y-93225000D01*
G75*
G02*
X183450000Y-93075000I150000J0D01*
G01*
G37*
G36*
G01*
X184720000Y-93075000D02*
X185020000Y-93075000D01*
G75*
G02*
X185170000Y-93225000I0J-150000D01*
G01*
X185170000Y-94975000D01*
G75*
G02*
X185020000Y-95125000I-150000J0D01*
G01*
X184720000Y-95125000D01*
G75*
G02*
X184570000Y-94975000I0J150000D01*
G01*
X184570000Y-93225000D01*
G75*
G02*
X184720000Y-93075000I150000J0D01*
G01*
G37*
G36*
G01*
X185990000Y-93075000D02*
X186290000Y-93075000D01*
G75*
G02*
X186440000Y-93225000I0J-150000D01*
G01*
X186440000Y-94975000D01*
G75*
G02*
X186290000Y-95125000I-150000J0D01*
G01*
X185990000Y-95125000D01*
G75*
G02*
X185840000Y-94975000I0J150000D01*
G01*
X185840000Y-93225000D01*
G75*
G02*
X185990000Y-93075000I150000J0D01*
G01*
G37*
G36*
G01*
X187260000Y-93075000D02*
X187560000Y-93075000D01*
G75*
G02*
X187710000Y-93225000I0J-150000D01*
G01*
X187710000Y-94975000D01*
G75*
G02*
X187560000Y-95125000I-150000J0D01*
G01*
X187260000Y-95125000D01*
G75*
G02*
X187110000Y-94975000I0J150000D01*
G01*
X187110000Y-93225000D01*
G75*
G02*
X187260000Y-93075000I150000J0D01*
G01*
G37*
G36*
G01*
X188530000Y-93075000D02*
X188830000Y-93075000D01*
G75*
G02*
X188980000Y-93225000I0J-150000D01*
G01*
X188980000Y-94975000D01*
G75*
G02*
X188830000Y-95125000I-150000J0D01*
G01*
X188530000Y-95125000D01*
G75*
G02*
X188380000Y-94975000I0J150000D01*
G01*
X188380000Y-93225000D01*
G75*
G02*
X188530000Y-93075000I150000J0D01*
G01*
G37*
G36*
G01*
X189800000Y-93075000D02*
X190100000Y-93075000D01*
G75*
G02*
X190250000Y-93225000I0J-150000D01*
G01*
X190250000Y-94975000D01*
G75*
G02*
X190100000Y-95125000I-150000J0D01*
G01*
X189800000Y-95125000D01*
G75*
G02*
X189650000Y-94975000I0J150000D01*
G01*
X189650000Y-93225000D01*
G75*
G02*
X189800000Y-93075000I150000J0D01*
G01*
G37*
G36*
G01*
X191070000Y-93075000D02*
X191370000Y-93075000D01*
G75*
G02*
X191520000Y-93225000I0J-150000D01*
G01*
X191520000Y-94975000D01*
G75*
G02*
X191370000Y-95125000I-150000J0D01*
G01*
X191070000Y-95125000D01*
G75*
G02*
X190920000Y-94975000I0J150000D01*
G01*
X190920000Y-93225000D01*
G75*
G02*
X191070000Y-93075000I150000J0D01*
G01*
G37*
%TD*%
%TO.C,F1*%
G36*
G01*
X153275000Y-101125000D02*
X153275000Y-102375000D01*
G75*
G02*
X153025000Y-102625000I-250000J0D01*
G01*
X152100000Y-102625000D01*
G75*
G02*
X151850000Y-102375000I0J250000D01*
G01*
X151850000Y-101125000D01*
G75*
G02*
X152100000Y-100875000I250000J0D01*
G01*
X153025000Y-100875000D01*
G75*
G02*
X153275000Y-101125000I0J-250000D01*
G01*
G37*
G36*
G01*
X150300000Y-101125000D02*
X150300000Y-102375000D01*
G75*
G02*
X150050000Y-102625000I-250000J0D01*
G01*
X149125000Y-102625000D01*
G75*
G02*
X148875000Y-102375000I0J250000D01*
G01*
X148875000Y-101125000D01*
G75*
G02*
X149125000Y-100875000I250000J0D01*
G01*
X150050000Y-100875000D01*
G75*
G02*
X150300000Y-101125000I0J-250000D01*
G01*
G37*
%TD*%
D24*
%TO.C,H3*%
X214075000Y-90000000D03*
%TD*%
D25*
%TO.C,ESD1*%
X168325000Y-102000000D03*
X168325000Y-99500000D03*
%TD*%
%TO.C,Jc1*%
G36*
G01*
X148535000Y-107050002D02*
X148535000Y-103949998D01*
G75*
G02*
X148784998Y-103700000I249998J0D01*
G01*
X150365002Y-103700000D01*
G75*
G02*
X150615000Y-103949998I0J-249998D01*
G01*
X150615000Y-107050002D01*
G75*
G02*
X150365002Y-107300000I-249998J0D01*
G01*
X148784998Y-107300000D01*
G75*
G02*
X148535000Y-107050002I0J249998D01*
G01*
G37*
D16*
X154655000Y-105500000D03*
%TD*%
%TO.C,C101*%
G36*
G01*
X166025000Y-95550000D02*
X166025000Y-94450000D01*
G75*
G02*
X166275000Y-94200000I250000J0D01*
G01*
X169275000Y-94200000D01*
G75*
G02*
X169525000Y-94450000I0J-250000D01*
G01*
X169525000Y-95550000D01*
G75*
G02*
X169275000Y-95800000I-250000J0D01*
G01*
X166275000Y-95800000D01*
G75*
G02*
X166025000Y-95550000I0J250000D01*
G01*
G37*
G36*
G01*
X171625000Y-95550000D02*
X171625000Y-94450000D01*
G75*
G02*
X171875000Y-94200000I250000J0D01*
G01*
X174875000Y-94200000D01*
G75*
G02*
X175125000Y-94450000I0J-250000D01*
G01*
X175125000Y-95550000D01*
G75*
G02*
X174875000Y-95800000I-250000J0D01*
G01*
X171875000Y-95800000D01*
G75*
G02*
X171625000Y-95550000I0J250000D01*
G01*
G37*
%TD*%
D10*
%TO.C,FID2*%
X138361000Y-113968000D03*
%TD*%
%TO.C,TP6*%
X179075000Y-74500000D03*
%TD*%
%TO.C,TP7*%
X188475000Y-76600000D03*
%TD*%
%TO.C,TP8*%
X188825000Y-69100000D03*
%TD*%
%TO.C,TP9*%
X179075000Y-72500000D03*
%TD*%
%TO.C,TP13*%
X196325000Y-95000000D03*
%TD*%
%TO.C,C119*%
G36*
G01*
X154260010Y-64702597D02*
X154622403Y-65064990D01*
G75*
G02*
X154622403Y-65374350I-154680J-154680D01*
G01*
X154313044Y-65683709D01*
G75*
G02*
X154003684Y-65683709I-154680J154680D01*
G01*
X153641291Y-65321316D01*
G75*
G02*
X153641291Y-65011956I154680J154680D01*
G01*
X153950650Y-64702597D01*
G75*
G02*
X154260010Y-64702597I154680J-154680D01*
G01*
G37*
G36*
G01*
X153146316Y-65816291D02*
X153508709Y-66178684D01*
G75*
G02*
X153508709Y-66488044I-154680J-154680D01*
G01*
X153199350Y-66797403D01*
G75*
G02*
X152889990Y-66797403I-154680J154680D01*
G01*
X152527597Y-66435010D01*
G75*
G02*
X152527597Y-66125650I154680J154680D01*
G01*
X152836956Y-65816291D01*
G75*
G02*
X153146316Y-65816291I154680J-154680D01*
G01*
G37*
%TD*%
%TO.C,C120*%
G36*
G01*
X174896316Y-63066291D02*
X175258709Y-63428684D01*
G75*
G02*
X175258709Y-63738044I-154680J-154680D01*
G01*
X174949350Y-64047403D01*
G75*
G02*
X174639990Y-64047403I-154680J154680D01*
G01*
X174277597Y-63685010D01*
G75*
G02*
X174277597Y-63375650I154680J154680D01*
G01*
X174586956Y-63066291D01*
G75*
G02*
X174896316Y-63066291I154680J-154680D01*
G01*
G37*
G36*
G01*
X176010010Y-61952597D02*
X176372403Y-62314990D01*
G75*
G02*
X176372403Y-62624350I-154680J-154680D01*
G01*
X176063044Y-62933709D01*
G75*
G02*
X175753684Y-62933709I-154680J154680D01*
G01*
X175391291Y-62571316D01*
G75*
G02*
X175391291Y-62261956I154680J154680D01*
G01*
X175700650Y-61952597D01*
G75*
G02*
X176010010Y-61952597I154680J-154680D01*
G01*
G37*
%TD*%
%TO.C,C122*%
G36*
G01*
X176945889Y-82365896D02*
X176583496Y-82728289D01*
G75*
G02*
X176274136Y-82728289I-154680J154680D01*
G01*
X175964777Y-82418930D01*
G75*
G02*
X175964777Y-82109570I154680J154680D01*
G01*
X176327170Y-81747177D01*
G75*
G02*
X176636530Y-81747177I154680J-154680D01*
G01*
X176945889Y-82056536D01*
G75*
G02*
X176945889Y-82365896I-154680J-154680D01*
G01*
G37*
G36*
G01*
X178059583Y-83479590D02*
X177697190Y-83841983D01*
G75*
G02*
X177387830Y-83841983I-154680J154680D01*
G01*
X177078471Y-83532624D01*
G75*
G02*
X177078471Y-83223264I154680J154680D01*
G01*
X177440864Y-82860871D01*
G75*
G02*
X177750224Y-82860871I154680J-154680D01*
G01*
X178059583Y-83170230D01*
G75*
G02*
X178059583Y-83479590I-154680J-154680D01*
G01*
G37*
%TD*%
D20*
%TO.C,Y101*%
G36*
X161831497Y-70761270D02*
G01*
X160063730Y-68993503D01*
X161407233Y-67650000D01*
X163175000Y-69417767D01*
X161831497Y-70761270D01*
G37*
G36*
X164942767Y-67650000D02*
G01*
X163175000Y-65882233D01*
X164518503Y-64538730D01*
X166286270Y-66306497D01*
X164942767Y-67650000D01*
G37*
%TD*%
%TO.C,D104*%
G36*
G01*
X182925000Y-78756250D02*
X182925000Y-78243750D01*
G75*
G02*
X183143750Y-78025000I218750J0D01*
G01*
X183581250Y-78025000D01*
G75*
G02*
X183800000Y-78243750I0J-218750D01*
G01*
X183800000Y-78756250D01*
G75*
G02*
X183581250Y-78975000I-218750J0D01*
G01*
X183143750Y-78975000D01*
G75*
G02*
X182925000Y-78756250I0J218750D01*
G01*
G37*
G36*
G01*
X181350000Y-78756250D02*
X181350000Y-78243750D01*
G75*
G02*
X181568750Y-78025000I218750J0D01*
G01*
X182006250Y-78025000D01*
G75*
G02*
X182225000Y-78243750I0J-218750D01*
G01*
X182225000Y-78756250D01*
G75*
G02*
X182006250Y-78975000I-218750J0D01*
G01*
X181568750Y-78975000D01*
G75*
G02*
X181350000Y-78756250I0J218750D01*
G01*
G37*
%TD*%
%TO.C,D105*%
G36*
G01*
X190300000Y-78243750D02*
X190300000Y-78756250D01*
G75*
G02*
X190081250Y-78975000I-218750J0D01*
G01*
X189643750Y-78975000D01*
G75*
G02*
X189425000Y-78756250I0J218750D01*
G01*
X189425000Y-78243750D01*
G75*
G02*
X189643750Y-78025000I218750J0D01*
G01*
X190081250Y-78025000D01*
G75*
G02*
X190300000Y-78243750I0J-218750D01*
G01*
G37*
G36*
G01*
X188725000Y-78243750D02*
X188725000Y-78756250D01*
G75*
G02*
X188506250Y-78975000I-218750J0D01*
G01*
X188068750Y-78975000D01*
G75*
G02*
X187850000Y-78756250I0J218750D01*
G01*
X187850000Y-78243750D01*
G75*
G02*
X188068750Y-78025000I218750J0D01*
G01*
X188506250Y-78025000D01*
G75*
G02*
X188725000Y-78243750I0J-218750D01*
G01*
G37*
%TD*%
%TO.C,R1*%
G36*
G01*
X180331250Y-80475000D02*
X179818750Y-80475000D01*
G75*
G02*
X179600000Y-80256250I0J218750D01*
G01*
X179600000Y-79818750D01*
G75*
G02*
X179818750Y-79600000I218750J0D01*
G01*
X180331250Y-79600000D01*
G75*
G02*
X180550000Y-79818750I0J-218750D01*
G01*
X180550000Y-80256250D01*
G75*
G02*
X180331250Y-80475000I-218750J0D01*
G01*
G37*
G36*
G01*
X180331250Y-78900000D02*
X179818750Y-78900000D01*
G75*
G02*
X179600000Y-78681250I0J218750D01*
G01*
X179600000Y-78243750D01*
G75*
G02*
X179818750Y-78025000I218750J0D01*
G01*
X180331250Y-78025000D01*
G75*
G02*
X180550000Y-78243750I0J-218750D01*
G01*
X180550000Y-78681250D01*
G75*
G02*
X180331250Y-78900000I-218750J0D01*
G01*
G37*
%TD*%
D10*
%TO.C,TP4*%
X163325000Y-101000000D03*
%TD*%
%TO.C,TP5*%
X162275000Y-85200000D03*
%TD*%
%TO.C,TP104*%
X173675000Y-101000000D03*
%TD*%
%TO.C,TP105*%
X148325000Y-72000000D03*
%TD*%
D26*
%TO.C,H1*%
X144772056Y-63802944D03*
X143075000Y-63100000D03*
X141377944Y-63802944D03*
X140675000Y-65500000D03*
X141377944Y-67197056D03*
X143075000Y-67900000D03*
X144772056Y-67197056D03*
X145475000Y-65500000D03*
D27*
X143075000Y-65500000D03*
%TD*%
%TO.C,H2*%
X141075000Y-109000000D03*
D26*
X143475000Y-109000000D03*
X142772056Y-110697056D03*
X141075000Y-111400000D03*
X139377944Y-110697056D03*
X138675000Y-109000000D03*
X139377944Y-107302944D03*
X141075000Y-106600000D03*
X142772056Y-107302944D03*
%TD*%
%TO.C,H4*%
X215772056Y-63802944D03*
X214075000Y-63100000D03*
X212377944Y-63802944D03*
X211675000Y-65500000D03*
X212377944Y-67197056D03*
X214075000Y-67900000D03*
X215772056Y-67197056D03*
X216475000Y-65500000D03*
D27*
X214075000Y-65500000D03*
%TD*%
%TO.C,C124*%
G36*
G01*
X177331250Y-72225000D02*
X176818750Y-72225000D01*
G75*
G02*
X176600000Y-72006250I0J218750D01*
G01*
X176600000Y-71568750D01*
G75*
G02*
X176818750Y-71350000I218750J0D01*
G01*
X177331250Y-71350000D01*
G75*
G02*
X177550000Y-71568750I0J-218750D01*
G01*
X177550000Y-72006250D01*
G75*
G02*
X177331250Y-72225000I-218750J0D01*
G01*
G37*
G36*
G01*
X177331250Y-70650000D02*
X176818750Y-70650000D01*
G75*
G02*
X176600000Y-70431250I0J218750D01*
G01*
X176600000Y-69993750D01*
G75*
G02*
X176818750Y-69775000I218750J0D01*
G01*
X177331250Y-69775000D01*
G75*
G02*
X177550000Y-69993750I0J-218750D01*
G01*
X177550000Y-70431250D01*
G75*
G02*
X177331250Y-70650000I-218750J0D01*
G01*
G37*
%TD*%
D25*
%TO.C,ESD2*%
X184575000Y-68500000D03*
X182075000Y-68500000D03*
%TD*%
%TO.C,R106*%
G36*
G01*
X178350000Y-70506250D02*
X178350000Y-69993750D01*
G75*
G02*
X178568750Y-69775000I218750J0D01*
G01*
X179006250Y-69775000D01*
G75*
G02*
X179225000Y-69993750I0J-218750D01*
G01*
X179225000Y-70506250D01*
G75*
G02*
X179006250Y-70725000I-218750J0D01*
G01*
X178568750Y-70725000D01*
G75*
G02*
X178350000Y-70506250I0J218750D01*
G01*
G37*
G36*
G01*
X179925000Y-70506250D02*
X179925000Y-69993750D01*
G75*
G02*
X180143750Y-69775000I218750J0D01*
G01*
X180581250Y-69775000D01*
G75*
G02*
X180800000Y-69993750I0J-218750D01*
G01*
X180800000Y-70506250D01*
G75*
G02*
X180581250Y-70725000I-218750J0D01*
G01*
X180143750Y-70725000D01*
G75*
G02*
X179925000Y-70506250I0J218750D01*
G01*
G37*
%TD*%
%TO.C,C201*%
G36*
G01*
X212824720Y-73242360D02*
X212324720Y-73242360D01*
G75*
G02*
X212099720Y-73017360I0J225000D01*
G01*
X212099720Y-72567360D01*
G75*
G02*
X212324720Y-72342360I225000J0D01*
G01*
X212824720Y-72342360D01*
G75*
G02*
X213049720Y-72567360I0J-225000D01*
G01*
X213049720Y-73017360D01*
G75*
G02*
X212824720Y-73242360I-225000J0D01*
G01*
G37*
G36*
G01*
X212824720Y-71692360D02*
X212324720Y-71692360D01*
G75*
G02*
X212099720Y-71467360I0J225000D01*
G01*
X212099720Y-71017360D01*
G75*
G02*
X212324720Y-70792360I225000J0D01*
G01*
X212824720Y-70792360D01*
G75*
G02*
X213049720Y-71017360I0J-225000D01*
G01*
X213049720Y-71467360D01*
G75*
G02*
X212824720Y-71692360I-225000J0D01*
G01*
G37*
%TD*%
%TO.C,C202*%
G36*
G01*
X213760680Y-73036081D02*
X213760680Y-70836079D01*
G75*
G02*
X214010679Y-70586080I249999J0D01*
G01*
X214660681Y-70586080D01*
G75*
G02*
X214910680Y-70836079I0J-249999D01*
G01*
X214910680Y-73036081D01*
G75*
G02*
X214660681Y-73286080I-249999J0D01*
G01*
X214010679Y-73286080D01*
G75*
G02*
X213760680Y-73036081I0J249999D01*
G01*
G37*
G36*
G01*
X216710680Y-73036081D02*
X216710680Y-70836079D01*
G75*
G02*
X216960679Y-70586080I249999J0D01*
G01*
X217610681Y-70586080D01*
G75*
G02*
X217860680Y-70836079I0J-249999D01*
G01*
X217860680Y-73036081D01*
G75*
G02*
X217610681Y-73286080I-249999J0D01*
G01*
X216960679Y-73286080D01*
G75*
G02*
X216710680Y-73036081I0J249999D01*
G01*
G37*
%TD*%
%TO.C,C203*%
G36*
G01*
X210270000Y-69690000D02*
X210270000Y-69190000D01*
G75*
G02*
X210495000Y-68965000I225000J0D01*
G01*
X210945000Y-68965000D01*
G75*
G02*
X211170000Y-69190000I0J-225000D01*
G01*
X211170000Y-69690000D01*
G75*
G02*
X210945000Y-69915000I-225000J0D01*
G01*
X210495000Y-69915000D01*
G75*
G02*
X210270000Y-69690000I0J225000D01*
G01*
G37*
G36*
G01*
X208720000Y-69690000D02*
X208720000Y-69190000D01*
G75*
G02*
X208945000Y-68965000I225000J0D01*
G01*
X209395000Y-68965000D01*
G75*
G02*
X209620000Y-69190000I0J-225000D01*
G01*
X209620000Y-69690000D01*
G75*
G02*
X209395000Y-69915000I-225000J0D01*
G01*
X208945000Y-69915000D01*
G75*
G02*
X208720000Y-69690000I0J225000D01*
G01*
G37*
%TD*%
%TO.C,C204*%
G36*
G01*
X202004429Y-72477017D02*
X202357983Y-72830571D01*
G75*
G02*
X202357983Y-73148769I-159099J-159099D01*
G01*
X202039785Y-73466967D01*
G75*
G02*
X201721587Y-73466967I-159099J159099D01*
G01*
X201368033Y-73113413D01*
G75*
G02*
X201368033Y-72795215I159099J159099D01*
G01*
X201686231Y-72477017D01*
G75*
G02*
X202004429Y-72477017I159099J-159099D01*
G01*
G37*
G36*
G01*
X200908413Y-73573033D02*
X201261967Y-73926587D01*
G75*
G02*
X201261967Y-74244785I-159099J-159099D01*
G01*
X200943769Y-74562983D01*
G75*
G02*
X200625571Y-74562983I-159099J159099D01*
G01*
X200272017Y-74209429D01*
G75*
G02*
X200272017Y-73891231I159099J159099D01*
G01*
X200590215Y-73573033D01*
G75*
G02*
X200908413Y-73573033I159099J-159099D01*
G01*
G37*
%TD*%
%TO.C,C205*%
G36*
G01*
X209723760Y-72146480D02*
X210223760Y-72146480D01*
G75*
G02*
X210448760Y-72371480I0J-225000D01*
G01*
X210448760Y-72821480D01*
G75*
G02*
X210223760Y-73046480I-225000J0D01*
G01*
X209723760Y-73046480D01*
G75*
G02*
X209498760Y-72821480I0J225000D01*
G01*
X209498760Y-72371480D01*
G75*
G02*
X209723760Y-72146480I225000J0D01*
G01*
G37*
G36*
G01*
X209723760Y-70596480D02*
X210223760Y-70596480D01*
G75*
G02*
X210448760Y-70821480I0J-225000D01*
G01*
X210448760Y-71271480D01*
G75*
G02*
X210223760Y-71496480I-225000J0D01*
G01*
X209723760Y-71496480D01*
G75*
G02*
X209498760Y-71271480I0J225000D01*
G01*
X209498760Y-70821480D01*
G75*
G02*
X209723760Y-70596480I225000J0D01*
G01*
G37*
%TD*%
%TO.C,C206*%
G36*
G01*
X192225000Y-70175000D02*
X191725000Y-70175000D01*
G75*
G02*
X191500000Y-69950000I0J225000D01*
G01*
X191500000Y-69500000D01*
G75*
G02*
X191725000Y-69275000I225000J0D01*
G01*
X192225000Y-69275000D01*
G75*
G02*
X192450000Y-69500000I0J-225000D01*
G01*
X192450000Y-69950000D01*
G75*
G02*
X192225000Y-70175000I-225000J0D01*
G01*
G37*
G36*
G01*
X192225000Y-68625000D02*
X191725000Y-68625000D01*
G75*
G02*
X191500000Y-68400000I0J225000D01*
G01*
X191500000Y-67950000D01*
G75*
G02*
X191725000Y-67725000I225000J0D01*
G01*
X192225000Y-67725000D01*
G75*
G02*
X192450000Y-67950000I0J-225000D01*
G01*
X192450000Y-68400000D01*
G75*
G02*
X192225000Y-68625000I-225000J0D01*
G01*
G37*
%TD*%
%TO.C,D201*%
G36*
G01*
X200951429Y-76729636D02*
X200589036Y-77092029D01*
G75*
G02*
X200279676Y-77092029I-154680J154680D01*
G01*
X199970317Y-76782670D01*
G75*
G02*
X199970317Y-76473310I154680J154680D01*
G01*
X200332710Y-76110917D01*
G75*
G02*
X200642070Y-76110917I154680J-154680D01*
G01*
X200951429Y-76420276D01*
G75*
G02*
X200951429Y-76729636I-154680J-154680D01*
G01*
G37*
G36*
G01*
X202065123Y-77843330D02*
X201702730Y-78205723D01*
G75*
G02*
X201393370Y-78205723I-154680J154680D01*
G01*
X201084011Y-77896364D01*
G75*
G02*
X201084011Y-77587004I154680J154680D01*
G01*
X201446404Y-77224611D01*
G75*
G02*
X201755764Y-77224611I154680J-154680D01*
G01*
X202065123Y-77533970D01*
G75*
G02*
X202065123Y-77843330I-154680J-154680D01*
G01*
G37*
%TD*%
%TO.C,D202*%
G36*
G01*
X202095603Y-82349290D02*
X201733210Y-82711683D01*
G75*
G02*
X201423850Y-82711683I-154680J154680D01*
G01*
X201114491Y-82402324D01*
G75*
G02*
X201114491Y-82092964I154680J154680D01*
G01*
X201476884Y-81730571D01*
G75*
G02*
X201786244Y-81730571I154680J-154680D01*
G01*
X202095603Y-82039930D01*
G75*
G02*
X202095603Y-82349290I-154680J-154680D01*
G01*
G37*
G36*
G01*
X200981909Y-81235596D02*
X200619516Y-81597989D01*
G75*
G02*
X200310156Y-81597989I-154680J154680D01*
G01*
X200000797Y-81288630D01*
G75*
G02*
X200000797Y-80979270I154680J154680D01*
G01*
X200363190Y-80616877D01*
G75*
G02*
X200672550Y-80616877I154680J-154680D01*
G01*
X200981909Y-80926236D01*
G75*
G02*
X200981909Y-81235596I-154680J-154680D01*
G01*
G37*
%TD*%
D28*
%TO.C,J3*%
X206615760Y-65070280D03*
D29*
X201845760Y-65560280D03*
X199345760Y-65560280D03*
D30*
X201845760Y-62360280D03*
D28*
X194575760Y-65070280D03*
D29*
X199345760Y-62360280D03*
%TD*%
%TO.C,R201*%
G36*
G01*
X207312520Y-80552480D02*
X206762520Y-80552480D01*
G75*
G02*
X206562520Y-80352480I0J200000D01*
G01*
X206562520Y-79952480D01*
G75*
G02*
X206762520Y-79752480I200000J0D01*
G01*
X207312520Y-79752480D01*
G75*
G02*
X207512520Y-79952480I0J-200000D01*
G01*
X207512520Y-80352480D01*
G75*
G02*
X207312520Y-80552480I-200000J0D01*
G01*
G37*
G36*
G01*
X207312520Y-78902480D02*
X206762520Y-78902480D01*
G75*
G02*
X206562520Y-78702480I0J200000D01*
G01*
X206562520Y-78302480D01*
G75*
G02*
X206762520Y-78102480I200000J0D01*
G01*
X207312520Y-78102480D01*
G75*
G02*
X207512520Y-78302480I0J-200000D01*
G01*
X207512520Y-78702480D01*
G75*
G02*
X207312520Y-78902480I-200000J0D01*
G01*
G37*
%TD*%
%TO.C,R202*%
G36*
G01*
X206098934Y-73015025D02*
X205710025Y-73403934D01*
G75*
G02*
X205427183Y-73403934I-141421J141421D01*
G01*
X205144340Y-73121091D01*
G75*
G02*
X205144340Y-72838249I141421J141421D01*
G01*
X205533249Y-72449340D01*
G75*
G02*
X205816091Y-72449340I141421J-141421D01*
G01*
X206098934Y-72732183D01*
G75*
G02*
X206098934Y-73015025I-141421J-141421D01*
G01*
G37*
G36*
G01*
X207265660Y-74181751D02*
X206876751Y-74570660D01*
G75*
G02*
X206593909Y-74570660I-141421J141421D01*
G01*
X206311066Y-74287817D01*
G75*
G02*
X206311066Y-74004975I141421J141421D01*
G01*
X206699975Y-73616066D01*
G75*
G02*
X206982817Y-73616066I141421J-141421D01*
G01*
X207265660Y-73898909D01*
G75*
G02*
X207265660Y-74181751I-141421J-141421D01*
G01*
G37*
%TD*%
%TO.C,R203*%
G36*
G01*
X206765660Y-75901751D02*
X206376751Y-76290660D01*
G75*
G02*
X206093909Y-76290660I-141421J141421D01*
G01*
X205811066Y-76007817D01*
G75*
G02*
X205811066Y-75724975I141421J141421D01*
G01*
X206199975Y-75336066D01*
G75*
G02*
X206482817Y-75336066I141421J-141421D01*
G01*
X206765660Y-75618909D01*
G75*
G02*
X206765660Y-75901751I-141421J-141421D01*
G01*
G37*
G36*
G01*
X205598934Y-74735025D02*
X205210025Y-75123934D01*
G75*
G02*
X204927183Y-75123934I-141421J141421D01*
G01*
X204644340Y-74841091D01*
G75*
G02*
X204644340Y-74558249I141421J141421D01*
G01*
X205033249Y-74169340D01*
G75*
G02*
X205316091Y-74169340I141421J-141421D01*
G01*
X205598934Y-74452183D01*
G75*
G02*
X205598934Y-74735025I-141421J-141421D01*
G01*
G37*
%TD*%
%TO.C,R204*%
G36*
G01*
X202049574Y-75525425D02*
X201660665Y-75914334D01*
G75*
G02*
X201377823Y-75914334I-141421J141421D01*
G01*
X201094980Y-75631491D01*
G75*
G02*
X201094980Y-75348649I141421J141421D01*
G01*
X201483889Y-74959740D01*
G75*
G02*
X201766731Y-74959740I141421J-141421D01*
G01*
X202049574Y-75242583D01*
G75*
G02*
X202049574Y-75525425I-141421J-141421D01*
G01*
G37*
G36*
G01*
X203216300Y-76692151D02*
X202827391Y-77081060D01*
G75*
G02*
X202544549Y-77081060I-141421J141421D01*
G01*
X202261706Y-76798217D01*
G75*
G02*
X202261706Y-76515375I141421J141421D01*
G01*
X202650615Y-76126466D01*
G75*
G02*
X202933457Y-76126466I141421J-141421D01*
G01*
X203216300Y-76409309D01*
G75*
G02*
X203216300Y-76692151I-141421J-141421D01*
G01*
G37*
%TD*%
%TO.C,R205*%
G36*
G01*
X203221380Y-81223511D02*
X202832471Y-81612420D01*
G75*
G02*
X202549629Y-81612420I-141421J141421D01*
G01*
X202266786Y-81329577D01*
G75*
G02*
X202266786Y-81046735I141421J141421D01*
G01*
X202655695Y-80657826D01*
G75*
G02*
X202938537Y-80657826I141421J-141421D01*
G01*
X203221380Y-80940669D01*
G75*
G02*
X203221380Y-81223511I-141421J-141421D01*
G01*
G37*
G36*
G01*
X202054654Y-80056785D02*
X201665745Y-80445694D01*
G75*
G02*
X201382903Y-80445694I-141421J141421D01*
G01*
X201100060Y-80162851D01*
G75*
G02*
X201100060Y-79880009I141421J141421D01*
G01*
X201488969Y-79491100D01*
G75*
G02*
X201771811Y-79491100I141421J-141421D01*
G01*
X202054654Y-79773943D01*
G75*
G02*
X202054654Y-80056785I-141421J-141421D01*
G01*
G37*
%TD*%
D31*
%TO.C,U201*%
X211078660Y-79961520D03*
X211713660Y-79961520D03*
X212348660Y-79961520D03*
X212983660Y-79961520D03*
X213618660Y-79961520D03*
X214253660Y-79961520D03*
X214888660Y-79961520D03*
X215523660Y-79961520D03*
X216158660Y-79961520D03*
X216793660Y-79961520D03*
X216793660Y-74761520D03*
X216158660Y-74761520D03*
X215523660Y-74761520D03*
X214888660Y-74761520D03*
X214253660Y-74761520D03*
X213618660Y-74761520D03*
X212983660Y-74761520D03*
X212348660Y-74761520D03*
X211713660Y-74761520D03*
X211078660Y-74761520D03*
%TD*%
D32*
%TO.C,U104*%
X158785000Y-91590000D03*
D33*
X158785000Y-97890000D03*
X161085000Y-97890000D03*
X156485000Y-97890000D03*
%TD*%
M02*
